<svg width="157" height="151" viewBox="0 0 157 151" fill="none" xmlns="http://www.w3.org/2000/svg">
<g filter="url(#filter0_d_291_214)">
<rect x="48" y="32" width="60.5" height="55" rx="10" fill="url(#paint0_linear_291_214)"/>
</g>
<path d="M93.3425 64.5405L96.9536 48.2905C97.2144 47.1173 96.3424 46 95.1659 46H65.1617L64.4615 42.4992C64.2871 41.6266 63.5363 41 62.6654 41H54.8333C53.8208 41 53 41.8395 53 42.875V44.125C53 45.1605 53.8208 46 54.8333 46H60.1716L65.5378 72.8309C64.254 73.5859 63.3889 75.0017 63.3889 76.625C63.3889 79.0412 65.3041 81 67.6667 81C70.0292 81 71.9445 79.0412 71.9445 76.625C71.9445 75.4005 71.452 74.2941 70.6593 73.5H86.674C85.8814 74.2941 85.3889 75.4005 85.3889 76.625C85.3889 79.0412 87.3041 81 89.6667 81C92.0292 81 93.9445 79.0412 93.9445 76.625C93.9445 74.8928 92.96 73.3959 91.5322 72.6871L91.9536 70.7905C92.2143 69.6173 91.3423 68.5 90.1659 68.5H69.6617L69.1618 66H91.5548C92.4108 66 93.1528 65.3942 93.3425 64.5405Z" fill="#F2FFF4"/>
<ellipse cx="46.0003" cy="30.0003" rx="11.0003" ry="11.0003" fill="#12D69B"/>
<path d="M50.3407 31.086H47.2087V34.29H44.2927V31.086H41.1607V28.332H44.2927V25.11H47.2087V28.332H50.3407V31.086Z" fill="white"/>
<defs>
<filter id="filter0_d_291_214" x="0" y="0" width="156.5" height="151" filterUnits="userSpaceOnUse" color-interpolation-filters="sRGB">
<feFlood flood-opacity="0" result="BackgroundImageFix"/>
<feColorMatrix in="SourceAlpha" type="matrix" values="0 0 0 0 0 0 0 0 0 0 0 0 0 0 0 0 0 0 127 0" result="hardAlpha"/>
<feOffset dy="16"/>
<feGaussianBlur stdDeviation="24"/>
<feComposite in2="hardAlpha" operator="out"/>
<feColorMatrix type="matrix" values="0 0 0 0 0.384314 0 0 0 0 0.372549 0 0 0 0 0.956863 0 0 0 0.08 0"/>
<feBlend mode="normal" in2="BackgroundImageFix" result="effect1_dropShadow_291_214"/>
<feBlend mode="normal" in="SourceGraphic" in2="effect1_dropShadow_291_214" result="shape"/>
</filter>
<linearGradient id="paint0_linear_291_214" x1="79.8329" y1="10.8953" x2="139.41" y2="80.8371" gradientUnits="userSpaceOnUse">
<stop stop-color="#4459A9"/>
<stop offset="1" stop-color="#402383"/>
</linearGradient>
</defs>
</svg>
