<svg width="38" height="45" viewBox="0 0 38 45" fill="none" xmlns="http://www.w3.org/2000/svg">
<mask id="mask0_182_912" style="mask-type:alpha" maskUnits="userSpaceOnUse" x="5" y="3" width="28" height="27">
<path d="M18.9998 29.3143C26.1952 29.3143 32.0283 23.4812 32.0283 16.2857C32.0283 9.09024 26.1952 3.25714 18.9998 3.25714C11.8043 3.25714 5.97119 9.09024 5.97119 16.2857C5.97119 23.4812 11.8043 29.3143 18.9998 29.3143Z" fill="white"/>
</mask>
<g mask="url(#mask0_182_912)">
<mask id="mask1_182_912" style="mask-type:alpha" maskUnits="userSpaceOnUse" x="5" y="3" width="28" height="27">
<path d="M18.9998 29.3143C26.1952 29.3143 32.0283 23.4812 32.0283 16.2857C32.0283 9.09024 26.1952 3.25714 18.9998 3.25714C11.8043 3.25714 5.97119 9.09024 5.97119 16.2857C5.97119 23.4812 11.8043 29.3143 18.9998 29.3143Z" fill="white"/>
</mask>
<g mask="url(#mask1_182_912)">
<path d="M38 -2.71429H0V35.2857H38V-2.71429Z" fill="url(#paint0_linear_182_912)"/>
<path style="mix-blend-mode:overlay" d="M38 -2.71429H0V35.2857H38V-2.71429Z" fill="url(#paint1_linear_182_912)" fill-opacity="0.6"/>
<path style="mix-blend-mode:overlay" d="M38 -2.71429H0V35.2857H38V-2.71429Z" fill="url(#paint2_radial_182_912)" fill-opacity="0.6"/>
<g style="mix-blend-mode:overlay">
<path d="M38 -2.71429H0V35.2857H38V-2.71429Z" fill="black" fill-opacity="0.16"/>
</g>
<g style="mix-blend-mode:darken">
<path d="M38 -2.71429H0V35.2857H38V-2.71429Z" fill="black" fill-opacity="0.12"/>
</g>
</g>
<mask id="mask2_182_912" style="mask-type:alpha" maskUnits="userSpaceOnUse" x="5" y="3" width="28" height="27">
<path fill-rule="evenodd" clip-rule="evenodd" d="M30.9426 16.2857C30.9426 22.8816 25.5956 28.2286 18.9998 28.2286C12.4039 28.2286 7.05691 22.8816 7.05691 16.2857C7.05691 9.68986 12.4039 4.34286 18.9998 4.34286C25.5956 4.34286 30.9426 9.68986 30.9426 16.2857ZM32.0283 16.2857C32.0283 23.4812 26.1952 29.3143 18.9998 29.3143C11.8043 29.3143 5.97119 23.4812 5.97119 16.2857C5.97119 9.09025 11.8043 3.25714 18.9998 3.25714C26.1952 3.25714 32.0283 9.09025 32.0283 16.2857ZM17.1276 6.69688C16.9486 6.86996 16.8591 6.95653 16.7655 7.02923C16.3662 7.33887 15.8715 7.49961 15.3666 7.48377C15.2479 7.48004 15.1247 7.46261 14.8783 7.42774C14.4128 7.3619 14.18 7.32898 13.9793 7.33783C13.1094 7.37616 12.3465 7.93042 12.0412 8.74586C11.9708 8.93405 11.9302 9.1656 11.8489 9.62865C11.8059 9.87386 11.7844 9.99647 11.7513 10.1104C11.6104 10.5955 11.3046 11.0163 10.8868 11.3003C10.7887 11.367 10.6787 11.4254 10.4588 11.542C10.0435 11.7624 9.83585 11.8726 9.67863 11.9977C8.99742 12.54 8.70604 13.4368 8.93838 14.2759C8.992 14.4696 9.09524 14.6808 9.3017 15.1033C9.41103 15.3269 9.4657 15.4387 9.50587 15.5503C9.67699 16.0257 9.67699 16.5458 9.50587 17.0212C9.4657 17.1327 9.41103 17.2446 9.3017 17.4682C9.09524 17.8907 8.992 18.1019 8.93838 18.2955C8.70604 19.1347 8.99742 20.0315 9.67863 20.5738C9.83583 20.6989 10.0435 20.8091 10.4587 21.0294L10.4589 21.0295C10.6787 21.1461 10.7887 21.2044 10.8868 21.2711C11.3046 21.5551 11.6104 21.976 11.7513 22.4612C11.7844 22.575 11.8059 22.6976 11.8489 22.9428C11.9302 23.4059 11.9708 23.6374 12.0412 23.8256C12.3465 24.641 13.1094 25.1953 13.9793 25.2337C14.18 25.2425 14.4128 25.2095 14.8783 25.1437C15.1247 25.1088 15.2479 25.0914 15.3666 25.0878C15.8715 25.0719 16.3662 25.2326 16.7655 25.5423C16.8591 25.6149 16.9486 25.7015 17.1276 25.8745C17.4655 26.2013 17.6345 26.3649 17.8021 26.4757C18.5283 26.956 19.4712 26.956 20.1974 26.4757C20.3652 26.3649 20.534 26.2015 20.8719 25.8745H20.8721C21.0509 25.7015 21.1404 25.6149 21.234 25.5423C21.6333 25.2326 22.128 25.0719 22.633 25.0878C22.7516 25.0914 22.8748 25.1088 23.1213 25.1437C23.5868 25.2095 23.8195 25.2425 24.0202 25.2337C24.8902 25.1953 25.653 24.641 25.9582 23.8256C26.0287 23.6374 26.0694 23.4059 26.1505 22.9428C26.1936 22.6976 26.2151 22.575 26.2483 22.4612C26.3891 21.976 26.6949 21.5551 27.1128 21.2711C27.2109 21.2044 27.3208 21.1461 27.5407 21.0295C27.9561 20.8092 28.1637 20.6989 28.3209 20.5738C29.002 20.0315 29.2934 19.1347 29.0612 18.2955C29.0075 18.1019 28.9043 17.8907 28.6978 17.4684V17.4682C28.5885 17.2446 28.5338 17.1327 28.4937 17.0212C28.3225 16.5458 28.3225 16.0257 28.4937 15.5503C28.5338 15.4387 28.5885 15.3269 28.6978 15.1033C28.9043 14.6809 29.0075 14.4696 29.0612 14.2759C29.2934 13.4368 29.002 12.54 28.3209 11.9977C28.1637 11.8726 27.9561 11.7624 27.5407 11.542C27.3208 11.4254 27.2109 11.367 27.1128 11.3003C26.6949 11.0163 26.3891 10.5955 26.2483 10.1104C26.2151 9.99647 26.1936 9.87386 26.1505 9.62865C26.0694 9.1656 26.0287 8.93405 25.9582 8.74586C25.653 7.93042 24.8902 7.37616 24.0202 7.33783C23.8195 7.32898 23.5868 7.3619 23.1213 7.42774C22.8748 7.46261 22.7516 7.48004 22.633 7.48377C22.128 7.49961 21.6333 7.33887 21.234 7.02923C21.1404 6.95653 21.0509 6.86999 20.8719 6.69689C20.534 6.37001 20.3652 6.20657 20.1974 6.09572C19.4712 5.61544 18.5283 5.61544 17.8021 6.09572C17.6343 6.20657 17.4655 6.37001 17.1276 6.69688Z" fill="white"/>
</mask>
<g mask="url(#mask2_182_912)">
<path d="M38 -2.71429H0V35.2857H38V-2.71429Z" fill="url(#paint3_linear_182_912)"/>
<path style="mix-blend-mode:overlay" d="M38 -2.71429H0V35.2857H38V-2.71429Z" fill="url(#paint4_linear_182_912)" fill-opacity="0.6"/>
<path style="mix-blend-mode:overlay" d="M38 -2.71429H0V35.2857H38V-2.71429Z" fill="url(#paint5_radial_182_912)" fill-opacity="0.6"/>
<g style="mix-blend-mode:soft-light">
<path style="mix-blend-mode:lighten" fill-rule="evenodd" clip-rule="evenodd" d="M0 -2.71429H22.8L15.5234 35.2857H0V-2.71429Z" fill="url(#paint6_linear_182_912)"/>
</g>
<g opacity="0.04">
<path fill-rule="evenodd" clip-rule="evenodd" d="M18.9998 16.2857L22.7998 1.08569H15.1998L18.9998 16.2857ZM18.9998 16.2857L32.4348 8.22468L27.0608 2.85066L18.9998 16.2857ZM18.9998 16.2857L34.1998 20.0857V12.4857L18.9998 16.2857ZM18.9998 16.2857L27.0608 29.7208L32.4348 24.3467L18.9998 16.2857ZM18.9998 16.2857L15.1998 31.4857H22.7998L18.9998 16.2857ZM18.9998 16.2857L3.7998 20.0857V12.4857L18.9998 16.2857ZM18.9998 16.2857L10.9388 29.7208L5.56478 24.3467L18.9998 16.2857ZM10.9388 2.85067L5.56478 8.22468L18.9998 16.2857L10.9388 2.85067Z" fill="url(#paint7_radial_182_912)"/>
</g>
</g>
</g>
<g filter="url(#filter0_i_182_912)">
<g style="mix-blend-mode:color-burn">
<path d="M13.7232 18.797H15.7144V21.001C15.6334 21.0212 15.5118 21.0416 15.3496 21.0618C15.1876 21.0922 15.0152 21.1074 14.8328 21.1074C14.4478 21.1074 14.164 21.0364 13.9816 20.8946C13.8094 20.7628 13.7232 20.5196 13.7232 20.165V18.797ZM15.7144 11.6378H13.7232V9.11458C13.8044 9.08418 13.926 9.05884 14.088 9.03858C14.2502 9.00818 14.4224 8.99298 14.6048 8.99298C15 8.99298 15.2838 9.06392 15.456 9.20578C15.6284 9.33752 15.7144 9.58072 15.7144 9.93538V11.6378ZM14.4072 18.0522C14.9544 18.0522 15.3446 17.956 15.5776 17.7634C15.8208 17.5608 15.9424 17.3226 15.9424 17.049C15.9424 16.7956 15.8462 16.593 15.6536 16.441C15.4712 16.2788 15.1976 16.142 14.8328 16.0306L14.0272 15.7722C13.4801 15.5898 12.9987 15.3872 12.5833 15.1642C12.1678 14.9412 11.8435 14.6524 11.6105 14.2978C11.3774 13.9432 11.2609 13.4922 11.2609 12.945C11.2609 12.1039 11.5801 11.4351 12.2185 10.9386C12.8569 10.442 13.7436 10.1938 14.8784 10.1938C15.456 10.1938 15.9678 10.2495 16.4136 10.361C16.8696 10.4724 17.2244 10.6396 17.4776 10.8626C17.7412 11.0754 17.8728 11.3388 17.8728 11.653C17.8728 11.886 17.8172 12.0887 17.7056 12.261C17.6044 12.4231 17.4726 12.565 17.3104 12.6866C17.0774 12.5245 16.7684 12.3877 16.3832 12.2762C15.9982 12.1546 15.5726 12.0938 15.1064 12.0938C14.62 12.0938 14.2552 12.1749 14.012 12.337C13.7688 12.489 13.6472 12.6917 13.6472 12.945C13.6472 13.1477 13.7284 13.3149 13.8904 13.4466C14.0526 13.5682 14.2958 13.6796 14.62 13.781L15.456 14.0394C16.3782 14.3232 17.0876 14.7032 17.584 15.1794C18.0806 15.6456 18.3288 16.2738 18.3288 17.0642C18.3288 17.9154 17.9996 18.6096 17.3408 19.1466C16.6822 19.6736 15.7296 19.937 14.4832 19.937C13.8652 19.937 13.3129 19.8712 12.8265 19.7394C12.3401 19.6076 11.9499 19.4152 11.6561 19.1618C11.3723 18.9084 11.2305 18.6146 11.2305 18.2802C11.2305 18.0168 11.3065 17.7938 11.4585 17.6114C11.6206 17.4188 11.7979 17.277 11.9905 17.1858C12.2641 17.4088 12.6035 17.6114 13.0089 17.7938C13.4243 17.966 13.8904 18.0522 14.4072 18.0522ZM24.6017 15.0578C24.6017 14.389 24.5308 13.8316 24.3889 13.3858C24.247 12.9298 24.0494 12.5903 23.7961 12.3674C23.5428 12.1444 23.2438 12.033 22.8993 12.033C22.5649 12.033 22.271 12.1495 22.0177 12.3826C21.7644 12.6055 21.5668 12.9399 21.4249 13.3858C21.2932 13.8316 21.2273 14.389 21.2273 15.0578C21.2273 16.0712 21.3742 16.8312 21.6681 17.3378C21.962 17.8444 22.3724 18.0978 22.8993 18.0978C23.4465 18.0978 23.867 17.8444 24.1609 17.3378C24.4548 16.8312 24.6017 16.0712 24.6017 15.0578ZM22.9145 19.9066C22.1342 19.9066 21.4452 19.7292 20.8473 19.3746C20.2596 19.0098 19.7985 18.4676 19.4641 17.7482C19.1297 17.0288 18.9625 16.132 18.9625 15.0578C18.9625 13.9836 19.1348 13.0919 19.4793 12.3826C19.8238 11.6631 20.29 11.126 20.8777 10.7714C21.4756 10.4066 22.1545 10.2242 22.9145 10.2242C23.6644 10.2242 24.3382 10.4066 24.9361 10.7714C25.534 11.126 26.0052 11.6631 26.3497 12.3826C26.7044 13.1021 26.8817 13.9938 26.8817 15.0578C26.8817 16.132 26.7094 17.0288 26.3649 17.7482C26.0305 18.4676 25.5644 19.0098 24.9665 19.3746C24.3686 19.7292 23.6846 19.9066 22.9145 19.9066Z" fill="black" fill-opacity="0.24"/>
</g>
<g style="mix-blend-mode:darken">
<path d="M13.7232 18.797H15.7144V21.001C15.6334 21.0212 15.5118 21.0416 15.3496 21.0618C15.1876 21.0922 15.0152 21.1074 14.8328 21.1074C14.4478 21.1074 14.164 21.0364 13.9816 20.8946C13.8094 20.7628 13.7232 20.5196 13.7232 20.165V18.797ZM15.7144 11.6378H13.7232V9.11458C13.8044 9.08418 13.926 9.05884 14.088 9.03858C14.2502 9.00818 14.4224 8.99298 14.6048 8.99298C15 8.99298 15.2838 9.06392 15.456 9.20578C15.6284 9.33752 15.7144 9.58072 15.7144 9.93538V11.6378ZM14.4072 18.0522C14.9544 18.0522 15.3446 17.956 15.5776 17.7634C15.8208 17.5608 15.9424 17.3226 15.9424 17.049C15.9424 16.7956 15.8462 16.593 15.6536 16.441C15.4712 16.2788 15.1976 16.142 14.8328 16.0306L14.0272 15.7722C13.4801 15.5898 12.9987 15.3872 12.5833 15.1642C12.1678 14.9412 11.8435 14.6524 11.6105 14.2978C11.3774 13.9432 11.2609 13.4922 11.2609 12.945C11.2609 12.1039 11.5801 11.4351 12.2185 10.9386C12.8569 10.442 13.7436 10.1938 14.8784 10.1938C15.456 10.1938 15.9678 10.2495 16.4136 10.361C16.8696 10.4724 17.2244 10.6396 17.4776 10.8626C17.7412 11.0754 17.8728 11.3388 17.8728 11.653C17.8728 11.886 17.8172 12.0887 17.7056 12.261C17.6044 12.4231 17.4726 12.565 17.3104 12.6866C17.0774 12.5245 16.7684 12.3877 16.3832 12.2762C15.9982 12.1546 15.5726 12.0938 15.1064 12.0938C14.62 12.0938 14.2552 12.1749 14.012 12.337C13.7688 12.489 13.6472 12.6917 13.6472 12.945C13.6472 13.1477 13.7284 13.3149 13.8904 13.4466C14.0526 13.5682 14.2958 13.6796 14.62 13.781L15.456 14.0394C16.3782 14.3232 17.0876 14.7032 17.584 15.1794C18.0806 15.6456 18.3288 16.2738 18.3288 17.0642C18.3288 17.9154 17.9996 18.6096 17.3408 19.1466C16.6822 19.6736 15.7296 19.937 14.4832 19.937C13.8652 19.937 13.3129 19.8712 12.8265 19.7394C12.3401 19.6076 11.9499 19.4152 11.6561 19.1618C11.3723 18.9084 11.2305 18.6146 11.2305 18.2802C11.2305 18.0168 11.3065 17.7938 11.4585 17.6114C11.6206 17.4188 11.7979 17.277 11.9905 17.1858C12.2641 17.4088 12.6035 17.6114 13.0089 17.7938C13.4243 17.966 13.8904 18.0522 14.4072 18.0522ZM24.6017 15.0578C24.6017 14.389 24.5308 13.8316 24.3889 13.3858C24.247 12.9298 24.0494 12.5903 23.7961 12.3674C23.5428 12.1444 23.2438 12.033 22.8993 12.033C22.5649 12.033 22.271 12.1495 22.0177 12.3826C21.7644 12.6055 21.5668 12.9399 21.4249 13.3858C21.2932 13.8316 21.2273 14.389 21.2273 15.0578C21.2273 16.0712 21.3742 16.8312 21.6681 17.3378C21.962 17.8444 22.3724 18.0978 22.8993 18.0978C23.4465 18.0978 23.867 17.8444 24.1609 17.3378C24.4548 16.8312 24.6017 16.0712 24.6017 15.0578ZM22.9145 19.9066C22.1342 19.9066 21.4452 19.7292 20.8473 19.3746C20.2596 19.0098 19.7985 18.4676 19.4641 17.7482C19.1297 17.0288 18.9625 16.132 18.9625 15.0578C18.9625 13.9836 19.1348 13.0919 19.4793 12.3826C19.8238 11.6631 20.29 11.126 20.8777 10.7714C21.4756 10.4066 22.1545 10.2242 22.9145 10.2242C23.6644 10.2242 24.3382 10.4066 24.9361 10.7714C25.534 11.126 26.0052 11.6631 26.3497 12.3826C26.7044 13.1021 26.8817 13.9938 26.8817 15.0578C26.8817 16.132 26.7094 17.0288 26.3649 17.7482C26.0305 18.4676 25.5644 19.0098 24.9665 19.3746C24.3686 19.7292 23.6846 19.9066 22.9145 19.9066Z" fill="black" fill-opacity="0.32"/>
</g>
</g>
<defs>
<filter id="filter0_i_182_912" x="11.2305" y="8.99298" width="15.6514" height="13.1144" filterUnits="userSpaceOnUse" color-interpolation-filters="sRGB">
<feFlood flood-opacity="0" result="BackgroundImageFix"/>
<feBlend mode="normal" in="SourceGraphic" in2="BackgroundImageFix" result="shape"/>
<feColorMatrix in="SourceAlpha" type="matrix" values="0 0 0 0 0 0 0 0 0 0 0 0 0 0 0 0 0 0 127 0" result="hardAlpha"/>
<feOffset dy="1"/>
<feGaussianBlur stdDeviation="1"/>
<feComposite in2="hardAlpha" operator="arithmetic" k2="-1" k3="1"/>
<feColorMatrix type="matrix" values="0 0 0 0 0 0 0 0 0 0 0 0 0 0 0 0 0 0 0.24 0"/>
<feBlend mode="darken" in2="shape" result="effect1_innerShadow_182_912"/>
</filter>
<linearGradient id="paint0_linear_182_912" x1="19" y1="-2.71429" x2="19" y2="35.2857" gradientUnits="userSpaceOnUse">
<stop stop-color="#FFC759"/>
<stop offset="1" stop-color="#EFA006"/>
</linearGradient>
<linearGradient id="paint1_linear_182_912" x1="19" y1="1.5917" x2="19" y2="30.7827" gradientUnits="userSpaceOnUse">
<stop stop-color="white"/>
<stop offset="1" stop-color="white" stop-opacity="0"/>
</linearGradient>
<radialGradient id="paint2_radial_182_912" cx="0" cy="0" r="1" gradientUnits="userSpaceOnUse" gradientTransform="translate(19 9.97635) rotate(90) scale(19.2536 14.6082)">
<stop stop-color="white"/>
<stop offset="1" stop-color="white" stop-opacity="0"/>
</radialGradient>
<linearGradient id="paint3_linear_182_912" x1="19" y1="-2.71429" x2="19" y2="35.2857" gradientUnits="userSpaceOnUse">
<stop stop-color="#FFC759"/>
<stop offset="1" stop-color="#EFA006"/>
</linearGradient>
<linearGradient id="paint4_linear_182_912" x1="19" y1="1.5917" x2="19" y2="30.7827" gradientUnits="userSpaceOnUse">
<stop stop-color="white"/>
<stop offset="1" stop-color="white" stop-opacity="0"/>
</linearGradient>
<radialGradient id="paint5_radial_182_912" cx="0" cy="0" r="1" gradientUnits="userSpaceOnUse" gradientTransform="translate(19 9.97635) rotate(90) scale(19.2536 14.6082)">
<stop stop-color="white"/>
<stop offset="1" stop-color="white" stop-opacity="0"/>
</radialGradient>
<linearGradient id="paint6_linear_182_912" x1="0" y1="-2.71429" x2="0" y2="35.2857" gradientUnits="userSpaceOnUse">
<stop offset="0.135095" stop-color="white"/>
<stop offset="0.877908" stop-color="white" stop-opacity="0.01"/>
</linearGradient>
<radialGradient id="paint7_radial_182_912" cx="0" cy="0" r="1" gradientUnits="userSpaceOnUse" gradientTransform="translate(18.9998 16.2857) rotate(90) scale(15.2 15.2)">
<stop offset="0.075" stop-color="white" stop-opacity="0"/>
<stop offset="0.34" stop-color="white"/>
<stop offset="0.705" stop-color="white" stop-opacity="0.01"/>
</radialGradient>
</defs>
</svg>
