<svg width="78" height="78" viewBox="0 0 78 78" fill="none" xmlns="http://www.w3.org/2000/svg">
<mask id="mask0_313_472" style="mask-type:luminance" maskUnits="userSpaceOnUse" x="0" y="0" width="78" height="78">
<path d="M66.348 0.666032L0.186035 11.7255L11.2455 77.8874L77.4074 66.8279L66.348 0.666032Z" fill="white"/>
</mask>
<g mask="url(#mask0_313_472)">
<path d="M29.5982 33.5934C29.3475 33.4995 29.0781 33.4685 28.8126 33.5025C28.5476 33.5366 28.2943 33.6344 28.0755 33.7881C27.8568 33.9418 27.6786 34.1466 27.5568 34.3846C27.4345 34.6226 27.3721 34.8863 27.3751 35.154C27.3782 35.4213 27.4463 35.6841 27.5734 35.9191C27.7004 36.1544 27.8829 36.3553 28.1052 36.5042C28.3275 36.6531 28.5825 36.7452 28.8484 36.7736C29.1143 36.802 29.3829 36.7649 29.6314 36.6658C29.9396 36.5417 30.203 36.3278 30.3872 36.0514C30.5715 35.7754 30.668 35.4501 30.6645 35.1182C30.661 34.7859 30.5571 34.4628 30.3667 34.1907C30.1768 33.9187 29.9086 33.7104 29.5982 33.5934ZM28.0764 36.378C27.9017 36.247 27.7563 36.0802 27.6498 35.8894C27.5437 35.6985 27.4786 35.4872 27.4594 35.2693C27.4397 35.0518 27.4668 34.8322 27.5375 34.6257C27.6087 34.4187 27.7223 34.2292 27.8716 34.0693C28.0205 33.9095 28.2017 33.7829 28.403 33.6977C28.6043 33.6126 28.8213 33.5707 29.0397 33.5746C29.2584 33.579 29.4737 33.6287 29.6715 33.7218C29.8693 33.8148 30.0458 33.9479 30.1885 34.1134C31.4221 35.5352 29.5667 37.4915 28.0764 36.378Z" fill="white"/>
<path fill-rule="evenodd" clip-rule="evenodd" d="M29.9518 34.2489C29.7964 34.0829 29.6007 33.9607 29.3837 33.8938C29.1667 33.827 28.9361 33.8179 28.7143 33.8672C28.4925 33.9166 28.2877 34.0231 28.12 34.1759C27.9519 34.3292 27.827 34.5231 27.7567 34.7392C27.6868 34.9549 27.6746 35.1855 27.7209 35.4082C27.7672 35.6305 27.8707 35.8366 28.0213 36.0069C28.1715 36.1767 28.3637 36.3047 28.5789 36.3776C28.7938 36.451 29.0243 36.4667 29.247 36.4234C29.4776 36.3811 29.6924 36.2776 29.8688 36.123C30.0453 35.9684 30.1767 35.7693 30.2487 35.5462C30.3212 35.3235 30.3317 35.0851 30.2793 34.8567C30.2269 34.6279 30.1138 34.4178 29.9518 34.2489ZM28.3872 35.0047C28.5829 34.686 28.8064 34.3847 29.0549 34.1052C29.0558 34.1056 29.0571 34.1065 29.0571 34.1065C29.0579 34.1074 29.0584 34.1083 29.0588 34.1091C29.0593 34.11 29.0593 34.1109 29.0593 34.1117C29.0593 34.1126 29.0593 34.1135 29.0588 34.1144C29.0562 34.1419 29.0514 34.1825 29.0453 34.2323C29.0339 34.327 29.0187 34.4532 29.0095 34.5742C28.9933 34.7908 28.9872 34.7916 28.9571 34.7956C28.9549 34.796 28.9523 34.7964 28.9497 34.7969C28.7711 34.8392 28.589 34.9213 28.482 34.9694C28.4195 34.9977 28.3829 35.0143 28.3872 35.0047ZM28.5073 35.1357C28.6348 35.2397 28.7475 35.3231 28.8933 35.4248C28.9352 35.4458 28.9422 35.3545 28.9654 35.058C28.9684 35.0156 28.9719 34.9689 28.9763 34.9178C28.982 34.8772 28.9518 34.8842 28.9379 34.8873C28.9361 34.8877 28.9348 34.8881 28.9339 34.8881C28.7663 34.9349 28.6016 34.9921 28.4414 35.0593C28.42 35.0685 28.4344 35.0798 28.4693 35.1065C28.4802 35.1143 28.4929 35.1244 28.5073 35.1357ZM28.8719 36.1204C28.6619 35.8422 28.496 35.5331 28.3811 35.2043C28.3981 35.2012 28.4588 35.2545 28.5505 35.3335C28.6396 35.4113 28.7575 35.5139 28.892 35.6143C28.9056 35.7833 28.8986 35.9532 28.8719 36.1204ZM29.0152 35.6239C28.9916 35.6427 28.9876 35.6864 28.9732 35.8449C28.9671 35.916 28.9584 36.0099 28.9453 36.1348C29.2051 35.9104 29.4352 35.6545 29.6304 35.372C29.6881 35.2877 29.6492 35.3086 29.5095 35.3833C29.4103 35.4366 29.2601 35.5169 29.0575 35.606L29.0523 35.6078C29.0361 35.613 29.0243 35.6165 29.0152 35.6239ZM29.144 34.8213C29.1152 34.8087 29.1003 34.8021 29.0933 34.7912C29.0855 34.7794 29.0859 34.7628 29.0872 34.7288C29.0872 34.7226 29.0876 34.7156 29.0876 34.7078C29.0885 34.6641 29.1143 34.1545 29.1173 34.1196C29.1208 34.0851 29.1291 34.0951 29.1335 34.103C29.2016 34.213 29.5492 34.9728 29.5492 34.9728L29.5654 35.0069C29.6099 35.1008 29.616 35.1139 29.5802 35.0873C29.3296 34.9025 29.2051 34.848 29.144 34.8213ZM29.0313 35.3912C29.0265 35.4536 29.0379 35.4658 29.4147 35.2798C29.43 35.2724 29.4444 35.2654 29.4575 35.2589C29.5885 35.1951 29.6025 35.1881 29.5296 35.1375C29.3959 35.0427 29.2531 34.9611 29.1034 34.8942C29.0632 34.8794 29.0614 34.9069 29.051 35.0908C29.047 35.1637 29.0414 35.2615 29.0313 35.3912Z" fill="white"/>
<path d="M13.2866 60.6245C13.2121 60.7686 13.3145 60.9481 13.4658 60.7101C13.7174 60.3149 14.4834 58.8634 17.0409 53.8933C17.1001 53.778 17.0894 53.8378 17.4921 54.0522C17.6552 54.1387 18.0204 53.3308 14.0128 61.5267C13.8998 61.7576 14.103 61.7996 14.2044 61.5887L16.9384 55.9229C18.1225 53.4596 17.4285 54.4037 18.6939 54.219C19.2339 54.0627 19.4426 54.0596 19.6572 53.5719C19.6625 53.5605 19.6402 53.5374 19.6301 53.5195C19.5022 53.6269 19.5153 54.0107 18.5118 54.0919C18.3336 54.1072 18.1542 54.095 17.9797 54.0557C17.7632 54.0059 17.6517 54.5186 20.2967 48.9397C20.4168 48.686 20.2714 48.6685 20.1674 48.8777C19.4902 50.241 18.2158 52.8667 17.7323 53.8797C17.676 53.9985 17.6582 53.9758 17.2344 53.6797C17.1023 53.5872 17.1922 53.7531 19.7902 48.5803C19.8958 48.3698 19.7662 48.3484 19.6963 48.4685C19.5181 48.7746 18.2888 51.0977 18.2707 51.13C16.9748 53.5492 17.0625 53.5426 16.9545 53.4116C16.3131 52.626 16.8742 51.7104 17.2691 51.951C17.4172 52.0413 17.3285 52.1536 17.3534 52.1767C17.3928 52.209 17.4485 52.2488 17.4776 52.1872C17.6921 51.7348 16.9831 51.5374 16.6704 51.982C16.5083 52.2309 16.4393 52.5287 16.4756 52.823C16.5119 53.1177 16.6511 53.3898 16.8687 53.592C17.0006 53.7278 17.0233 53.3671 13.2866 60.6245Z" fill="white"/>
<path d="M15.0352 62.4084C15.2087 62.363 15.3621 62.2608 15.4703 62.1176C15.5787 61.9744 15.6358 61.7993 15.6325 61.6202C15.6022 61.3818 15.3889 61.06 15.3365 61.1185C15.2841 61.1775 15.3437 61.2224 15.4206 61.4871C15.5264 61.8495 15.3213 61.9713 15.1027 62.1674C14.9389 62.3141 14.5802 61.9608 14.6944 62.3691C14.7319 62.5743 14.7245 62.7848 14.6726 62.9866C14.6208 63.1887 14.5257 63.3769 14.394 63.5381C14.0764 63.9184 13.4291 63.7141 13.2795 62.756C13.2629 62.6569 13.1458 62.6687 13.0895 62.7586C12.1396 64.2756 10.4704 62.649 11.886 61.2936C11.9712 61.2133 12.0812 61.1648 12.1979 61.1556C12.277 61.1425 12.3298 61.1919 12.3946 61.2098C12.4978 61.239 12.5718 61.1224 12.5055 61.0591C12.3507 60.908 12.2393 60.891 12.1766 60.6115C12.048 60.0207 12.6345 59.3448 13.1461 59.698C13.2447 59.7526 13.1846 59.9281 13.2766 59.919C13.3216 59.9116 13.321 59.8779 13.3286 59.8399C13.3951 59.4993 12.934 59.3098 12.6095 59.4378C12.4798 59.4941 12.3626 59.5753 12.2644 59.6771C12.1662 59.7788 12.089 59.8989 12.0372 60.0303C11.9854 60.1618 11.9601 60.3024 11.9626 60.4439C11.9651 60.5853 11.9955 60.7246 12.0519 60.8543C12.1134 60.9858 12.0351 60.9342 11.8648 61.053C11.6447 61.2137 11.465 61.4233 11.3397 61.6652C11.2145 61.9076 11.1472 62.1752 11.1431 62.4477C11.1919 63.3804 12.0861 63.8883 12.7292 63.4189C13.0665 63.1726 13.0683 63.0512 13.1444 63.1927C13.847 64.5035 14.665 63.8167 14.8358 63.1398C15.0286 62.3687 14.7684 62.4599 15.0352 62.4084Z" fill="white"/>
<path d="M38.0563 32.6331C37.1869 32.6269 34.7127 32.5959 34.3944 32.7903C34.1625 32.9086 33.976 33.0994 33.8634 33.3339C33.7512 33.5688 33.7188 33.8339 33.7721 34.0885C33.7782 34.1514 33.7725 34.216 33.783 34.2771C33.7974 34.3618 33.8284 34.4439 33.8463 34.5282C33.9162 34.8566 33.949 35.1911 34.0455 35.5172C34.6284 37.5015 33.7424 37.6761 37.6039 37.4897C38.189 37.46 40.0636 37.3844 40.5544 37.077C41.3911 36.5561 41.2605 35.8937 41.0981 34.9212L41.1177 34.9181C40.5597 32.5304 40.7003 32.6523 38.0563 32.6331ZM40.6143 36.6277C39.1763 36.8307 37.7248 36.9251 36.2725 36.9098C35.4528 36.8626 35.1044 37.0102 34.9424 36.6089C34.6345 35.5382 34.4048 34.4461 34.2546 33.3422C34.2306 32.8627 34.4503 32.754 37.986 32.7955C40.1946 32.8217 40.3523 32.8379 40.5649 33.4527C40.7435 33.9479 40.8667 34.4618 40.9317 34.9841C41.0409 35.6448 41.2658 36.4853 40.6143 36.6286V36.6277Z" fill="white"/>
<path d="M30.6681 31.9428C29.8969 31.7786 27.7572 32.4733 27.0062 32.7249C26.9171 32.7497 26.8376 32.8013 26.7787 32.8729C26.7202 32.9449 26.6852 33.0327 26.6782 33.1253C26.6774 34.0178 26.7241 34.9095 26.8188 35.7968C27.2293 38.3566 27.2747 38.6068 27.5804 38.5208C27.8542 38.4439 28.0568 38.4072 28.2507 38.3478C31.9593 37.237 31.9606 37.819 32.0309 37.3863C32.1047 36.9287 31.5641 33.5475 30.9873 32.2406C30.9624 32.169 30.92 32.1044 30.8641 32.0524C30.8087 32.0004 30.7414 31.9629 30.6681 31.9428ZM31.806 37.2876C31.8226 37.512 31.744 37.1819 29.176 37.8107C28.0786 38.0793 27.5703 38.416 27.4944 38.1989C27.2494 37.4998 26.5948 33.1545 26.9765 32.9585C27.8664 32.6209 28.7852 32.3664 29.7218 32.1978C30.6855 32.0367 30.7633 32.0856 30.9829 32.8371C31.4427 34.2803 31.7187 35.7759 31.8047 37.288L31.806 37.2876Z" fill="white"/>
<path d="M18.8844 63.3348C18.5757 63.3776 18.8719 63.6426 18.8379 63.7221C18.6797 63.6217 18.1413 63.2164 18.0219 63.3623C17.9875 63.4051 18.0486 63.4553 18.1403 63.5029C18.9796 63.9409 19.2401 64.5802 19.3781 64.447C19.5289 64.3016 19.1609 63.9514 19.0152 63.6387C18.943 63.4841 19.821 64.2247 19.6487 63.9522C19.4758 63.6618 19.2046 63.4426 18.8844 63.3348Z" fill="white"/>
<path d="M38.6493 34.8924C38.7375 35.5409 39.4331 35.867 39.8707 35.5164C39.9886 35.4203 40.0811 35.2968 40.1409 35.157C40.2003 35.0173 40.2252 34.8649 40.213 34.7134C40.2008 34.5614 40.1519 34.4151 40.0706 34.2867C39.9894 34.1584 39.8781 34.0514 39.7462 33.9754C39.248 33.661 38.541 34.0824 38.6493 34.8924ZM38.8423 35.0099C38.6091 34.4632 39.0838 33.7706 39.6798 34.0916C39.7741 34.1488 39.8536 34.2265 39.913 34.3195C39.9724 34.4121 40.0099 34.5173 40.0222 34.6269C40.1829 35.4601 39.2087 35.8684 38.8423 35.0099Z" fill="white"/>
<path d="M35.6894 34.2116C35.6693 34.3514 36.3885 34.2466 37.65 34.1584C37.702 34.1544 37.7216 34.1029 37.6692 34.0697C37.4928 33.9557 35.7173 34.0274 35.6894 34.2116Z" fill="white"/>
<path d="M37.4134 34.519C36.2405 34.5819 36.1069 34.5889 36.1388 34.6871C36.168 34.7793 36.382 34.7304 36.6165 34.723C37.6235 34.6906 37.692 34.7352 37.7156 34.6583C37.7348 34.5928 37.5518 34.5116 37.4134 34.519Z" fill="white"/>
<path d="M36.5839 35.1505C36.4533 35.1649 36.4568 35.3003 36.5966 35.2898C37.4494 35.2278 37.9393 35.2544 37.7332 35.0885C37.6952 35.0579 36.638 35.1444 36.5839 35.1505Z" fill="white"/>
<path d="M30.3654 32.9135C30.4056 32.8755 30.4825 32.8563 30.4427 32.7829C30.3908 32.6877 30.2405 32.8554 30.2183 32.7095C30.2043 32.6253 30.2004 32.5187 30.1449 32.5178C30.0899 32.5165 30.0812 32.5991 30.0737 32.6711C30.0641 32.7667 30.079 32.741 29.8471 32.675C29.8532 32.7942 30.0755 32.8222 29.9292 32.899C29.8794 32.9248 29.8323 32.9541 29.7847 32.982C29.8344 33.0514 29.9004 33.0113 29.9606 33.0056C30.1344 32.989 30.0764 33.0436 30.1174 33.1663C30.1309 33.2056 30.1135 33.2689 30.172 33.2733C30.1877 33.2742 30.2178 33.2021 30.2244 33.1624C30.2379 33.0742 30.2654 33.1047 30.3419 33.1196C30.4122 33.1174 30.4283 33.089 30.3977 33.0309C30.3781 32.9929 30.3126 32.9637 30.3654 32.9135Z" fill="white"/>
<path d="M28.2038 37.1146C28.2754 37.0177 28.1623 36.9928 28.113 37.0299C28.0064 37.1103 28.0112 36.9793 27.9654 36.9321C27.9453 36.9151 27.9235 36.9002 27.9003 36.888C27.8457 36.9832 27.8615 36.9085 27.8715 37.1622C27.7846 37.1557 27.6274 37.1255 27.6894 37.1928C27.7754 37.2875 27.8545 37.2574 27.7654 37.4037C27.7601 37.4116 27.7139 37.4661 27.7427 37.4937C27.8121 37.5605 27.9484 37.3011 28.0112 37.4574C28.0318 37.4906 28.0566 37.5207 28.085 37.5469C28.1003 37.5159 28.1178 37.4976 28.1169 37.481C28.109 37.3461 28.3431 37.4334 28.3405 37.3535C28.3357 37.2007 28.0523 37.3194 28.2038 37.1146Z" fill="white"/>
<path d="M28.3647 33.0036C28.3315 32.9935 28.2878 32.9669 28.2747 32.9774C28.2023 33.0368 28.1547 33.0237 28.1075 32.9472C28.0905 32.9197 28.0394 32.9276 28.0385 32.959C28.0451 33.0861 27.9682 33.0411 27.8438 33.0621C27.9568 33.2053 28.0451 33.1857 27.994 33.2791C27.9774 33.3145 27.9721 33.3542 27.9791 33.3926C27.9983 33.3852 28.0228 33.3852 28.0359 33.3704C28.0691 33.3372 28.1031 33.2883 28.1472 33.345C28.2376 33.4608 28.1996 33.2966 28.3346 33.3267C28.4472 33.352 28.4298 33.2402 28.3878 33.2245C28.2529 33.1599 28.3324 33.1044 28.3647 33.0036Z" fill="white"/>
<path d="M30.1348 36.7531C30.1108 36.7165 30.0864 36.651 30.0366 36.6772C29.9759 36.709 30.0235 36.7636 30.0409 36.8095C30.0929 36.9496 30.0663 36.9269 29.9907 36.9986C30.1252 37.1335 30.0501 37.0479 30.0737 37.1885C30.2462 37.1466 30.1261 37.0326 30.3147 37.2082C30.32 37.1055 30.2981 37.0702 30.3959 37.0291C30.5702 36.9558 30.3811 36.8986 30.2837 36.7811C30.2754 36.7684 30.22 36.8833 30.1348 36.7531Z" fill="white"/>
<path d="M31.1034 34.596C31.1173 34.5515 30.9444 34.5519 30.8868 34.4471C30.8697 34.4157 30.8671 34.4187 30.8134 34.3886C30.7711 34.4663 30.8296 34.569 30.7261 34.6266C30.7475 34.6777 30.7684 34.7279 30.7868 34.7711C30.7518 34.8318 30.7702 34.8563 30.8195 34.8698C30.9055 34.893 30.9488 34.9615 30.9737 34.8812C30.9986 34.8004 31.0942 34.8694 31.1208 34.8515C31.1374 34.8344 31.1488 34.8126 31.1536 34.7895C31.075 34.741 31.0798 34.6729 31.1034 34.596Z" fill="white"/>
<path fill-rule="evenodd" clip-rule="evenodd" d="M54.7145 37.9893C54.8473 37.9959 54.98 38.012 55.111 38.0365C55.1573 38.0387 55.2018 38.054 55.2398 38.0806C55.2774 38.1072 55.3066 38.1444 55.3246 38.1872C55.342 38.2295 55.3473 38.2767 55.3394 38.3216C55.3315 38.3675 55.3106 38.4099 55.2796 38.4439C55.1219 38.588 54.8704 38.6291 54.7582 38.6474C54.6966 38.6574 54.6774 38.6605 54.7394 38.6705C54.7831 38.6714 54.8259 38.6836 54.8639 38.7042C54.9027 38.7256 54.9355 38.7548 54.9604 38.7911C54.9848 38.8273 55.0005 38.8684 55.0062 38.9116C55.0123 38.9553 55.0075 38.9994 54.9931 39.0404C54.9372 39.1282 54.8643 39.2033 54.7778 39.2614C54.6923 39.3194 54.5953 39.3596 54.4931 39.3793C54.4062 39.405 54.3735 39.4103 54.3735 39.4142C54.3735 39.4221 54.4792 39.426 54.5713 39.536C54.773 39.9242 53.7119 40.0801 53.2779 40.1028C52.8491 40.3137 52.3631 40.3797 51.8932 40.291C51.8378 40.3399 51.7893 40.3954 51.7483 40.457C51.6352 40.6801 51.4382 40.8508 51.2011 40.9312C51.1382 40.9674 51.1059 41.036 51.0653 41.122C50.9601 41.3447 50.7994 41.6857 49.9138 41.9076C49.8418 41.9255 49.7737 41.9993 49.6868 42.0945C49.5488 42.2447 49.3623 42.4477 49.0366 42.5595C48.8885 42.6102 48.7667 42.6202 48.661 42.6281C48.5274 42.6385 48.4187 42.6473 48.3148 42.7346C48.12 42.8979 47.8947 43.0206 47.6519 43.0953C47.4091 43.1704 47.1537 43.1966 46.9008 43.1713C46.8052 43.1617 46.7332 43.2259 46.6362 43.3123C46.4961 43.4368 46.3035 43.6084 45.9114 43.6739C45.6612 43.7481 45.3943 43.7481 45.1446 43.6726C45.0337 43.6189 44.9896 43.6403 44.8843 43.6909C44.7463 43.7573 44.5018 43.8752 43.859 43.9411C43.4809 43.9796 43.2211 43.8678 43.0743 43.8045C42.9713 43.7603 42.9241 43.7398 42.9316 43.8132C42.9578 44.0813 42.9765 44.2306 42.9626 44.3769C42.9412 44.6018 42.8433 44.8197 42.5814 45.4551C42.5381 45.5603 42.5464 45.5808 42.5761 45.6533C42.6097 45.7354 42.6713 45.8861 42.7145 46.3092C42.7289 46.452 42.7774 46.497 42.8294 46.5459C42.9407 46.6502 43.0691 46.7703 42.9206 47.8934C42.8866 48.1515 42.8342 48.4056 42.7827 48.6585C42.7499 48.8178 42.7176 48.9764 42.6896 49.1357C42.6643 49.237 42.6137 49.3305 42.5425 49.4069C42.4119 49.568 42.287 49.5907 42.1905 49.6087C42.1281 49.6204 42.0774 49.6292 42.0447 49.672C42.0277 49.6942 42.0477 49.7117 42.0884 49.7458C42.1652 49.8104 42.3154 49.9366 42.4132 50.2772C42.4525 50.651 42.4019 51.0291 42.2643 51.3793C42.2233 51.5077 42.201 51.5662 42.2172 51.6112C42.2329 51.6549 42.2857 51.685 42.3953 51.7553C42.546 51.8549 42.6674 51.9933 42.7464 52.1557C42.8254 52.3182 42.8599 52.499 42.8455 52.6793C42.839 53.0989 42.6914 53.5042 42.4255 53.8286C42.3556 53.9299 42.4067 53.9544 42.5062 54.0024C42.6455 54.0697 42.8792 54.1823 43.0045 54.6159C43.032 54.8255 43.011 55.0391 42.9438 55.2395C42.877 55.4399 42.7648 55.6224 42.6167 55.7735C42.4678 55.9255 42.5001 55.9482 42.5661 55.9949C42.5722 55.9989 42.5787 56.0037 42.5853 56.0085C42.7486 56.1002 42.8778 56.2425 42.9521 56.4146C43.0267 56.5862 43.0433 56.7779 42.9988 56.9595C42.9062 57.2844 42.7307 57.5792 42.4901 57.8154C42.4486 57.8678 42.5036 57.9163 42.5809 57.9848C42.6848 58.0765 42.8294 58.2032 42.8316 58.4228C42.8407 59.3228 42.4704 59.6459 42.2224 59.8625C42.1167 59.9546 42.0333 60.0276 42.0111 60.1171C41.5853 61.8319 39.0618 64.7073 37.3034 66.7112C36.2781 67.8797 35.5126 68.7518 35.5759 68.9238C35.844 69.6539 35.6969 71.6905 35.293 71.8905C35.2537 71.9097 35.2414 71.9316 35.2266 71.9582C35.1938 72.0163 35.1476 72.0997 34.779 72.2416C33.7345 72.6455 31.4573 69.9054 30.8595 68.8731L30.8176 68.8011C30.0936 67.5505 29.9539 67.309 30.3346 66.9544C30.4115 66.8832 30.4316 66.7671 30.4569 66.6208C30.4966 66.3894 30.549 66.0841 30.8608 65.7658C31.3263 65.2907 31.3315 65.1051 31.3416 64.7702C31.3547 64.327 31.3752 63.6213 32.4848 61.6332C32.9136 60.8647 33.2559 60.3594 33.9459 59.3416C34.045 59.1957 34.1511 59.0389 34.2655 58.8695C34.3192 58.79 34.3083 58.7852 34.2192 58.7472C34.1515 58.718 34.0376 58.6691 33.8725 58.5521C33.6345 58.3839 33.7013 58.1625 33.7904 57.8678C33.8013 57.8316 33.8122 57.7944 33.8236 57.756C33.8673 57.604 33.8441 57.5979 33.7214 57.5665C33.604 57.5359 33.3948 57.4822 33.0664 57.2525C32.7027 56.9984 32.7564 56.6019 32.8655 56.1076C32.9031 55.9382 32.8341 55.9024 32.3835 55.6657C32.3686 55.6578 32.3538 55.65 32.3385 55.6421C31.9119 55.4177 31.8324 55.1386 31.787 54.9788C31.7577 54.8771 31.7424 54.8229 31.6612 54.8605C31.4604 54.9526 31.2752 55.0024 31.1171 55.0452C30.8289 55.1233 30.6307 55.177 30.5931 55.4159C30.5848 55.4705 30.5862 55.5373 30.5879 55.6128C30.5936 55.874 30.6019 56.243 30.2141 56.6063C30.0591 56.7508 29.9491 56.7766 29.5722 56.8661C29.5438 56.8731 29.5137 56.8801 29.4823 56.8875C29.3631 56.9159 29.3626 56.918 29.3997 57.0329C29.532 57.4429 29.3687 57.9119 28.5233 58.1416C28.4592 58.1591 28.4683 58.2066 28.4823 58.2787C28.5181 58.459 28.584 58.7957 27.6098 59.2149L27.6059 59.2162C27.4426 59.2861 27.333 59.3333 27.3164 59.449C27.2797 59.6105 27.2003 59.759 27.0863 59.8791C26.9728 59.9992 26.8287 60.0865 26.6697 60.1328C26.5116 60.1948 26.4671 60.2738 26.4025 60.39C26.3383 60.504 26.2544 60.6537 26.0208 60.8585C22.1935 64.2126 21.1708 64.7637 20.6909 65.0222C20.4232 65.1663 20.3237 65.22 20.0018 65.6165C19.3701 66.3929 17.7748 67.8548 17.0246 68.0256C16.0768 68.2408 15.2402 67.1623 15.5171 65.7414C15.8671 63.9467 16.5759 63.2353 16.9532 62.8567C17.0807 62.7292 17.1704 62.6393 17.1954 62.5585C17.7885 60.6441 18.8993 58.7433 19.4266 57.8412C19.543 57.6416 19.631 57.4914 19.6787 57.4001C19.8857 57.0041 20.0809 56.8731 20.2215 56.7787C20.3311 56.7058 20.4075 56.6547 20.4302 56.5181C20.4538 56.3722 20.511 56.2342 20.597 56.1137C20.6835 55.9941 20.7961 55.8958 20.9267 55.8272C21.0201 55.7788 21.0188 55.7757 20.9795 55.6687L20.9773 55.6631C20.9053 55.4639 20.8848 55.2491 20.918 55.0399C20.9319 55.0041 20.9625 54.9661 20.9957 54.9251C21.0869 54.8116 21.1974 54.6749 21.0271 54.4862C20.8717 54.067 20.835 53.6129 20.9219 53.174C20.9721 52.8313 21.1808 52.6758 21.3411 52.557C21.462 52.4671 21.5555 52.3977 21.5323 52.2828C21.4 51.6247 21.3075 50.9401 21.7957 50.4706C21.9402 50.3318 22.0502 50.2444 22.1319 50.1794C22.2878 50.0554 22.3406 50.0134 22.3301 49.8554C22.3231 49.7541 22.3127 49.6567 22.3017 49.5611C22.2485 49.0777 22.2017 48.6523 22.6974 48.0982C22.7402 48.0506 22.7781 48.0135 22.8087 47.9842C22.8908 47.9056 22.9188 47.8786 22.8402 47.8284C22.7637 47.779 22.7022 47.7358 22.6511 47.7C22.5327 47.6166 22.472 47.5742 22.4166 47.5908C22.3576 47.6091 22.3052 47.6956 22.1956 47.876C22.117 48.0056 22.0092 48.1834 21.8485 48.4187C21.2537 49.2899 19.4174 46.9144 19.5943 46.059C19.7114 45.5638 19.8673 45.0791 20.0599 44.6084C20.2416 44.3896 20.1957 44.1656 20.1162 43.7787C19.9031 42.7407 19.4501 40.5321 22.4939 34.124C23.1166 32.8183 23.8126 31.5494 24.5785 30.3228C26.9701 26.4801 29.7657 26.0181 30.7669 25.8526C31.0137 25.8115 31.1512 25.7888 31.1477 25.7382C31.1586 25.6556 31.1477 25.5718 31.1163 25.495C31.0848 25.4181 31.0333 25.3509 30.9678 25.3002C30.4076 24.8496 30.4971 22.7837 31.2962 22.1169C31.3783 22.0483 31.4246 21.9348 31.4914 21.7706C31.6206 21.4536 31.8272 20.9462 32.5184 20.2038C33.104 19.644 33.8262 19.248 34.6126 19.0554C36.3012 18.5122 38.4479 19.1213 39.657 20.1676C40.3963 20.8073 40.5683 21.3318 40.6705 21.6431C40.7072 21.7553 40.7351 21.8396 40.777 21.892C41.9325 23.3234 41.6809 25.6072 40.877 26.594C40.7063 26.8041 40.684 26.9661 40.6552 27.1809C40.6146 27.4822 40.56 27.887 40.0579 28.6739C39.8915 28.9355 39.7142 29.0822 39.6125 29.1665C39.4946 29.2638 39.478 29.2778 39.6946 29.2896C40.2408 29.3202 40.4592 29.6189 40.6251 29.8459C40.7378 30.0005 40.8264 30.1219 40.9775 30.1036C41.2954 30.1835 41.584 30.3525 41.8098 30.5904C42.0351 30.8284 42.1879 31.1262 42.2504 31.4481C42.2595 31.5262 42.3036 31.5446 42.4115 31.5895C42.4945 31.6249 42.6163 31.6756 42.7888 31.783C42.9835 31.914 43.1385 32.0969 43.2355 32.3109C43.3324 32.5249 43.3682 32.762 43.3381 32.9952C43.3215 33.1161 43.4206 33.2083 43.5538 33.3314C43.7481 33.5113 44.0136 33.7576 44.0948 34.2571C44.121 34.4178 44.1071 34.5296 44.0961 34.6191C44.0791 34.7593 44.0682 34.8466 44.2241 34.9864C44.9031 35.5925 44.7629 36.0571 44.6765 36.3431C44.6341 36.4828 44.6049 36.5802 44.6904 36.6304C44.9232 36.7514 45.1144 36.9396 45.2393 37.1706C45.3638 37.4016 45.4166 37.6645 45.3909 37.926C45.3891 38.0514 45.4345 38.047 45.5498 38.0365C45.6463 38.0278 45.7904 38.0147 45.9974 38.0671C46.1572 38.1077 46.2515 38.1435 46.3153 38.1671C46.4144 38.2046 46.4384 38.2134 46.5166 38.1684C46.7087 38.0562 46.9279 37.999 47.1506 38.0029C47.3733 38.0072 47.5903 38.0727 47.7785 38.192C47.8061 38.2094 47.8331 38.2295 47.8598 38.2492C47.9672 38.3295 48.0707 38.4072 48.2322 38.3243C48.5816 38.2326 48.9519 38.2837 49.2632 38.4657C49.2833 38.4815 49.3082 38.4906 49.3335 38.4919C49.3593 38.4933 49.3846 38.4863 49.406 38.4719C49.6763 38.3164 49.9282 38.4107 50.1038 38.4767C50.199 38.5125 50.2715 38.5395 50.3121 38.5138C50.4243 38.4666 50.5448 38.4426 50.6662 38.4426C50.788 38.443 50.9081 38.4675 51.0203 38.5151C51.026 37.9915 51.1889 37.4815 51.4876 37.0509C51.516 37.0086 51.5544 36.9745 51.5998 36.9527C51.6456 36.9304 51.6959 36.9213 51.7465 36.9256C51.9007 36.9558 51.9452 37.2308 51.95 37.516C51.8683 37.6086 51.795 37.692 51.7291 37.7671C51.7456 37.1881 51.716 36.8811 51.4164 37.5627C51.3212 37.8134 51.2636 38.0749 51.2435 38.3378C51.223 38.3653 51.2064 38.3889 51.1928 38.4099C51.1374 38.4946 51.1072 38.5561 51.2422 38.74C51.2644 39.0579 51.3417 39.3723 51.4736 39.6688C51.5339 39.7906 51.6247 39.895 51.7365 39.9723C51.8487 40.0491 51.978 40.0963 52.1138 40.1089C52.4875 40.1522 52.8657 40.0976 53.212 39.9504C53.2452 39.9447 53.2993 39.9382 53.3661 39.9308C53.6609 39.8972 54.2102 39.8334 54.4019 39.6631C54.4159 39.6469 54.4281 39.633 54.4259 39.6207C54.2744 39.4906 53.6805 39.5517 53.4665 39.5736C53.446 39.5758 53.4286 39.5775 53.4159 39.5784C53.3914 39.581 53.3665 39.5731 53.3478 39.5574C53.3286 39.5417 53.3168 39.5194 53.3146 39.495C53.3124 39.4701 53.3198 39.4456 53.3355 39.4269C53.3513 39.4076 53.374 39.3959 53.3984 39.3932C53.8569 39.3609 54.3067 39.2483 54.7268 39.0601C54.966 38.8828 54.6927 38.8417 54.5316 38.826C54.3364 38.8029 54.1394 38.7985 53.9438 38.8125C53.9831 38.771 54.0211 38.7308 54.0569 38.6919C54.0814 38.6653 54.1058 38.6391 54.1298 38.6138C54.3407 38.5828 54.622 38.5273 54.9909 38.4147L54.9896 38.4151C55.0643 38.3933 55.1765 38.3513 55.1748 38.2845C55.1739 38.1679 54.8211 38.1509 54.5578 38.1562C54.6124 38.0981 54.6647 38.0422 54.7145 37.9893ZM39.5212 28.9106C39.9762 28.4425 40.2801 27.8495 40.3945 27.2071L40.3972 27.2063C40.4041 27.1761 40.3727 27.1438 40.329 27.167C39.9286 27.4613 39.4692 27.6669 38.9832 27.7704C36.8143 28.318 34.4568 27.4189 33.3022 25.7618C33.1127 25.4893 33.0236 25.288 32.9717 25.1701C32.9153 25.0421 32.9018 25.0116 32.8503 25.0932C32.8385 25.1116 32.8249 25.1347 32.8101 25.1609C32.6979 25.3552 32.487 25.7211 32.0442 25.7129C31.8381 25.6967 31.6337 25.6635 31.4329 25.6129C31.3556 25.6107 31.3914 25.7832 31.4154 25.8504C32.097 27.7556 33.0092 28.4193 34.4716 28.9678C35.6742 29.4088 36.9597 29.5787 38.2357 29.4651C38.3304 29.4389 38.4199 29.4149 38.5029 29.3927C38.9671 29.2686 39.2675 29.1883 39.5212 28.9106ZM36.2672 30.1953C34.9039 30.0686 33.4895 29.9372 32.7359 28.7704L32.7389 28.7674C32.6503 28.6468 32.5926 28.5062 32.5725 28.3582C32.5629 28.2914 32.5682 28.2626 32.5625 28.2359C32.5512 28.184 32.4974 28.1412 32.2036 27.8416C32.083 27.8141 31.9569 27.8241 31.842 27.87C31.7272 27.9158 31.6289 27.9953 31.5599 28.0979C31.4128 28.4665 31.6817 29.0407 31.932 29.3171C32.3477 29.8276 32.8957 30.214 33.5157 30.4341C35.203 31.1109 38.9112 31.4157 39.0723 29.6092C39.0797 29.5267 39.0474 29.501 38.9728 29.5241C38.9666 29.5258 38.9566 29.5289 38.9439 29.5324C38.8448 29.5608 38.568 29.6402 38.5247 29.7263C38.3998 29.9774 37.8627 30.1808 37.5798 30.2049C37.2182 30.228 36.8558 30.2319 36.4938 30.2167C36.4187 30.2092 36.3432 30.2022 36.2672 30.1953ZM32.8743 28.4647C32.9188 28.4835 32.9616 28.5058 33.0031 28.5307C34.0472 29.2464 35.8641 29.6988 37.0492 29.7485C37.3361 29.7603 37.6339 29.7437 37.8606 29.7311C38.3252 29.7053 38.492 29.6957 37.6553 29.9839C36.4785 30.0865 35.2934 29.9547 34.1681 29.5957C33.2035 29.2643 32.8254 28.5582 32.8743 28.4647ZM32.1494 22.1042C32.1123 22.0933 32.0874 22.1269 32.1184 22.1632L32.1189 22.1658C32.5817 22.7094 32.5149 23.8679 32.2691 24.5548C32.1717 24.8696 31.9905 25.1522 31.7442 25.3714C31.6713 25.4561 31.8503 25.4897 31.963 25.505C32.0407 25.526 32.1232 25.5255 32.2009 25.5033C32.2787 25.4814 32.349 25.4386 32.404 25.3797C32.8686 24.8286 33.0476 23.7588 32.9162 23.0129C32.8315 22.5343 32.7153 22.2156 32.1494 22.1042ZM36.6244 24.9618C36.6907 24.9146 36.7593 24.8718 36.8305 24.833L36.8309 24.8347C36.8493 24.8251 36.8698 24.8203 36.8907 24.8203C36.9113 24.8203 36.9318 24.8247 36.9506 24.8338C36.9689 24.843 36.9855 24.8565 36.9982 24.8731C37.0108 24.8893 37.0191 24.9085 37.023 24.929C37.0388 25.1478 37.0152 25.3675 36.9536 25.5779C36.8361 26.2469 36.5641 26.7403 36.3877 27.0604C36.2427 27.3228 36.1624 27.4687 36.2833 27.5001C36.713 27.608 37.1523 27.6713 37.5951 27.6888C37.6322 27.691 37.6689 27.6805 37.699 27.6586C37.7296 27.6373 37.7514 27.6058 37.7614 27.57C38.5789 25.6273 38.5632 24.0277 38.4409 23.4658C38.4173 23.361 38.344 23.4653 38.2553 23.5915C38.1007 23.8112 37.9007 24.0959 37.8431 23.4426C37.8082 22.5448 37.7047 21.6514 37.5322 20.7698C37.5309 20.7619 37.5291 20.7549 37.5278 20.7479C37.4981 20.6108 37.4929 20.5859 36.5449 20.6938C36.4135 20.7165 36.2851 20.7475 36.1545 20.7816C36.0619 20.8051 36.0838 20.8702 36.1405 21.0374C36.1838 21.1636 36.2466 21.3488 36.2947 21.6187C36.6038 23.35 36.43 24.3574 36.351 24.8159C36.2886 25.1775 36.2851 25.1971 36.6244 24.9618ZM36.0122 19.0842C35.1013 19.0851 33.566 19.5432 32.7468 20.3379L32.7455 20.3401C32.3197 20.7527 31.7866 21.5182 31.7481 21.8876C31.9551 21.8496 32.1678 21.8628 32.3686 21.9256C32.5691 21.9885 32.7516 22.0994 32.8996 22.2488C32.9795 22.3396 33.0813 22.2378 33.2782 22.0422C33.6939 21.6283 34.5323 20.7938 36.4794 20.4602C37.0645 20.3645 37.6619 20.3637 38.2474 20.4575C39.3278 20.6239 39.8526 21.0562 40.1408 21.2933C40.2491 21.3829 40.3242 21.4449 40.3823 21.4545C40.2657 21.1632 40.0963 20.8968 39.8815 20.668C38.8474 19.6558 37.4593 19.0873 36.0122 19.0842ZM31.9603 22.3461C31.4691 21.6876 30.687 23.3391 30.901 24.4788L30.8997 24.481C31.0647 25.3635 31.4267 25.3989 31.6935 25.1111C32.2625 24.4932 32.4245 22.968 31.9603 22.3461ZM21.655 48.2672C21.8284 48.0283 21.9804 47.7742 22.1083 47.5083L22.1066 47.51C22.1782 47.3589 22.1764 47.3554 22.0616 47.2445C21.0638 46.3005 20.7066 45.4865 20.5062 45.0306C20.4284 44.8533 20.3743 44.7298 20.3154 44.6739C20.0852 45.1948 19.9154 45.7398 19.8084 46.2991C20.0542 47.0148 20.4843 47.6533 21.0551 48.1502C21.1481 48.2279 21.2511 48.2921 21.3616 48.3423C21.4118 48.3668 21.4686 48.372 21.5223 48.3585C21.576 48.3445 21.6232 48.3122 21.655 48.2672ZM20.5442 40.0024C20.1315 41.4041 20.1106 42.8918 20.4843 44.3044L20.4817 44.3066C20.9607 46.2249 23.2187 48.22 23.2877 47.5314C23.2078 47.1044 23.2288 46.6642 23.3493 46.2467C23.6266 45.5337 23.9139 45.3297 24.0371 45.242C24.1056 45.1935 24.1235 45.1808 24.0598 45.1367C23.944 45.0529 23.8593 44.9332 23.8187 44.7961C23.7781 44.6595 23.7833 44.5127 23.834 44.3791C23.8938 44.1341 23.9445 43.9167 23.9899 43.7232C24.2755 42.5036 24.3379 42.239 24.8672 42.1691C24.9501 42.1578 24.9427 42.1167 24.9204 41.998C24.9043 41.9106 24.8803 41.7822 24.8785 41.5936C24.8728 40.9303 25.0331 40.5797 25.1514 40.322C25.2331 40.143 25.2946 40.0089 25.2663 39.8456C25.1484 39.2085 25.1597 38.5544 25.2986 37.9217C25.3309 37.6928 25.4038 37.4719 25.5134 37.2684C25.5479 37.216 25.5684 37.1553 25.5732 37.0929C25.5776 37.03 25.5663 36.9671 25.5401 36.9099C25.3772 36.4335 25.4741 36.1339 25.5466 35.9095C25.5968 35.7545 25.6352 35.6357 25.5689 35.52C25.4318 35.2558 25.3658 34.961 25.3767 34.6637C25.3877 34.3667 25.4754 34.0772 25.6318 33.824C25.7409 33.6694 25.7291 33.6218 25.6933 33.4777C25.6654 33.3646 25.623 33.1925 25.6125 32.8629C25.6069 32.6685 25.6523 32.476 25.744 32.3044C25.8357 32.1327 25.971 31.9882 26.1357 31.8856C26.2562 31.8035 26.2505 31.7572 26.233 31.6149C26.2243 31.5454 26.213 31.4537 26.2121 31.3236C26.1942 31.1031 26.2413 30.8821 26.3483 30.6883C26.4549 30.4944 26.6164 30.3363 26.8125 30.2337C26.9426 30.1459 27.0396 30.0315 27.1396 29.914C27.3286 29.6909 27.5286 29.4555 27.9845 29.3665C28.0945 29.3638 28.2037 29.3416 28.3063 29.301C28.3924 29.2245 28.4661 29.135 28.5238 29.0355C28.7893 28.6966 29.1137 28.6726 29.3914 28.6516C29.6133 28.635 29.805 28.6206 29.9124 28.4495C30.122 28.1176 30.7709 28.0403 31.1241 28.1342C31.2813 28.1757 31.2988 28.132 31.3228 28.0726C31.3289 28.0578 31.3355 28.0425 31.3442 28.0268C31.4049 27.9211 31.4901 27.8311 31.5927 27.7652C31.6948 27.6988 31.8114 27.6578 31.9328 27.6455C32.0464 27.6333 32.0389 27.6233 31.9534 27.5014C31.8608 27.3709 31.6765 27.1102 31.4529 26.5788C31.2329 26.0556 31.2224 26.0421 31.1268 26.0513C30.9656 26.0661 30.8041 26.0788 30.6289 26.0923L30.5731 26.0967C28.9456 26.5368 27.6356 27.2975 27.5505 27.4447C27.6509 27.4595 27.7526 27.4591 27.8526 27.4429C28.6709 27.315 29.7783 27.6145 29.8591 27.7966C29.7019 27.7757 29.5473 27.7394 29.3971 27.6879C28.9177 27.5822 27.2775 27.5604 26.9444 27.8936C26.1042 28.6608 25.3702 29.5368 24.7615 30.4979C23.1803 32.9519 21.2909 36.9999 20.5442 40.0024ZM26.275 39.9592C26.171 39.8299 26.0169 39.6382 25.8859 39.2242C25.7518 38.7312 25.7462 38.212 25.8693 37.716C25.8366 37.6086 25.7785 37.5108 25.6994 37.4308C25.4125 38.1998 25.347 39.0334 25.5108 39.8373C25.5418 40.0159 25.5064 40.1998 25.4112 40.3539C25.1632 40.915 25.0872 41.5373 25.1929 42.1416C25.2003 42.3669 25.12 42.4962 25.0628 42.5879C25.0056 42.6796 24.9715 42.7342 25.0711 42.8106C25.8807 43.4687 26.7693 44.0232 27.7168 44.4608C27.7251 44.4651 27.7343 44.4712 27.7435 44.4778C27.7701 44.4966 27.7981 44.5162 27.8225 44.4835C27.9159 44.3586 27.5823 44.135 27.4278 44.0315C27.4173 44.0245 27.4077 44.018 27.3994 44.0123C27.1989 43.8765 27.1837 43.7525 27.1675 43.6202C27.1527 43.5014 27.1374 43.3765 26.9854 43.2311C26.8728 43.0914 26.7959 42.9263 26.7627 42.7499C26.7291 42.5735 26.7396 42.3914 26.7937 42.2202C26.8457 42.039 26.823 42.0097 26.7841 41.9591C26.3959 41.4508 26.1221 41.0307 26.3767 40.288C26.4252 40.146 26.3719 40.0797 26.275 39.9592ZM32.7669 48.7785C32.7638 48.7436 32.7607 48.7069 32.7656 48.6742L32.7651 48.6733C32.9926 47.1764 33.2813 46.8367 33.2101 46.724C33.1634 46.6502 32.9625 46.6734 32.4896 46.5328C30.5228 45.9463 30.4189 45.8441 30.3063 45.8337C30.284 45.8315 30.2617 45.8328 30.2255 45.8345C30.0993 45.859 29.9696 45.8529 29.8464 45.8166C29.7233 45.7808 29.6106 45.7162 29.5176 45.628C29.3351 45.4974 29.1858 45.4843 29.0299 45.4708C28.8181 45.452 28.5945 45.4328 28.2631 45.1158C28.0269 44.8896 27.8675 44.8084 27.5697 44.656C27.2417 44.4883 26.747 44.2354 25.7981 43.6101C24.7907 42.946 24.7807 42.7185 24.775 42.5831C24.7728 42.5399 24.7715 42.5067 24.7396 42.4713C24.6986 42.484 24.661 42.5062 24.63 42.5359C24.5986 42.5656 24.575 42.6023 24.5602 42.6425C24.4728 42.8691 24.4043 43.1027 24.3554 43.3403C24.1794 44.2385 24.0292 44.5695 24.12 44.8097C24.2122 45.052 24.5497 45.2014 25.3545 45.7463C27.6168 47.1751 30.0879 48.2423 32.6791 48.9109C32.7804 48.9331 32.7743 48.8611 32.7669 48.7785ZM37.1077 47.3528C37.0484 47.2489 36.5043 47.4205 33.5232 46.7572L33.5227 46.755C33.4197 46.7328 33.3721 46.9821 33.2974 47.3768C33.2206 47.779 33.1158 48.3323 32.8935 48.9021C32.876 48.9467 32.8765 48.979 32.9319 48.9921C34.1092 49.2759 35.3039 49.4803 36.5082 49.6043C36.589 49.5916 36.5969 49.5523 36.6353 49.3637C36.6615 49.2331 36.7025 49.0305 36.792 48.7152C36.9056 48.3157 37.013 47.9148 37.0907 47.5057C37.1064 47.4244 37.123 47.3799 37.1077 47.3528ZM29.1006 45.2062C29.2735 45.2258 29.4377 45.2446 29.5941 45.3738L29.5927 45.3721C29.8176 45.559 30.0622 45.6682 30.6857 45.4481C30.7193 45.4367 30.7482 45.4149 30.7687 45.3861C30.7892 45.3573 30.8001 45.3228 30.8001 45.2874C30.8272 45.0171 30.8228 44.7446 30.787 44.4756C30.6831 44.0027 30.5084 43.549 30.2696 43.1285C30.0486 42.7464 29.736 42.425 29.36 42.1945C28.984 41.9635 28.5561 41.8307 28.1155 41.8071C27.8548 41.7796 27.1352 41.8421 27.0985 42.0421C27.0898 42.0888 27.0797 42.1364 27.0697 42.1844C27.0051 42.4866 26.9369 42.8084 27.2125 43.0853C27.2863 43.1543 27.3448 43.2377 27.385 43.3307C27.4247 43.4232 27.4448 43.5232 27.4443 43.6246C27.4526 43.7267 27.4837 43.7507 27.7387 43.9494C27.7946 43.9931 27.8609 44.0446 27.94 44.1075C28.0404 44.187 28.0456 44.2293 28.0531 44.2953C28.0622 44.3747 28.0749 44.4883 28.264 44.742C28.5653 45.145 28.8426 45.1765 29.1006 45.2062ZM16.6827 63.4737C16.4721 63.5139 15.4979 65.3824 15.6811 66.7994C15.9912 67.7858 16.6753 68.0173 17.2124 67.7251C17.1885 67.6802 17.1618 67.6863 17.1229 67.6941C17.0933 67.7007 17.0566 67.7086 17.0087 67.6963C16.2994 67.5199 15.9694 66.9557 15.921 66.2409C15.8608 65.3462 16.2206 64.5274 16.5631 63.7475C16.6034 63.6558 16.6435 63.5646 16.6827 63.4737ZM26.5959 59.9236C26.7413 59.8542 26.9042 59.776 27.0832 59.5542C27.1618 59.4564 27.0789 59.4643 26.8684 59.483C26.3697 59.528 25.1575 59.6367 23.7048 58.5582C22.514 57.6765 22.0271 57.0473 21.6546 56.5656C21.4852 56.3464 21.3393 56.1582 21.1616 55.9906C21.0896 55.9224 20.7263 56.1364 20.6616 56.5181C20.6171 56.7774 20.4988 56.8665 20.3512 56.9774C20.2079 57.0853 20.0372 57.2141 19.88 57.539C19.8748 57.5477 18.3932 60.2118 18.083 60.866C17.8751 61.3057 17.763 61.6332 17.6619 61.9292C17.5734 62.1882 17.4933 62.4227 17.3645 62.6864C17.359 62.6978 17.3435 62.7262 17.32 62.7694C17.0933 63.1851 16.1197 64.9706 16.1356 65.9863C16.1487 66.8134 16.5026 67.5252 17.3163 67.4597C18.2206 67.2754 19.4849 65.9099 19.9328 65.3671C20.1752 65.0733 20.3119 64.9933 20.6036 64.823C21.0913 64.5383 22.0109 64.0012 24.5776 61.7908L24.6528 61.7262C25.9361 60.6214 26.078 60.4996 26.1815 60.2961C26.2994 60.0651 26.4374 59.9992 26.5959 59.9236ZM32.3228 70.4596C32.8166 71.039 33.9009 72.1464 34.6602 72.101C34.8231 72.0346 34.9017 72.0124 34.9022 71.9888C34.9043 71.8862 33.4502 71.7569 31.0333 67.9692C30.6202 67.3208 30.5486 67.0876 30.4879 67.0902C30.463 67.0911 30.4399 67.133 30.3949 67.2025C30.2718 67.395 30.2809 67.4693 30.3355 67.5706C30.8765 68.6116 31.5442 69.5819 32.3228 70.4596ZM35.5091 68.3902C35.5126 68.3867 35.5157 68.3828 35.5192 68.3788H35.52C35.5358 68.3605 35.5759 68.3155 35.6366 68.2474C36.5104 67.2662 41.6792 61.4607 41.7347 60.1979C41.2251 60.4201 40.6657 60.5018 40.1138 60.4345C38.8928 60.3468 37.8492 59.9861 37.0326 59.7035C36.6864 59.5835 36.3811 59.4782 36.1204 59.4132C35.4104 59.2372 35.055 59.0791 34.8559 58.9905C34.6096 58.8817 34.6022 58.8782 34.4589 59.0765C31.6992 62.9043 31.6149 64.2602 31.5721 64.9436C31.5534 65.2471 31.5429 65.4178 31.3101 65.6134C30.9407 65.9326 30.6962 66.3719 30.6193 66.854C30.7198 67.0924 31.7922 68.7299 32.0036 68.9967C32.8241 70.0316 33.4118 70.76 34.4913 71.5111C34.6912 71.6665 34.941 71.7442 35.1943 71.7285C35.3506 71.677 35.6598 70.4556 35.3869 68.9304C35.3353 68.6404 35.2393 68.6007 35.1493 68.5636C35.1218 68.5522 35.0947 68.5408 35.0694 68.5225C34.9022 68.4002 34.2572 67.8479 34.4188 67.719C34.4856 67.6653 34.5834 67.7653 34.7157 67.9011C34.7694 67.9557 34.8284 68.0164 34.8939 68.0754C35.3921 68.5256 35.4004 68.516 35.5091 68.3902ZM42.2962 53.5802C42.6547 53.0321 42.7744 52.2182 42.1849 51.9173H42.1753C41.8753 51.7645 41.9648 51.4715 42.0696 51.1278C42.1892 50.7357 42.3294 50.2772 41.9373 49.8829C41.8373 49.782 41.8216 49.7344 41.791 49.72C41.7137 49.6846 41.5399 49.8615 39.7015 49.9575C34.8947 50.2086 29.6067 48.7047 25.7274 46.3083C25.1955 45.9799 24.8789 45.7581 24.6781 45.6179C24.334 45.3778 24.3301 45.3747 24.1685 45.4786C23.8336 45.7511 23.6078 46.1354 23.5336 46.5607C23.4668 46.9402 23.4903 47.1913 23.5074 47.3725C23.5288 47.6004 23.5401 47.7179 23.3476 47.8436C23.1026 48.01 22.8917 48.2214 22.7266 48.4672C22.4734 48.8318 22.5096 49.1632 22.5511 49.537C22.5624 49.6401 22.5742 49.7466 22.5803 49.858C22.5934 50.1017 22.5493 50.203 22.1742 50.4698C21.5843 50.8907 21.6708 51.4138 21.7454 51.8654C21.8057 52.23 21.8585 52.5479 21.5406 52.7278C21.4385 52.7828 21.3511 52.8618 21.2869 52.9583C21.2223 53.0553 21.1826 53.1662 21.1708 53.2815C21.0935 53.698 21.145 54.1286 21.3184 54.5151C21.3887 54.6548 21.4201 54.7089 21.4131 54.7578C21.4057 54.8063 21.3599 54.8495 21.2751 54.9679C20.9603 55.408 21.2926 55.7976 21.7328 56.3133C21.8201 56.4159 21.9118 56.5233 22.0035 56.6368C22.6105 57.3896 23.9423 58.5538 24.813 58.918C26.1086 59.4595 27.1601 59.252 27.2326 59.1512C27.2893 59.0699 27.3688 59.0403 27.4915 58.9944C27.6238 58.9451 27.8059 58.8769 28.064 58.7058C28.2893 58.5564 28.2469 58.4005 28.2059 58.2486C28.2002 58.2289 28.195 58.2088 28.1902 58.1892C28.1386 57.9783 28.226 57.9577 28.419 57.9123C28.4928 57.8949 28.5819 57.8739 28.6849 57.8372C29.2648 57.6311 29.1945 57.3246 29.1373 57.0757C29.0954 56.8953 29.0609 56.7447 29.2875 56.6849C29.3714 56.6626 29.4486 56.6443 29.5203 56.6277C29.8809 56.5421 30.0901 56.4927 30.2447 56.1635C30.3434 55.9543 30.3429 55.7609 30.3425 55.5862C30.3416 55.3098 30.3412 55.0819 30.7359 54.9181C30.942 54.8325 31.1027 54.7867 31.2377 54.7478C31.6481 54.6299 31.8228 54.5797 32.3193 53.7011C32.7904 52.8666 33.6411 52.7072 33.6454 52.9238C33.6472 53.0151 33.5839 53.0251 33.4974 53.0391C33.452 53.0457 33.4005 53.054 33.3489 53.0754C32.7909 53.305 32.6359 53.6133 32.4699 53.943C32.3691 54.1443 32.2638 54.3535 32.0612 54.557C32.0158 54.6028 31.9582 54.6832 31.9665 54.7343C32.0477 55.2085 32.4258 55.4137 32.7328 55.581C32.9826 55.7168 33.1852 55.8268 33.1411 56.0342C33.1315 56.0783 33.1271 56.1272 33.1201 56.2002C33.1101 56.3041 33.0952 56.4569 33.0551 56.7181C33.0393 56.8215 33.1057 57.015 33.3874 57.1586C33.8166 57.377 34.0393 57.3669 34.1087 57.4656C34.1672 57.549 34.1157 57.7102 33.9856 58.1542C33.9834 58.1621 33.9808 58.1691 33.9786 58.1765C33.9445 58.2835 33.9314 58.3241 34.4899 58.5433C35.8082 59.0595 38.3736 59.9621 39.7889 60.1354C41.1993 60.3079 41.7443 59.8922 42.1312 59.597L42.153 59.58C42.4045 59.3354 42.5508 59.0031 42.5604 58.6525C42.5949 58.5372 42.584 58.4128 42.5307 58.3049C42.4774 58.197 42.3853 58.1132 42.2726 58.0704C42.0281 57.9516 42.1656 57.7853 42.3578 57.553C42.501 57.38 42.6744 57.1704 42.7416 56.9167C42.8442 56.5303 42.6425 56.3731 42.4111 56.1932C42.3665 56.1582 42.3207 56.122 42.2752 56.084C42.1246 55.9556 42.2325 55.8294 42.3853 55.6517C42.5412 55.4696 42.7438 55.2325 42.7626 54.8832C42.7857 54.736 42.7538 54.5849 42.6735 54.46C42.5927 54.3343 42.4687 54.2426 42.3255 54.2024C41.9338 54.1068 42.0373 53.957 42.2132 53.7024C42.2394 53.6644 42.2678 53.6234 42.2962 53.5802ZM42.4137 49.0598C42.5525 48.465 42.6591 47.8633 42.732 47.2572L42.7263 47.2581C42.7333 47.1148 42.7259 46.9712 42.7036 46.8293C42.7027 46.817 42.6931 46.8052 42.6835 46.793C42.6787 46.7869 42.6735 46.7812 42.67 46.7747C42.6233 46.824 42.5993 46.8721 42.577 46.9175C42.5552 46.9616 42.5351 47.0031 42.4966 47.0389C42.2277 47.2908 42.0084 47.3127 41.4705 47.3651C41.4272 47.3694 41.3814 47.3734 41.3329 47.3786C40.0338 47.4402 38.7321 47.4297 37.4344 47.3476C37.3863 47.3441 37.3606 47.3415 37.3453 47.3528C37.3112 47.3782 37.3309 47.4755 37.2671 47.8004C36.9995 49.1733 36.7174 49.5126 36.7824 49.603C36.8139 49.6466 36.9274 49.6322 37.1632 49.6484C37.9256 49.7017 42.2477 49.8082 42.4137 49.0598ZM44.1975 43.6748C44.4027 43.6398 44.6027 43.5813 44.7939 43.5005L44.79 43.4997C45.0756 43.4267 44.6289 41.6002 43.2232 40.8666C43.2062 40.8583 43.1896 40.8443 43.1735 40.8312C43.108 40.7779 43.0464 40.7281 42.9826 40.9906C42.9748 41.0237 42.9927 41.0984 43.0176 41.2067C43.0918 41.5224 43.2333 42.1228 43.0006 42.7901C42.7848 43.4088 42.7966 43.4163 42.9455 43.4935C43.3232 43.7149 43.7721 43.78 44.1975 43.6748ZM51.1042 40.719C51.2636 40.6504 51.4657 40.5631 51.5884 40.3046L51.5788 40.3037C51.6094 40.2203 51.5636 40.167 51.4841 40.0757C51.3981 39.9762 51.2732 39.8325 51.1636 39.557C51.0649 39.3103 51.012 39.0474 51.0081 38.7819C50.926 38.7701 50.8531 38.7526 50.7863 38.7369C50.6094 38.6941 50.4784 38.6627 50.3531 38.7801C50.2806 38.8483 50.2138 38.8107 50.1243 38.7605C50.0929 38.743 50.0588 38.7238 50.0208 38.7068C49.7239 38.5788 49.6073 38.6395 49.5051 38.6924C49.4069 38.7435 49.3222 38.7876 49.106 38.6557C48.7672 38.4487 48.5047 38.5125 48.2881 38.5649C48.106 38.6094 47.9558 38.6457 47.82 38.5068C47.765 38.4644 47.7056 38.4286 47.6419 38.4007C47.4895 38.2924 47.3074 38.2347 47.1205 38.2361C46.9336 38.2378 46.7519 38.2976 46.6013 38.4085C46.5598 38.4426 46.5083 38.4623 46.4546 38.4653C46.4009 38.4679 46.3476 38.454 46.3022 38.4243C45.6542 38.0684 45.2192 38.364 44.976 38.5291C44.88 38.5946 44.814 38.6391 44.7769 38.6155C44.7053 38.5684 44.7883 38.3976 44.8869 38.3251C44.9376 38.288 44.9804 38.2579 45.0162 38.233C45.1699 38.1252 45.197 38.1059 45.1799 38.0038C45.1664 37.9278 45.1568 37.854 45.1476 37.7828C45.1009 37.4252 45.0616 37.126 44.549 36.8396C44.3953 36.7536 44.3704 36.7156 44.4014 36.5365C44.4153 36.4531 44.4315 36.3763 44.4463 36.3047C44.4996 36.0497 44.5394 35.8584 44.4411 35.6575C44.2843 35.4095 44.1014 35.1789 43.8953 34.9702C43.8311 34.8811 43.8376 34.734 43.8451 34.5737C43.8525 34.4174 43.8603 34.2484 43.8036 34.1082C43.6241 33.6751 43.4342 33.5331 43.2957 33.4297C43.1809 33.3441 43.1014 33.2842 43.0901 33.1087C43.0848 33.0319 43.0848 32.9615 43.0848 32.8952C43.0848 32.6506 43.0844 32.4537 42.839 32.152C42.6517 31.921 42.4613 31.8594 42.3093 31.8105C42.1521 31.7598 42.0364 31.7223 42.0098 31.5223C41.9626 31.1808 41.7901 30.869 41.5259 30.6481C41.1578 30.3367 40.9491 30.328 40.8081 30.3219C40.6897 30.3166 40.619 30.314 40.543 30.1367C40.4447 29.9459 40.3037 29.7804 40.1317 29.6529C39.9133 29.5324 39.6627 29.483 39.4151 29.5123C39.3072 29.5149 39.3042 29.5311 39.2876 29.6354C39.1391 30.566 38.4413 30.9651 37.5182 31.0856C35.7004 31.324 33.3568 30.9843 32.0237 29.749C31.5128 29.2756 31.4141 28.866 31.3543 28.6176C31.3198 28.4757 31.2984 28.3861 31.2198 28.3678C30.9844 28.311 30.7399 28.3014 30.501 28.3403C30.2015 28.3923 30.1098 28.5158 30.0325 28.6202C29.9709 28.7036 29.9181 28.7748 29.7766 28.7896C29.5526 28.7979 29.3299 28.8315 29.1133 28.89C28.7954 28.973 28.691 29.1372 28.6015 29.2787C28.5308 29.39 28.4692 29.4874 28.3177 29.5184C28.074 29.5324 27.8374 29.6049 27.6273 29.7293C27.4409 29.8455 27.3614 29.966 27.288 30.0778C27.2103 30.1961 27.1396 30.3044 26.9549 30.3861C26.8243 30.4354 26.7094 30.5188 26.6225 30.6284C26.5357 30.7376 26.4793 30.8682 26.4605 31.0066C26.4212 31.2332 26.4383 31.4066 26.4527 31.5485C26.4745 31.7664 26.4889 31.9114 26.2793 32.0629C25.7317 32.4585 25.8448 32.9222 25.937 33.3C25.992 33.5253 26.0396 33.7205 25.9344 33.8528C25.7885 34.0462 25.6924 34.2733 25.6553 34.513C25.6182 34.7528 25.6414 34.9977 25.7221 35.2265C25.7392 35.275 25.7619 35.3235 25.785 35.3724C25.8553 35.5209 25.9269 35.6728 25.8431 35.8436C25.5632 36.413 25.8025 36.9514 26.0352 37.4627C26.0427 37.4798 26.0505 37.495 26.0584 37.5103C26.1082 37.609 26.1453 37.6828 26.0754 38.0099C26.0047 38.3435 26.0125 38.6884 26.0985 39.0181C26.185 39.3483 26.347 39.6531 26.5723 39.9089C26.6963 40.05 26.6592 40.2172 26.6138 40.4216C26.5426 40.7404 26.4514 41.1491 26.9238 41.691C26.9824 41.7582 27.0112 41.746 27.1116 41.7032C27.1972 41.6674 27.3347 41.6089 27.5863 41.5587C28.1164 41.5246 28.1186 41.5281 28.1234 41.5368C28.1264 41.5421 28.1304 41.5491 28.24 41.5513C28.7299 41.601 29.1997 41.7731 29.6063 42.0512C30.677 42.7905 31.1674 44.6424 30.9608 45.3306C30.9573 45.3424 30.9565 45.3551 30.9582 45.3673C30.9595 45.3795 30.9634 45.3913 30.9696 45.4022C30.9757 45.4131 30.984 45.4223 30.9936 45.4302C31.0032 45.4376 31.0145 45.4433 31.0263 45.4463C31.2425 45.5599 31.4853 45.6118 31.7289 45.5961C31.9721 45.5804 32.2066 45.4979 32.4057 45.3572C32.7014 45.1712 32.9145 45.197 33.1219 45.2223C33.3441 45.2494 33.5594 45.2752 33.862 45.0389C34.1917 44.7813 34.2738 44.7289 34.4205 44.7044C34.6995 44.6992 34.9716 44.6149 35.2048 44.4612C35.3113 44.3599 35.3873 44.273 35.451 44.1996C35.6017 44.0267 35.689 43.9263 35.9676 43.88C36.6121 43.7743 36.7907 43.4909 36.9514 43.2368C37.0903 43.0167 37.2152 42.8189 37.6165 42.777C38.1182 42.7246 38.2291 42.5106 38.3339 42.308C38.416 42.1504 38.4942 41.9993 38.7505 41.9368C39.1099 41.8473 39.4269 41.6347 39.6461 41.3355C39.6496 41.2989 39.6282 41.2692 39.5941 41.2216C39.5098 41.1041 39.3492 40.8797 39.2919 40.1853C39.2841 40.0867 39.2561 40.0862 39.1819 40.0845C39.1116 40.0832 38.9994 40.081 38.8217 39.9919C38.4605 39.8107 38.2964 39.8862 38.1453 39.9557C38.0213 40.0124 37.906 40.0657 37.6977 39.9675C37.6379 39.9395 37.582 39.9063 37.5265 39.8731C37.3435 39.7648 37.1728 39.6635 36.9357 39.7906C36.8165 39.8587 36.6789 39.888 36.5427 39.8744C36.406 39.8605 36.2772 39.8041 36.1746 39.7137C36.0698 39.6544 35.9558 39.6133 35.8371 39.5919C35.7541 39.5662 35.7183 39.5841 35.6375 39.6251C35.5855 39.6509 35.5157 39.6862 35.4034 39.7251C35.1502 39.8129 35.0506 39.7334 34.9624 39.6631C34.9401 39.6448 34.9179 39.6273 34.8943 39.6133C34.5816 39.429 34.4319 39.5002 34.2865 39.5688C34.2515 39.5854 34.217 39.6015 34.1803 39.6142C34.0393 39.6631 33.9742 39.6461 33.8651 39.6181C33.8044 39.6024 33.7301 39.5832 33.6214 39.5696C33.3363 39.5347 33.2559 39.5683 33.1389 39.6168C33.0834 39.6399 33.0193 39.6666 32.9206 39.6906C32.9031 39.6967 32.8839 39.6958 32.8673 39.6889C32.8503 39.6814 32.8367 39.6683 32.8289 39.6517C32.821 39.6347 32.8197 39.6159 32.8249 39.5985C32.8302 39.5806 32.842 39.5657 32.8577 39.5561C32.9407 39.4793 33.0389 39.4207 33.1459 39.3845C33.2529 39.3483 33.3668 39.3347 33.4791 39.3452C33.6214 39.3443 33.6389 39.2487 33.6708 39.0762C33.6808 39.0229 33.6917 38.9622 33.7083 38.895C33.7402 38.7644 33.652 38.6771 33.5524 38.5919C33.4284 38.4845 33.4743 38.3841 33.5603 38.1963C33.5808 38.1509 33.6044 38.1003 33.628 38.0431C33.7996 37.6269 33.4878 37.3653 33.3206 37.2247C33.2957 37.2038 33.2738 37.1854 33.2577 37.1702C33.1511 37.0684 33.1944 36.9282 33.2502 36.7453C33.3411 36.4492 33.4664 36.0414 33.045 35.5051C32.8219 35.2217 32.8752 35.0252 32.9402 34.7864C32.9782 34.6453 33.0206 34.4899 33.0123 34.2929C32.9865 33.689 32.6463 33.4528 32.3896 33.2742C32.2298 33.1633 32.1023 33.0746 32.1014 32.934C32.1005 32.8445 32.1018 32.7598 32.1027 32.679C32.1079 32.324 32.1119 32.0432 31.956 31.7633C31.6346 31.1869 31.3957 31.1219 31.2748 31.0891C31.2206 31.0743 31.1901 31.066 31.1874 31.0201C31.1822 30.9319 31.3818 30.897 31.4669 30.9472C31.7407 31.09 31.963 31.3144 32.1027 31.5891C32.328 31.9755 32.3285 32.1245 32.3315 32.6358C32.3315 32.6991 32.3319 32.7677 32.3328 32.8428C32.335 32.9733 32.3883 33.0013 32.487 33.0537C32.6136 33.1214 32.8153 33.2288 33.0791 33.6441C33.3411 34.0571 33.2607 34.4205 33.193 34.7261C33.1398 34.9667 33.0944 35.1711 33.2306 35.3361C33.4188 35.5641 33.5494 35.8335 33.6122 36.1226C33.6223 36.3885 33.5738 36.6536 33.4699 36.899C33.4415 36.9872 33.4904 37.0247 33.5529 37.0728C33.5559 37.0754 33.5594 37.0776 33.5625 37.0802C33.7494 37.2212 33.8773 37.4265 33.9214 37.6566C33.9655 37.8863 33.9232 38.1247 33.8018 38.3251C33.7655 38.3981 33.793 38.4374 33.8315 38.4924C33.8865 38.5706 33.9633 38.6802 33.9149 38.9631C33.8983 39.0596 33.8769 39.1321 33.8603 39.1876C33.8284 39.2967 33.8149 39.3413 33.8943 39.3745C34.0066 39.4216 34.1074 39.3858 34.2236 39.3448C34.3764 39.2906 34.5554 39.2273 34.8201 39.3338C34.9257 39.3762 34.9952 39.4199 35.0497 39.4544C35.1375 39.5098 35.1882 39.5413 35.2912 39.5081C35.451 39.4465 35.6165 39.4015 35.7855 39.3745C35.9798 39.3976 36.1672 39.4587 36.3379 39.5539C36.5248 39.7059 36.6759 39.6513 36.8418 39.591C37.0056 39.5317 37.1833 39.467 37.4243 39.5889C37.8112 39.7854 37.9221 39.8369 38.0658 39.7653C38.1981 39.6989 38.3457 39.6675 38.4937 39.6736C38.6418 39.6801 38.7859 39.7242 38.9125 39.802C39.1142 39.926 39.5304 39.8941 39.5972 39.664C39.5994 39.6561 39.957 38.54 39.9889 38.4815C40.6487 37.2819 41.9927 37.9649 41.6032 38.2623C41.57 38.2871 41.5338 38.3007 41.5037 38.312C41.4473 38.3326 41.4107 38.3465 41.4469 38.4147C41.5412 38.5928 41.5259 38.7059 41.3163 38.7723C41.2465 38.7946 41.1971 38.7954 41.1491 38.7963C41.0631 38.7981 40.9823 38.7998 40.798 38.9269C40.6958 38.9972 40.6989 39.0339 40.7094 39.1635C40.7159 39.2421 40.7251 39.3544 40.7159 39.5277C40.7177 39.5662 40.7238 39.6046 40.7347 39.6417C40.8757 39.6124 40.8901 39.5985 40.9159 39.5736C40.9474 39.5426 40.9963 39.4945 41.3242 39.381C41.5565 39.3007 41.836 39.5168 41.6299 39.7072C41.4993 39.8286 41.3897 39.9146 41.2958 39.988C41.0984 40.1421 40.9722 40.2408 40.8714 40.4958C40.8212 40.6439 40.7369 40.7775 40.6251 40.8862C40.5129 40.9949 40.3766 41.0757 40.2277 41.1216C40.0937 41.1347 39.9675 41.281 39.8138 41.46C39.6042 41.7036 39.3435 42.0071 38.9391 42.1159C38.8431 42.1311 38.7535 42.1726 38.6797 42.2359C38.606 42.2988 38.5509 42.3814 38.5212 42.4735C38.43 42.6386 38.2959 42.7757 38.1326 42.87C37.9697 42.9639 37.7837 43.0119 37.5955 43.0084C37.4946 43.0254 37.3999 43.0691 37.3208 43.1346C37.2422 43.2005 37.1829 43.2861 37.1479 43.3822C36.8279 43.935 36.4999 44.0093 36.2034 44.0765C35.9785 44.1276 35.7711 44.1748 35.5991 44.4232C35.3296 44.8132 35.0109 44.8638 34.5428 44.9298C34.4218 44.9468 34.3057 45.0341 34.1716 45.1345C33.9135 45.328 33.5887 45.5716 33.0315 45.4655C32.8236 45.4258 32.7118 45.4883 32.4114 45.6555C32.3678 45.6795 32.3202 45.7057 32.2678 45.7345C32.0809 45.8123 31.8804 45.8516 31.6778 45.8503C31.4756 45.8489 31.2757 45.8075 31.0896 45.7275C31.0372 45.6978 30.9792 45.6791 30.9189 45.6734C30.8591 45.6673 30.7984 45.6743 30.7412 45.6935C30.2892 45.7852 35.2642 47.0965 38.5252 47.1367C38.5745 47.1375 38.6479 47.1393 38.74 47.141C39.5981 47.1589 42.0875 47.2109 42.3185 46.8563C42.4045 46.6817 42.4482 46.4891 42.446 46.2948C42.4434 46.1005 42.3958 45.9092 42.3062 45.7363C42.2119 45.5795 42.3036 45.3848 42.4215 45.135C42.5936 44.7712 42.8202 44.29 42.6045 43.6403C42.6023 43.6337 42.6001 43.6276 42.5979 43.6215C42.5346 43.4329 42.5154 43.3748 42.6752 42.9364C42.9023 42.3818 42.918 41.7626 42.7189 41.1971C42.6761 41.0818 42.715 40.953 42.7656 40.7845C42.8525 40.4949 42.9748 40.088 42.7778 39.4325C42.7381 39.3011 42.7067 39.2068 42.6831 39.1356C42.6211 38.9504 42.6119 38.9247 42.6547 38.805C42.8289 38.2164 42.7643 37.5832 42.4748 37.0426C42.4124 36.9466 42.3805 36.8344 42.3827 36.7204C42.4473 36.2387 42.4076 35.7492 42.2665 35.2842C42.1892 35.1392 42.4403 35.0375 42.5455 35.53C42.6547 36.0379 42.6355 36.3082 42.622 36.5012C42.6089 36.6824 42.601 36.7955 42.7097 36.9728C43.1045 37.6177 42.9722 38.4492 42.915 38.8085C42.8997 38.9024 42.8901 38.9644 42.8962 38.9823C43.1067 39.4478 43.1791 39.964 43.1053 40.4701C43.1001 40.505 43.0944 40.526 43.0992 40.5443C43.1119 40.5954 43.2067 40.6259 43.6114 40.881C44.4638 41.4181 45.1162 42.7661 45.0345 43.3599C45.0066 43.5634 46.2 43.5857 46.5891 43.0193C46.6742 42.8953 46.7585 42.9075 46.8956 42.9272C47.0353 42.9468 47.2297 42.9748 47.5344 42.8739C47.8873 42.7578 48.048 42.6307 48.1672 42.5368C48.2646 42.46 48.3344 42.4045 48.4584 42.3949C48.6082 42.3966 48.758 42.3805 48.9038 42.3464C49.2798 42.1988 49.4252 42.0268 49.5396 41.8914C49.6357 41.7779 49.7099 41.6897 49.8798 41.6639C50.2527 41.6067 50.8186 41.3303 50.8684 40.9207C50.881 40.8155 50.9797 40.7731 51.1042 40.719ZM40.8334 38.257C40.8771 38.2452 40.922 38.2334 40.967 38.2203C40.9696 38.2299 40.9683 38.2382 40.9714 38.2426C40.9814 38.2561 41.0364 38.2365 41.3919 38.1313C41.5914 38.0706 40.512 37.6636 40.1478 38.5775C40.057 38.805 39.9849 39.0229 39.9212 39.2164C39.8098 39.5526 39.7238 39.8142 39.6063 39.9199C39.3657 40.1373 39.6098 40.8517 39.7343 41.0744C39.7788 41.1556 39.84 41.1622 39.9216 41.1067C40.036 41.0294 40.126 40.9984 40.2081 40.9705C40.3142 40.9342 40.4059 40.9028 40.5199 40.7788C40.6539 40.6334 40.7129 40.5067 40.7692 40.3862C40.8443 40.2242 40.9142 40.074 41.1526 39.9059C41.2753 39.8299 41.3858 39.7356 41.4801 39.6264C41.4862 39.6203 41.467 39.5758 41.4591 39.5771C41.3211 39.5744 41.0731 39.7386 40.8893 39.8605C40.8124 39.9107 40.7469 39.9544 40.7054 39.9749C40.6212 40.0172 40.5452 40.1251 40.4762 40.2229C40.3919 40.3434 40.319 40.4469 40.2565 40.3901C40.2164 40.3535 40.2448 40.3142 40.271 40.2784L40.2784 40.2683C40.4779 39.9356 40.5696 39.5491 40.5417 39.1622C40.5277 39.1033 40.5286 39.0417 40.5443 38.9828C40.5596 38.9238 40.5897 38.8697 40.6312 38.8256C40.7426 38.7147 40.8862 38.6409 41.0412 38.6151C41.0482 38.6147 41.2766 38.5863 41.2722 38.5596C41.2495 38.4134 40.6644 38.3439 40.4548 38.6168C40.426 38.6548 40.4142 38.6714 40.398 38.6793C40.3788 38.6884 40.3526 38.6845 40.2836 38.6889C40.3133 38.3941 40.5596 38.3291 40.8334 38.257Z" fill="white"/>
<path d="M55.7478 36.5788C55.4251 36.2631 55.0845 35.9675 54.7265 35.6924C53.7134 35.0025 53.8549 34.988 52.4471 36.6242C50.9816 38.3268 50.8331 38.36 50.8952 38.6023C50.9628 38.86 52.23 40.1407 52.4951 40.2582C52.6632 40.3324 52.7584 40.3163 52.9907 40.1534C53.1693 39.9971 53.34 39.8316 53.5016 39.6578C53.9824 39.1456 55.4107 37.7971 55.6845 37.4133C55.8967 37.1133 55.9841 36.8172 55.7478 36.5788ZM54.0566 38.6932C53.7894 38.9809 53.4309 39.3455 52.961 39.7634C52.7833 39.9215 52.6191 40.0669 52.4217 39.9246C52.0017 39.577 51.6148 39.1914 51.2659 38.7726C51.1034 38.5644 51.134 38.5006 51.1925 38.4111C51.3047 38.2364 51.6453 37.8657 52.6715 36.6976C53.8173 35.3937 53.844 35.3116 54.3291 35.6872C54.3413 35.7055 54.3479 35.7269 54.3492 35.7483C54.3501 35.7701 54.3453 35.792 54.3357 35.8116C54.1955 36.0474 54.4701 36.1548 54.8723 36.5007C54.9112 36.5347 54.9601 36.5557 55.0116 36.5609C55.0636 36.5657 55.1151 36.5548 55.1601 36.529C55.3085 36.4592 55.3072 36.4635 55.4269 36.5771C55.812 36.9421 55.7836 36.8308 54.0566 38.6919V38.6932Z" fill="white"/>
<path d="M54.0234 32.8326C54.0784 32.8353 54.0727 32.7903 54.0797 32.7466C54.4876 30.1301 54.7417 29.6672 54.5758 29.6489C54.3443 29.6231 53.8426 32.8239 54.0234 32.8326Z" fill="white"/>
<path d="M56.1565 39.6049C56.0993 39.6795 56.2718 39.7398 57.0835 40.8922C58.0743 42.2978 58.0027 42.2864 58.0892 42.1231C57.7739 41.4572 56.2731 39.4542 56.1565 39.6049Z" fill="white"/>
<path d="M60.3155 37.2687C59.6741 37.1944 56.9012 36.9473 57.4453 37.2538C57.5261 37.2298 58.0086 37.215 60.202 37.4141C60.402 37.4329 60.5448 37.4743 60.574 37.4036C60.6129 37.315 60.4125 37.2796 60.3155 37.2687Z" fill="white"/>
<path d="M50.8283 36.2303C50.8143 36.2124 50.8073 36.194 50.7938 36.1884C50.7077 36.1429 50.6169 36.1071 50.5235 36.0809C50.3038 36.039 47.6603 35.5683 47.6288 35.7862C47.6166 35.8735 47.8865 35.8486 48.1406 35.8823C50.9313 36.2512 50.6964 36.3539 50.8283 36.2303Z" fill="white"/>
<path d="M50.8088 32.4913C51.8367 34.0699 51.7245 34.1066 51.8398 33.9048C51.4428 33.0996 50.4237 31.5341 50.0787 31.287C50.0682 31.2796 50.0136 31.3058 50.0263 31.3298C50.0783 31.4455 49.9045 31.1027 50.8088 32.4913Z" fill="white"/>
<path d="M57.6248 33.1086C58.2152 32.5026 58.5366 32.2388 58.5934 32.1266C58.8873 31.5467 56.2563 34.1615 56.3537 34.4313C56.6074 34.254 56.2673 34.5029 57.6248 33.1086Z" fill="white"/>
<path d="M54.5182 36.6107C54.3496 36.6028 54.0151 36.6151 53.84 36.6221C53.7099 36.6439 53.6968 36.6705 53.7544 36.7779C53.8597 36.9758 53.9038 36.9548 53.7872 37.0203C52.344 37.8281 52.3575 37.7836 52.6366 37.9002C53.0937 38.091 52.961 37.9478 52.0086 38.6617C51.8409 38.7875 52.0069 38.9587 52.1086 38.9892C52.1671 39.0071 52.2484 38.932 52.275 38.9106C53.7016 37.8425 53.7343 37.9434 53.2457 37.7727C53.2029 37.7578 53.1902 37.7203 53.2745 37.6618C53.4867 37.4923 53.7125 37.3408 53.9496 37.2089C54.1566 37.1085 54.2033 37.6666 54.3679 37.2705C54.6308 36.6343 54.6745 36.6181 54.5182 36.6107Z" fill="white"/>
<path d="M54.7109 4.31117C59.3824 3.57447 64.8661 6.84567 65.8804 12.6456C66.1136 13.9757 66.0774 15.339 65.7739 16.6546C65.4708 17.9703 64.9067 19.2118 64.115 20.3056C63.3233 21.3995 62.3198 22.323 61.1649 23.0225C60.0094 23.7216 58.7256 24.1814 57.3894 24.3758C49.1063 25.6128 43.2471 16.9066 46.9081 9.77889C48.4168 6.84083 50.9237 4.90853 54.7109 4.31117ZM63.2796 20.9104C64.5115 19.5345 65.3294 17.8384 65.6398 16.018C65.9499 14.1971 65.7403 12.326 65.0337 10.6195C63.0115 5.43668 56.4694 2.68049 50.9237 5.85964C46.9387 8.1441 45.3186 12.9438 46.2815 16.5525C48.5775 25.1613 58.5606 26.3831 63.2796 20.9104Z" fill="white"/>
<path d="M56.7874 17.2852C57.99 16.8961 58.8612 18.5821 58.0686 20.1349C57.3974 21.4501 56.0211 21.2833 55.6752 20.2362C55.2368 18.9105 55.9372 17.5603 56.7874 17.2852ZM57.5931 17.631C57.459 17.5293 57.2948 17.4738 57.1263 17.4738C56.9577 17.4743 56.794 17.5293 56.6595 17.6315C57.3057 17.7302 57.49 18.3638 57.5167 19.0227C57.5267 19.6 57.4062 20.1716 57.1643 20.6956C57.766 20.7292 58.7376 18.5127 57.5926 17.6315L57.5931 17.631Z" fill="white"/>
<path d="M51.7027 16.6477C51.7939 17.0717 51.7529 17.5136 51.5861 17.9136C51.4184 18.3136 51.1328 18.6533 50.7673 18.886C50.0167 19.2677 49.2329 18.7546 49.032 17.8642C48.4661 15.3608 51.3197 14.2377 51.7027 16.6477ZM50.0211 15.6434C48.6967 16.4088 49.0626 18.9808 50.4276 18.7524C50.4477 18.7454 50.4669 18.735 50.4831 18.721C50.4717 18.7026 50.4582 18.6861 50.4424 18.6716C49.6263 18.1048 49.756 16.1534 50.6582 15.6089C50.6704 15.5997 50.6817 15.5892 50.6918 15.5779C50.5817 15.5399 50.4651 15.5259 50.3494 15.5372C50.2337 15.5486 50.1215 15.5844 50.0211 15.6425V15.6434Z" fill="white"/>
<path d="M52.4482 12.1216C51.1425 12.3937 50.4002 11.4326 51.6176 10.3042C53.1246 8.90858 55.3101 9.03461 54.9913 10.2654C54.7551 11.1771 53.3608 11.9967 52.4482 12.1216ZM51.2285 11.4754C51.5783 12.1282 51.0796 11.3679 52.4468 10.6007C54.2071 9.61249 54.6573 10.4693 54.718 10.3357C54.9909 9.74397 54.4363 9.25111 53.0219 9.71952C52.2674 9.96842 51.1775 10.7736 51.2285 11.4745V11.4754Z" fill="white"/>
<path d="M59.8994 12.1347C60.1527 13.5382 59.2204 14.1228 58.5563 12.9914C57.9716 11.9954 58.1043 10.3653 58.9816 10.6548C59.5038 10.826 59.8025 11.5893 59.8994 12.1347ZM58.6445 10.9334C58.8663 11.1072 59.0388 11.3356 59.1453 11.5959C59.3894 12.122 59.4571 12.7133 59.3379 13.281C59.3095 13.405 59.5025 13.2753 59.5239 13.2373C60.03 12.3382 59.2488 10.5631 58.6445 10.9334Z" fill="white"/>
<path d="M49.004 9.99203C49.1856 11.5453 47.7267 12.9972 47.3158 12.0217C47.0001 11.2732 47.735 9.58331 48.6036 9.55344C48.797 9.54689 49.0066 9.87588 49.004 9.99203ZM47.6564 12.0658C47.6848 12.0837 47.7193 12.0902 47.7521 12.0841C47.818 12.0553 47.7224 12.0269 47.7342 11.9169C47.7499 11.43 47.8931 10.9558 48.1503 10.5418C48.2909 10.2859 48.4822 10.0615 48.7119 9.88155C48.6953 9.85448 48.6734 9.8309 48.6477 9.81256C48.6215 9.79422 48.5922 9.78156 48.5616 9.77457C48.5306 9.76802 48.4983 9.76715 48.4669 9.77326C48.4359 9.77894 48.4062 9.79116 48.38 9.80863C48.1368 9.99116 47.9346 10.2217 47.7844 10.4859C47.6346 10.7501 47.5407 11.0422 47.5084 11.3444C47.4765 11.5601 47.456 11.9745 47.6564 12.0658Z" fill="white"/>
<path d="M63.6207 16.0101C63.7298 17.3079 62.4644 18.1598 62.008 17.3747C61.926 17.1887 61.8832 16.9878 61.8818 16.7848C61.881 16.5817 61.922 16.3804 62.0019 16.1935C62.0818 16.0071 62.1997 15.8385 62.3473 15.6992C62.4954 15.5599 62.6705 15.4525 62.8617 15.3835C63.1084 15.2936 63.5311 15.4866 63.6207 16.0101ZM62.7141 17.1887C62.646 17.2743 62.5858 17.3197 62.5224 17.3996C63.1665 17.5048 63.8281 15.7245 62.9879 15.6368C63.0574 15.8996 63.0687 16.1743 63.0211 16.442C62.9735 16.7097 62.8692 16.9642 62.7141 17.1874V17.1887Z" fill="white"/>
<path d="M63.2095 12.6574C63.0824 12.3614 63.0383 12.0369 63.0815 11.7177C63.1248 11.3985 63.2545 11.0972 63.4558 10.8461C63.7789 10.4942 64.2867 10.7304 64.4854 11.2448C65.1068 12.8487 63.6968 13.9286 63.2095 12.6574ZM64.0715 11.0409C64.0208 10.9811 63.9501 10.9426 63.8723 10.933C63.7946 10.9234 63.7165 10.9435 63.6531 10.9894C63.5859 11.0413 63.5881 11.0457 63.6466 11.1191C63.8645 11.4417 63.9627 11.8304 63.9256 12.2177C63.8571 12.8876 63.6029 12.9421 63.8186 12.9587C64.4483 13.0089 64.5453 11.4701 64.0715 11.0409Z" fill="white"/>
<path d="M59.5014 6.5273C60.1918 6.96925 60.1437 7.4819 59.6914 7.58102C58.7905 7.77822 57.2657 6.72594 57.8582 6.26569C58.2517 5.9602 59.0796 6.25744 59.5014 6.5273ZM58.1521 6.38901C58.0408 6.43887 57.9587 6.45329 57.9766 6.56014C57.9997 6.69773 58.0517 6.53298 58.4805 6.68813C59.5543 7.0775 59.5088 7.45374 59.7075 7.31549C60.0844 7.05152 58.8691 6.27936 58.1517 6.3884L58.1521 6.38901Z" fill="white"/>
<path d="M52.2853 21.1017C53.5695 21.2855 53.9219 22.5532 53.2564 22.5117C52.9774 22.4789 52.7128 22.3715 52.4905 22.1999C52.2678 22.0283 52.0967 21.7995 51.9945 21.5384C51.9796 21.4903 51.9753 21.4392 51.9823 21.3899C51.9897 21.3401 52.008 21.2925 52.0355 21.2506C52.0635 21.2087 52.1002 21.1737 52.1438 21.148C52.187 21.1222 52.2351 21.1061 52.2853 21.1017ZM52.2464 21.3707C52.236 21.3781 52.2281 21.3881 52.2233 21.3999C52.2185 21.4113 52.2163 21.4244 52.2181 21.437C52.2198 21.4497 52.225 21.4615 52.2329 21.4715C52.2412 21.4811 52.2517 21.489 52.2635 21.4934C52.6207 21.6449 52.9263 21.8977 53.1416 22.2204C53.1499 22.2335 53.1599 22.2453 53.1722 22.254C53.1844 22.2632 53.1984 22.2698 53.2132 22.2737C53.2276 22.2776 53.2433 22.2781 53.2586 22.2759C53.2735 22.2737 53.2879 22.2685 53.301 22.2606C53.3141 22.2532 53.3259 22.2427 53.3346 22.2305C53.3438 22.2182 53.3503 22.2043 53.3543 22.1894C53.3577 22.1746 53.3586 22.1593 53.3564 22.1444C53.3543 22.1292 53.349 22.1148 53.3412 22.1017C53.053 21.5021 52.3962 21.2606 52.2473 21.3702L52.2464 21.3707Z" fill="white"/>
<path d="M59.8703 20.9956C60.0043 20.8292 60.1808 20.7012 60.3808 20.6253C60.5803 20.5497 60.7969 20.5279 61.0078 20.5633C61.4314 20.6069 61.5536 20.9689 61.3943 21.1811C60.8759 21.8711 59.4555 21.6392 59.8703 20.9956ZM60.6864 20.7934C59.9554 20.9218 59.9882 21.3418 60.1144 21.2353C60.2581 21.1392 60.4201 21.0742 60.5904 21.0449C60.7607 21.0152 60.9353 21.0218 61.1026 21.0641C61.282 21.1113 61.3711 20.7362 60.6864 20.7934Z" fill="white"/>
<path d="M53.3049 6.22913C53.1909 6.01761 53.3983 5.77142 53.6031 5.66203C54.835 4.99372 55.5908 5.89264 54.3193 6.39253C53.987 6.52183 53.4752 6.54419 53.3049 6.22913ZM54.7083 5.75653C54.0656 5.4627 53.4311 6.02888 53.5193 6.10831C53.607 6.18778 53.7328 6.28446 53.79 6.17049C53.8612 6.08036 53.9546 6.01049 54.0616 5.96783C54.1682 5.92517 54.2843 5.91124 54.3979 5.92744C54.4433 5.93552 54.4856 5.95526 54.531 5.96469C54.6088 5.98128 54.7345 5.85111 54.7083 5.75653Z" fill="white"/>
<path d="M55.5976 14.8918C55.5142 14.897 55.4317 14.8787 55.3592 14.8385C55.2859 14.7988 55.2265 14.7385 55.1863 14.6656C55.1466 14.5927 55.1287 14.5097 55.1343 14.4267C55.14 14.3438 55.1693 14.2643 55.2186 14.1975C55.295 14.0543 55.4081 13.9337 55.5461 13.8482C55.7077 13.6259 56.2208 13.5316 56.4037 13.8407C56.6312 14.2254 56.1666 14.7743 55.5976 14.8918ZM56.1007 14.1041C56.2487 14.1438 56.2557 13.9586 56.1238 13.9137C55.6251 13.7442 55.2177 14.511 55.4378 14.6101C55.5016 14.639 55.4854 14.2473 56.1007 14.1041Z" fill="white"/>
<path d="M24.0678 17.7437C24.1595 16.5249 24.2044 16.9009 23.5438 17.2646C23.4612 17.3105 23.3888 17.2201 23.4656 17.1511C24.1577 16.5253 24.1935 16.7577 23.7101 16.3529C23.587 16.2494 23.3364 16.0503 23.4687 15.9564C23.5136 15.9241 23.546 15.9581 23.5748 15.9826C24.2507 16.5371 24.125 16.5686 24.1717 15.9869C24.2162 15.4402 24.2106 15.0341 24.3485 15.1071C24.4673 15.1708 24.2922 16.2219 24.3472 16.3882C24.3839 16.5009 25.2018 15.707 25.3638 15.9594C25.3703 15.9695 25.342 16.0053 25.3254 16.0258C25.2306 16.1437 25.5616 15.8097 24.5167 16.5581C24.2918 16.7197 24.49 16.6555 25.0005 17.2681C25.0118 17.2825 25.0175 17.3009 25.0162 17.3196C25.0153 17.338 25.007 17.3555 24.9939 17.3686C24.9808 17.3817 24.9634 17.3895 24.9446 17.3904C24.9263 17.3917 24.9079 17.386 24.8931 17.3742C24.7437 17.2725 24.3883 16.8686 24.332 16.9083C24.2472 16.9694 24.3547 18.0716 24.0678 17.7437Z" fill="white"/>
<path d="M12.604 38.5405C12.596 38.5903 12.4132 39.7365 12.4283 39.7802C12.7847 39.5867 13.4238 39.2252 13.4744 39.4108C13.4789 39.4374 13.4582 39.4929 13.3691 39.5212C13.0735 39.6361 12.7915 39.7832 12.5285 39.9601C12.4535 40.0042 12.4558 40.0321 12.5184 40.1033C12.9612 40.6229 12.9916 40.6439 12.9938 40.7321C13.0012 41.0387 12.5457 40.3723 12.3631 40.2387C12.2582 40.457 12.2458 41.1784 12.0732 41.1487C11.9006 41.119 12.2534 40.1802 12.1034 40.2308C11.893 40.3024 11.6047 40.6059 11.5152 40.447C11.4839 40.392 11.4665 40.4042 12.0178 40.0422C12.1637 39.9466 12.1611 40.0125 11.6488 39.4763C11.508 39.33 11.5306 39.3121 11.5574 39.2654C11.5948 39.2003 11.6791 39.2571 11.7276 39.3047C12.3685 39.9269 12.1485 39.992 12.4255 38.6304C12.4409 38.5536 12.4701 38.4431 12.5395 38.4663C12.5661 38.4746 12.5817 38.513 12.604 38.5405Z" fill="white"/>
<path d="M68.6305 49.6545C68.4423 49.7174 68.1995 50.048 68.1013 49.9471C68.0305 49.875 68.1178 49.8209 68.486 49.5026C68.6274 49.3799 68.6659 49.4017 68.5886 49.3026C67.9873 48.5423 68.0048 48.6301 67.9995 48.4511C68.2187 48.493 68.5353 48.9838 68.6973 49.0921C68.7405 48.9908 68.6864 49.2039 68.8366 48.2314C68.8493 48.1463 68.8746 48.0629 68.8925 47.9777C68.8929 47.962 68.9003 47.9472 68.9117 47.9367C68.9231 47.9262 68.9383 47.9205 68.9545 47.921C69.0724 47.9271 69.027 48.0336 68.9803 48.3851C68.875 49.1812 68.841 49.2244 69.0305 49.11C69.5174 48.817 69.5213 48.7899 69.6615 48.7576C69.754 48.7358 69.7444 48.8349 69.7143 48.8716C69.696 48.8943 69.3519 49.1209 69.0283 49.3406C68.8859 49.4371 68.9475 49.4061 69.2715 49.8008C69.3257 49.8667 69.3667 49.9427 69.4204 50.0108C69.4602 50.0611 69.4645 50.1087 69.4091 50.1445C69.3139 50.2069 69.2392 50.003 68.8728 49.6471C68.7261 50.0423 68.8279 50.1501 68.6916 50.5156C68.6859 50.5318 68.6301 50.5759 68.6091 50.5087C68.5327 50.2659 68.6785 49.8244 68.6305 49.6545Z" fill="white"/>
</g>
</svg>
