<svg width="20" height="20" viewBox="0 0 20 20" fill="none" xmlns="http://www.w3.org/2000/svg">
<g clip-path="url(#clip0_229_2014)">
<path d="M10 20C15.5228 20 20 15.5228 20 10C20 4.47715 15.5228 0 10 0C4.47715 0 0 4.47715 0 10C0 15.5228 4.47715 20 10 20Z" fill="#2E384C"/>
<path d="M4.15297 12.7007C4.05398 12.3845 4.1307 11.8995 4.12772 11.5564L4.11695 10.3133L4.09542 7.82706C4.09211 7.44618 4.09337 7.04618 4.27622 6.71203C4.48837 6.32436 4.9025 6.09966 5.29287 5.89253C6.75302 5.11776 8.18691 4.29598 9.59452 3.42719C9.70725 3.34377 9.83932 3.29033 9.97834 3.27188C10.1339 3.26509 10.2783 3.34606 10.4128 3.42447L15.5394 6.41184C15.6684 6.47209 15.7782 6.56698 15.8564 6.68593C15.9049 6.79984 15.9251 6.9238 15.9153 7.04722L15.9161 12.9884C15.9263 13.1125 15.9054 13.2371 15.8555 13.3511C15.7787 13.4649 15.6723 13.5555 15.5478 13.6131L10.3721 16.5953C10.266 16.6686 10.1433 16.7142 10.0151 16.728C9.87405 16.7176 9.73856 16.6689 9.62329 16.587L7.38457 15.2809C7.60106 15.0395 7.77393 14.7624 7.89545 14.4618L9.67135 15.5308C9.76963 15.6031 9.88624 15.6462 10.0079 15.6553C10.1147 15.6437 10.2169 15.6059 10.3055 15.545L14.7067 13.0231C14.7984 12.9797 14.8785 12.9151 14.9403 12.8347C14.9967 12.7246 15.0202 12.6006 15.0079 12.4776C14.9987 10.8426 14.9894 9.20762 14.9802 7.57264C14.9907 7.44069 14.9668 7.30828 14.911 7.18827C14.8337 7.07877 14.7292 6.99141 14.6076 6.93486L10.3909 4.5136C10.2783 4.43609 10.1482 4.38775 10.0122 4.3729C9.86275 4.38342 9.71891 4.43434 9.5961 4.52022L5.501 6.87281C5.33839 6.96622 5.16706 7.06856 5.08213 7.23576C5.02352 7.37891 4.99972 7.53393 5.01269 7.68807L5.03322 11.0987C5.0411 11.2234 5.02738 11.3484 4.99266 11.4684C4.95531 11.5602 4.90551 11.6465 4.84467 11.7247C4.61478 12.05 4.3921 12.3824 4.15297 12.7007Z" fill="#99BAD7"/>
<path d="M7.91876 14.4543C7.66077 14.6776 7.72034 15.1147 7.36658 15.2736C7.00211 15.0783 6.6376 14.8831 6.27303 14.6878C5.86486 14.505 5.82733 14.2586 6.14398 13.9486C6.16976 13.9173 6.19168 13.8829 6.20926 13.8463C7.50131 11.7259 8.79341 9.60546 10.0856 7.48507C10.1689 7.3484 10.2363 7.21453 10.4469 7.2204C10.9985 7.23579 11.5508 7.22559 12.1058 7.22559C12.1192 7.38552 12.009 7.48058 11.9442 7.5936C11.394 8.55209 10.8424 9.50972 10.2893 10.4665C9.8209 11.2053 9.34991 11.9425 8.96346 12.7292L8.96804 12.7248C8.69306 13.0622 8.51518 13.4584 8.29712 13.8302L8.28387 13.8586L7.99714 14.3608L8.00087 14.3583L7.91876 14.4543Z" fill="#FDFCFC"/>
<path d="M4.16029 12.7627C4.24451 12.5726 4.35084 12.3931 4.4771 12.2278C5.2736 11.0929 6.03745 9.93603 6.76863 8.75711C7.03405 8.32913 7.30434 7.88796 7.70526 7.58321C7.98155 7.37854 8.30445 7.24587 8.64483 7.19716C8.9852 7.14845 9.33235 7.18523 9.65496 7.30418C8.24292 9.57942 6.82148 11.8488 5.39064 14.1123C5.04732 13.9429 4.71165 13.7594 4.38172 13.5654C4.07446 13.3847 4.02209 13.1454 4.1468 12.7985C4.15112 12.7865 4.15562 12.7746 4.16029 12.7627Z" fill="#FDFCFC"/>
<path d="M13.1977 8.8672L14.9057 11.4955C14.9514 11.1663 14.9779 10.8347 14.985 10.5023L15.0113 12.6095C15.0197 12.6931 15.0055 12.7774 14.9703 12.8536C14.9163 12.9281 14.8417 12.9852 14.7557 13.0177L14.0434 13.3683C14.0276 13.3788 14.0098 13.386 13.9911 13.3895C13.9723 13.393 13.9531 13.3927 13.9346 13.3886C13.9088 13.3754 13.8877 13.3546 13.8743 13.3289C13.1128 12.1758 12.4214 10.9687 11.6996 9.78571C11.6158 9.64658 11.5291 9.49658 11.5371 9.33437C11.5571 9.19167 11.6139 9.05663 11.7018 8.94252L12.2789 8.04534C12.331 7.96442 12.4064 7.87255 12.501 7.8898C12.5325 7.90043 12.5616 7.91726 12.5864 7.93928C12.6113 7.9613 12.6315 7.98808 12.6459 8.01804L13.1977 8.8672Z" fill="#439CD3"/>
<path d="M13.5662 13.6674C13.2496 13.8708 12.9275 14.0652 12.5999 14.2505C12.4272 14.3482 12.2531 14.4433 12.0776 14.5359C11.8455 14.6585 11.8211 14.7294 11.6633 14.5282C11.199 13.9367 10.8628 13.1943 10.4449 12.5645C10.2877 12.3273 10.1214 12.0714 10.1281 11.7869C10.1345 11.5204 10.2919 11.2843 10.4436 11.065L11.0469 10.1931C11.0641 10.1622 11.0901 10.1371 11.1216 10.121C11.1961 10.0922 11.2666 10.1682 11.3106 10.2349L13.5762 13.661L13.5662 13.6674Z" fill="#439CD3"/>
</g>
<defs>
<clipPath id="clip0_229_2014">
<rect width="20" height="20" fill="white"/>
</clipPath>
</defs>
</svg>
