<svg width="20" height="20" viewBox="0 0 20 20" fill="none" xmlns="http://www.w3.org/2000/svg">
<g clip-path="url(#clip0_229_2021)">
<path d="M9.86041 0H10.1404C10.2335 0.0128651 10.327 0.0123948 10.4206 0.00975134C10.9865 0.0312845 11.5494 0.102677 12.1027 0.223099C13.343 0.491975 14.4952 0.973388 15.5487 1.68168C17.2607 2.83263 18.5048 4.36486 19.2808 6.27835C19.5505 6.94462 19.7455 7.63879 19.862 8.34808C19.9314 8.75859 19.9743 9.17314 19.9905 9.58917C19.9877 9.67953 19.9871 9.76981 20 9.85961V10.1396C19.9871 10.2294 19.9877 10.3197 19.9905 10.41C19.9729 10.8645 19.9233 11.3171 19.8421 11.7645C19.6656 12.7504 19.3509 13.69 18.8885 14.5782C17.918 16.4427 16.5037 17.8675 14.6457 18.8528C13.3497 19.5382 11.965 19.9098 10.5016 19.9869C9.67882 20.0296 8.85392 19.969 8.04623 19.8064C7.14625 19.6285 6.27547 19.3259 5.45906 18.9075C3.88442 18.0991 2.61013 16.9555 1.63622 15.4768C0.727827 14.0913 0.2012 12.5699 0.0433026 10.9213C-0.0127961 10.327 -0.0143917 9.72886 0.0385392 9.13427C0.0843303 8.60009 0.173563 8.07053 0.305347 7.55084C0.660126 6.15931 1.28359 4.90064 2.17574 3.77482C3.04538 2.6819 4.09796 1.80919 5.33349 1.15668C5.98049 0.814416 6.66336 0.544748 7.36964 0.352588C7.80135 0.234306 8.24067 0.145808 8.68451 0.0877166C8.98204 0.0489191 9.28031 0.0209526 9.58015 0.00974035C9.67377 0.0124078 9.76732 0.0128591 9.86041 0ZM7.05226 12.656C7.40147 12.6532 7.699 12.6254 7.99073 12.5494C8.45169 12.4292 8.84183 12.1971 9.14385 11.8238C9.41008 11.4948 9.57702 11.117 9.68946 10.7132C9.80185 10.3095 9.88349 9.89881 9.95867 9.48682C10.006 9.22751 10.0422 8.96782 10.0118 8.70281C9.96287 8.27681 9.76762 7.93178 9.43042 7.6719C9.0861 7.40652 8.6827 7.29574 8.25627 7.26145C7.90049 7.23195 7.54228 7.25863 7.1948 7.34051C6.66349 7.46624 6.22061 7.73286 5.88738 8.17103C5.65358 8.47845 5.49989 8.82493 5.40141 9.19571C5.28581 9.63099 5.19581 10.0722 5.11092 10.5145C5.06198 10.7694 5.03818 11.0259 5.07374 11.2843C5.14316 11.7886 5.41329 12.1513 5.86105 12.3863C6.2496 12.5903 6.6684 12.6549 7.05226 12.656ZM12.6036 10.7507C12.7253 10.7507 12.8469 10.7502 12.9686 10.7508C13.2812 10.7524 13.5904 10.7239 13.8922 10.6388C14.3607 10.5068 14.7378 10.2493 14.9929 9.82759C15.1523 9.56401 15.2466 9.27658 15.3003 8.97475C15.3368 8.76948 15.3414 8.56419 15.2948 8.35973C15.2193 8.02818 15.0212 7.78897 14.7327 7.61881C14.3972 7.42085 14.0279 7.33835 13.6448 7.33325C12.9234 7.32364 12.2017 7.32902 11.4801 7.32908C11.428 7.32873 11.3774 7.34649 11.337 7.37932C11.2966 7.41215 11.2688 7.45801 11.2585 7.50905C11.1353 8.08591 11.0126 8.66285 10.8903 9.23988C10.7422 9.93714 10.5943 10.6344 10.4464 11.3317C10.3721 11.6812 10.2966 12.0303 10.223 12.3799C10.196 12.5086 10.2521 12.5821 10.3779 12.5825C10.7145 12.5837 11.0511 12.5837 11.3878 12.5825C11.5102 12.582 11.5945 12.51 11.6209 12.3906C11.6242 12.376 11.6274 12.3614 11.6305 12.3467C11.7383 11.8311 11.8457 11.3155 11.9529 10.7997C11.9615 10.7581 11.979 10.7493 12.0187 10.7497C12.2136 10.7519 12.4086 10.7507 12.6036 10.7507Z" fill="#EE222C"/>
<path d="M7.0522 12.6562C6.66834 12.6551 6.24954 12.5905 5.86099 12.3865C5.41323 12.1515 5.1431 11.7888 5.07368 11.2845C5.03812 11.0261 5.06192 10.7696 5.11086 10.5147C5.19575 10.0724 5.28575 9.63117 5.40135 9.19589C5.49982 8.82511 5.65351 8.47863 5.88732 8.17121C6.22055 7.73304 6.66343 7.46642 7.19475 7.3407C7.54223 7.25882 7.90043 7.23214 8.25621 7.26163C8.68264 7.29592 9.08604 7.40671 9.43036 7.67208C9.76756 7.93196 9.96282 8.277 10.0117 8.70299C10.0421 8.968 10.0059 9.22768 9.95861 9.48701C9.88343 9.89899 9.80179 10.3097 9.6894 10.7134C9.57696 11.1172 9.41002 11.495 9.14379 11.824C8.84177 12.1973 8.45163 12.4294 7.99067 12.5496C7.69894 12.6256 7.40141 12.6534 7.0522 12.6562ZM7.20198 11.5755C7.49093 11.5762 7.75735 11.4795 7.9753 11.2623C8.14746 11.0908 8.24863 10.8788 8.3098 10.6477C8.41223 10.2608 8.49739 9.86972 8.57091 9.4762C8.60759 9.27981 8.64065 9.08391 8.62185 8.88188C8.5967 8.61147 8.44267 8.42381 8.17899 8.35786C8.03663 8.32226 7.89229 8.32057 7.74766 8.33965C7.48555 8.37423 7.26245 8.4855 7.08662 8.68485C6.94401 8.84654 6.85897 9.03896 6.80142 9.24397C6.69138 9.63593 6.60845 10.0342 6.53028 10.4335C6.49184 10.6298 6.45922 10.8255 6.4794 11.0275C6.50481 11.2818 6.65386 11.4695 6.89499 11.5385C6.99019 11.5658 7.08795 11.573 7.20198 11.5755Z" fill="white"/>
<path d="M12.6036 10.7509C12.4086 10.7509 12.2136 10.752 12.0186 10.7498C11.9789 10.7494 11.9614 10.7582 11.9528 10.7998C11.8465 11.3157 11.739 11.8314 11.6304 12.3468C11.6274 12.3615 11.6241 12.3761 11.6209 12.3907C11.5944 12.5101 11.5101 12.5821 11.3877 12.5826C11.0511 12.5839 10.7144 12.5839 10.3778 12.5826C10.252 12.5822 10.1959 12.5087 10.223 12.38C10.2965 12.0304 10.3721 11.6813 10.4463 11.3318C10.5945 10.6346 10.7424 9.93731 10.8903 9.23999C11.0128 8.66301 11.1355 8.08606 11.2584 7.50916C11.2688 7.45812 11.2965 7.41226 11.3369 7.37943C11.3774 7.3466 11.4279 7.32884 11.48 7.32919C12.2016 7.32913 12.9233 7.32375 13.6448 7.33336C14.0278 7.33846 14.3971 7.42096 14.7327 7.61893C15.0211 7.78908 15.2192 8.02829 15.2947 8.35984C15.3413 8.5643 15.3367 8.76959 15.3002 8.97487C15.2466 9.27669 15.1523 9.56412 14.9928 9.8277C14.7377 10.2494 14.3607 10.5069 13.8922 10.6389C13.5903 10.724 13.2812 10.7525 12.9685 10.7509C12.8469 10.7503 12.7252 10.7509 12.6036 10.7509ZM12.6991 9.71628C12.8275 9.71362 12.981 9.7234 13.134 9.70947C13.3664 9.68832 13.5628 9.59241 13.7142 9.41375C13.8608 9.24073 13.9192 9.03422 13.9144 8.81159C13.9092 8.57189 13.7956 8.43703 13.5737 8.39198C13.4951 8.37699 13.4152 8.36993 13.3352 8.37091C13.0569 8.371 12.7786 8.37173 12.5003 8.36999C12.4636 8.36976 12.449 8.3803 12.4416 8.41604C12.3548 8.83417 12.2677 9.25224 12.1774 9.66963C12.1671 9.71735 12.1841 9.71702 12.2193 9.71677C12.3709 9.71565 12.5226 9.71628 12.6991 9.71628Z" fill="white"/>
<path d="M7.20188 11.5751C7.08785 11.5726 6.99009 11.5654 6.8949 11.5381C6.65376 11.4691 6.50472 11.2813 6.47931 11.0271C6.45913 10.8251 6.49174 10.6294 6.53018 10.4331C6.60835 10.0338 6.69128 9.63552 6.80132 9.24356C6.85888 9.03855 6.94391 8.84614 7.08652 8.68444C7.26235 8.48509 7.48545 8.37382 7.74756 8.33924C7.89219 8.32016 8.03653 8.32184 8.17889 8.35745C8.44257 8.4234 8.59661 8.61106 8.62176 8.88147C8.64054 9.0835 8.6075 9.2794 8.57081 9.47579C8.4973 9.86931 8.41214 10.2603 8.3097 10.6473C8.24853 10.8784 8.14736 11.0903 7.9752 11.2619C7.75725 11.479 7.49083 11.5758 7.20188 11.5751Z" fill="#EE222C"/>
<path d="M12.699 9.71593C12.5225 9.71593 12.3708 9.71529 12.2192 9.71641C12.184 9.71666 12.167 9.71699 12.1773 9.66927C12.2676 9.25188 12.3547 8.83381 12.4414 8.41568C12.4489 8.37994 12.4634 8.3694 12.5002 8.36963C12.7785 8.37137 13.0568 8.37064 13.3351 8.37055C13.4151 8.36957 13.495 8.37663 13.5736 8.39162C13.7955 8.43667 13.909 8.57153 13.9142 8.81123C13.9191 9.03386 13.8607 9.24036 13.7141 9.41339C13.5627 9.59205 13.3663 9.68796 13.1339 9.70911C12.9809 9.72304 12.8274 9.71327 12.699 9.71593Z" fill="#EE222C"/>
</g>
<defs>
<clipPath id="clip0_229_2021">
<rect width="20" height="20.0004" fill="white"/>
</clipPath>
</defs>
</svg>
