<svg width="20" height="20" viewBox="0 0 20 20" fill="none" xmlns="http://www.w3.org/2000/svg">
<rect width="20" height="20" rx="8" fill="#8247E5"/>
<path d="M13.395 7.75395C13.149 7.60896 12.8292 7.60896 12.5586 7.75395L10.6397 8.86551L9.33594 9.59045L7.41713 10.702C7.17113 10.847 6.85133 10.847 6.58073 10.702L5.05551 9.83205C4.80951 9.68707 4.63731 9.42129 4.63731 9.13132V7.41565C4.63731 7.12567 4.78491 6.85987 5.05551 6.71488L6.55612 5.86913C6.80213 5.72415 7.12193 5.72415 7.39253 5.86913L8.89316 6.71488C9.13914 6.85987 9.31135 7.12567 9.31135 7.41565V8.52721L10.6152 7.77811V6.66656C10.6152 6.37658 10.4676 6.11077 10.197 5.96579L7.41713 4.37095C7.17113 4.22596 6.85133 4.22596 6.58073 4.37095L3.7517 5.96579C3.4811 6.11077 3.3335 6.37658 3.3335 6.66656V9.88041C3.3335 10.1704 3.4811 10.4362 3.7517 10.5812L6.58073 12.176C6.82673 12.321 7.14653 12.321 7.41713 12.176L9.33594 11.0886L10.6397 10.3395L12.5586 9.25214C12.8046 9.10715 13.1244 9.10715 13.395 9.25214L14.8956 10.0979C15.1416 10.2429 15.3138 10.5087 15.3138 10.7987V12.5143C15.3138 12.8043 15.1662 13.0701 14.8956 13.2151L13.395 14.085C13.149 14.23 12.8292 14.23 12.5586 14.085L11.058 13.2393C10.812 13.0943 10.6397 12.8284 10.6397 12.5385V11.4269L9.33594 12.176V13.2876C9.33594 13.5775 9.48357 13.8434 9.75413 13.9883L12.5832 15.5832C12.8292 15.7282 13.149 15.7282 13.4196 15.5832L16.2486 13.9883C16.4946 13.8434 16.6668 13.5775 16.6668 13.2876V10.0737C16.6668 9.78374 16.5192 9.51796 16.2486 9.37298L13.395 7.75395Z" fill="white"/>
</svg>
