<svg width="24" height="24" viewBox="0 0 24 24" fill="none" xmlns="http://www.w3.org/2000/svg">
<path d="M10.139 13C9.55133 13 9.08639 13.5059 9.19698 14.0831C9.52905 15.8163 10.2679 17.4049 11.3109 18.7462C11.6638 19.2 12.3364 19.2 12.6893 18.7462C13.7324 17.4049 14.4712 15.8164 14.8032 14.0831C14.9138 13.5059 14.4489 13 13.8612 13H10.139Z" fill="#292D32"/>
<path d="M17.889 13C17.3661 13 16.9358 13.4037 16.8591 13.9209C16.5115 16.267 15.5369 18.409 14.1122 20.1704C13.8041 20.5512 13.8482 21.1177 14.2355 21.4176C14.4404 21.5762 14.7082 21.6325 14.9557 21.556C18.3847 20.4967 21.0257 17.6424 21.7812 14.0908C21.9043 13.5124 21.4379 13 20.8465 13H17.889Z" fill="#292D32"/>
<path d="M3.15352 13C2.56218 13 2.09582 13.5124 2.21886 14.0908C3.00142 17.7696 5.80689 20.7002 9.41564 21.6629C9.66029 21.7281 9.91894 21.6492 10.0955 21.4678C10.3689 21.1868 10.3695 20.7413 10.1148 20.4433C8.56666 18.6322 7.50675 16.3896 7.14096 13.9209C7.06432 13.4037 6.63392 13 6.11108 13H3.15352Z" fill="#292D32"/>
<path d="M21.7812 9.90948C21.9042 10.4879 21.4379 11.0003 20.8465 11.0003H17.889C17.3661 11.0003 16.9357 10.5965 16.8591 10.0793C16.5115 7.73322 15.5369 5.59121 14.1122 3.82984C13.8041 3.44901 13.8482 2.88253 14.2355 2.58267C14.4404 2.42406 14.7082 2.36775 14.9557 2.44423C18.3847 3.50359 21.0257 6.35783 21.7812 9.90948Z" fill="#292D32"/>
<path d="M14.8033 9.91699C14.9138 10.4942 14.4489 11.0001 13.8612 11.0001H10.139C9.55133 11.0001 9.08639 10.4942 9.19698 9.91699C9.52906 8.18377 10.2679 6.5952 11.3109 5.25388C11.6638 4.80011 12.3364 4.80011 12.6893 5.25389C13.7324 6.5952 14.4712 8.18377 14.8033 9.91699Z" fill="#292D32"/>
<path d="M9.04277 2.44467C9.29111 2.3679 9.55976 2.42471 9.76494 2.58429C10.1512 2.88472 10.1947 3.45048 9.88695 3.83098C8.46272 5.59213 7.48852 7.73368 7.14096 10.0793C7.06432 10.5965 6.63392 11.0002 6.11108 11.0002H3.15352C2.56218 11.0002 2.09581 10.4878 2.21885 9.90943C2.97422 6.35833 5.61452 3.50441 9.04277 2.44467Z" fill="#292D32"/>
</svg>
