<svg width="20" height="20" viewBox="0 0 20 20" fill="none" xmlns="http://www.w3.org/2000/svg">
<path d="M17.7499 6.31657H13.0999C12.7749 6.31657 12.5166 6.05824 12.5166 5.73324C12.5166 5.40824 12.7749 5.1499 13.0999 5.1499H17.7499C18.0749 5.1499 18.3333 5.40824 18.3333 5.73324C18.3333 6.05824 18.0749 6.31657 17.7499 6.31657Z" fill="#292D32"/>
<path d="M5.34984 6.31657H2.24984C1.92484 6.31657 1.6665 6.05824 1.6665 5.73324C1.6665 5.40824 1.92484 5.1499 2.24984 5.1499H5.34984C5.67484 5.1499 5.93317 5.40824 5.93317 5.73324C5.93317 6.05824 5.6665 6.31657 5.34984 6.31657Z" fill="#292D32"/>
<path d="M8.44987 9.02523C10.2678 9.02523 11.7415 7.5515 11.7415 5.73356C11.7415 3.91562 10.2678 2.44189 8.44987 2.44189C6.63193 2.44189 5.1582 3.91562 5.1582 5.73356C5.1582 7.5515 6.63193 9.02523 8.44987 9.02523Z" fill="#292D32"/>
<path d="M17.7502 14.8415H14.6502C14.3252 14.8415 14.0669 14.5831 14.0669 14.2581C14.0669 13.9331 14.3252 13.6748 14.6502 13.6748H17.7502C18.0752 13.6748 18.3336 13.9331 18.3336 14.2581C18.3336 14.5831 18.0752 14.8415 17.7502 14.8415Z" fill="#292D32"/>
<path d="M6.89984 14.8415H2.24984C1.92484 14.8415 1.6665 14.5831 1.6665 14.2581C1.6665 13.9331 1.92484 13.6748 2.24984 13.6748H6.89984C7.22484 13.6748 7.48317 13.9331 7.48317 14.2581C7.48317 14.5831 7.2165 14.8415 6.89984 14.8415Z" fill="#292D32"/>
<path d="M11.55 17.5584C13.3679 17.5584 14.8416 16.0847 14.8416 14.2668C14.8416 12.4488 13.3679 10.9751 11.55 10.9751C9.73203 10.9751 8.2583 12.4488 8.2583 14.2668C8.2583 16.0847 9.73203 17.5584 11.55 17.5584Z" fill="#292D32"/>
</svg>
