<svg width="24" height="24" viewBox="0 0 24 24" fill="none" xmlns="http://www.w3.org/2000/svg">
<rect width="24" height="24" rx="4" fill="white"/>
<path d="M9.53906 10.7692L14.4621 8M9.53906 13.5385L14.4621 16.6154" stroke="#292D32" stroke-width="1.45"/>
<path d="M8.92659 12.0003C8.92659 13.0218 8.09846 13.8499 7.07692 13.8499C6.05538 13.8499 5.22726 13.0218 5.22726 12.0003C5.22726 10.9787 6.05538 10.1506 7.07692 10.1506C8.09846 10.1506 8.92659 10.9787 8.92659 12.0003Z" fill="#292D32" stroke="#292D32" stroke-width="2.45451"/>
<path d="M18.7728 16.9231C18.7728 17.9446 17.9447 18.7728 16.9231 18.7728C15.9016 18.7728 15.0734 17.9446 15.0734 16.9231C15.0734 15.9016 15.9016 15.0734 16.9231 15.0734C17.9447 15.0734 18.7728 15.9016 18.7728 16.9231Z" fill="#292D32" stroke="#292D32" stroke-width="2.45451"/>
<path d="M18.7728 7.07692C18.7728 8.09846 17.9447 8.92658 16.9231 8.92658C15.9016 8.92658 15.0734 8.09846 15.0734 7.07692C15.0734 6.05538 15.9016 5.22726 16.9231 5.22726C17.9447 5.22726 18.7728 6.05538 18.7728 7.07692Z" fill="#292D32" stroke="#292D32" stroke-width="2.45451"/>
</svg>
