<svg width="45" height="14" viewBox="0 0 45 14" fill="none" xmlns="http://www.w3.org/2000/svg">
<g clip-path="url(#clip0_229_1675)">
<path d="M7.4375 14H6.5625C6.2144 14 5.88056 13.8617 5.63442 13.6156C5.38828 13.3694 5.25 13.0356 5.25 12.6875C5.24715 12.6016 5.21908 12.5185 5.16928 12.4485C5.11949 12.3784 5.05018 12.3246 4.97 12.2937C4.865 12.2646 4.76875 12.2296 4.68125 12.1888C4.60447 12.1513 4.51839 12.1371 4.43364 12.148C4.3489 12.1589 4.2692 12.1943 4.20437 12.25C3.95923 12.4892 3.6303 12.623 3.28781 12.623C2.94532 12.623 2.6164 12.4892 2.37125 12.25L1.75 11.6287C1.51083 11.3836 1.37695 11.0547 1.37695 10.7122C1.37695 10.3697 1.51083 10.0408 1.75 9.79562C1.80852 9.73266 1.8472 9.65386 1.86121 9.56905C1.87521 9.48424 1.86392 9.39718 1.82875 9.31875C1.77625 9.23125 1.73104 9.135 1.69313 9.03C1.66314 8.95179 1.61134 8.88383 1.54386 8.8342C1.47639 8.78456 1.39609 8.75534 1.3125 8.75C0.964403 8.75 0.630564 8.61172 0.384422 8.36558C0.138281 8.11944 0 7.7856 0 7.4375L0 6.5625C0 6.2144 0.138281 5.88056 0.384422 5.63442C0.630564 5.38828 0.964403 5.25 1.3125 5.25C1.39837 5.24715 1.48151 5.21908 1.55153 5.16928C1.62155 5.11949 1.67537 5.05018 1.70625 4.97C1.73542 4.865 1.77042 4.76875 1.81125 4.68125C1.84872 4.60447 1.86289 4.51839 1.852 4.43364C1.84112 4.3489 1.80566 4.2692 1.75 4.20437C1.51083 3.95923 1.37695 3.6303 1.37695 3.28781C1.37695 2.94532 1.51083 2.6164 1.75 2.37125L2.37125 1.75C2.6164 1.51083 2.94532 1.37695 3.28781 1.37695C3.6303 1.37695 3.95923 1.51083 4.20437 1.75C4.26734 1.80852 4.34614 1.8472 4.43095 1.86121C4.51576 1.87521 4.60282 1.86392 4.68125 1.82875L4.97 1.71063C5.05085 1.67945 5.12063 1.62497 5.17048 1.55409C5.22032 1.48322 5.248 1.39913 5.25 1.3125C5.25 0.964403 5.38828 0.630564 5.63442 0.384422C5.88056 0.138281 6.2144 0 6.5625 0L7.4375 0C7.7856 0 8.11944 0.138281 8.36558 0.384422C8.61172 0.630564 8.75 0.964403 8.75 1.3125C8.75285 1.39837 8.78092 1.48151 8.83072 1.55153C8.88051 1.62155 8.94982 1.67537 9.03 1.70625L9.31875 1.82438C9.39677 1.86011 9.48358 1.87212 9.56837 1.85889C9.65316 1.84567 9.73219 1.8078 9.79562 1.75C10.0408 1.51083 10.3697 1.37695 10.7122 1.37695C11.0547 1.37695 11.3836 1.51083 11.6287 1.75L12.25 2.37125C12.4892 2.6164 12.623 2.94532 12.623 3.28781C12.623 3.6303 12.4892 3.95923 12.25 4.20437C12.1915 4.26734 12.1528 4.34614 12.1388 4.43095C12.1248 4.51576 12.1361 4.60282 12.1712 4.68125C12.215 4.7775 12.2544 4.87375 12.2894 4.97C12.3205 5.05085 12.375 5.12063 12.4459 5.17048C12.5168 5.22032 12.6009 5.248 12.6875 5.25C13.0356 5.25 13.3694 5.38828 13.6156 5.63442C13.8617 5.88056 14 6.2144 14 6.5625V7.4375C14 7.7856 13.8617 8.11944 13.6156 8.36558C13.3694 8.61172 13.0356 8.75 12.6875 8.75C12.6016 8.75285 12.5185 8.78092 12.4485 8.83072C12.3784 8.88051 12.3246 8.94982 12.2937 9.03C12.2587 9.12625 12.2194 9.2225 12.1756 9.31875C12.141 9.3976 12.1304 9.4849 12.1452 9.56973C12.16 9.65456 12.1995 9.73314 12.2587 9.79562C12.4979 10.0408 12.6318 10.3697 12.6318 10.7122C12.6318 11.0547 12.4979 11.3836 12.2587 11.6287L11.6287 12.25C11.5468 12.3315 11.4359 12.3772 11.3203 12.3772C11.2047 12.3772 11.0938 12.3315 11.0119 12.25C10.9304 12.168 10.8847 12.0571 10.8847 11.9416C10.8847 11.826 10.9304 11.7151 11.0119 11.6331L11.6506 10.9944C11.7269 10.9132 11.7694 10.8061 11.7694 10.6947C11.7694 10.5833 11.7269 10.4761 11.6506 10.395C11.4672 10.2075 11.3441 9.96931 11.2973 9.71119C11.2505 9.45307 11.2822 9.18685 11.3881 8.94688C11.4275 8.86375 11.4581 8.78062 11.4888 8.6975C11.5853 8.45754 11.7506 8.25145 11.9638 8.10512C12.1771 7.95878 12.4289 7.87873 12.6875 7.875C12.8035 7.875 12.9148 7.82891 12.9969 7.74686C13.0789 7.66481 13.125 7.55353 13.125 7.4375V6.5625C13.125 6.44647 13.0789 6.33519 12.9969 6.25314C12.9148 6.17109 12.8035 6.125 12.6875 6.125C12.4246 6.12247 12.1685 6.04104 11.9525 5.89127C11.7364 5.7415 11.5703 5.53028 11.4756 5.285C11.4466 5.20154 11.413 5.11975 11.375 5.04C11.2681 4.79949 11.2359 4.53237 11.2827 4.27335C11.3295 4.01433 11.4531 3.77537 11.6375 3.5875C11.7138 3.50636 11.7563 3.39918 11.7563 3.28781C11.7563 3.17644 11.7138 3.06926 11.6375 2.98812L11.0119 2.34938C10.9307 2.27309 10.8236 2.23061 10.7122 2.23061C10.6008 2.23061 10.4936 2.27309 10.4125 2.34938C10.2246 2.53373 9.98567 2.65734 9.72665 2.70415C9.46763 2.75096 9.20051 2.71881 8.96 2.61187C8.88025 2.57384 8.79846 2.54025 8.715 2.51125C8.47177 2.41745 8.26197 2.25334 8.11237 2.03985C7.96277 1.82635 7.88013 1.57314 7.875 1.3125C7.875 1.19647 7.82891 1.08519 7.74686 1.00314C7.66481 0.921094 7.55353 0.875 7.4375 0.875H6.5625C6.44647 0.875 6.33519 0.921094 6.25314 1.00314C6.17109 1.08519 6.125 1.19647 6.125 1.3125C6.12247 1.5754 6.04104 1.83147 5.89127 2.04755C5.7415 2.26362 5.53028 2.42974 5.285 2.52437C5.20154 2.55338 5.11975 2.58697 5.04 2.625C4.79949 2.73194 4.53237 2.76409 4.27335 2.71728C4.01433 2.67047 3.77537 2.54686 3.5875 2.3625C3.50636 2.28621 3.39918 2.24374 3.28781 2.24374C3.17644 2.24374 3.06926 2.28621 2.98812 2.3625L2.34938 2.98812C2.27309 3.06926 2.23061 3.17644 2.23061 3.28781C2.23061 3.39918 2.27309 3.50636 2.34938 3.5875C2.53592 3.7739 2.66199 4.01216 2.71115 4.27125C2.76032 4.53034 2.73029 4.79822 2.625 5.04C2.58562 5.11875 2.555 5.20187 2.52 5.285C2.42929 5.53203 2.26475 5.74515 2.04872 5.89543C1.8327 6.04571 1.57565 6.12586 1.3125 6.125C1.19647 6.125 1.08519 6.17109 1.00314 6.25314C0.921094 6.33519 0.875 6.44647 0.875 6.5625V7.4375C0.875 7.55353 0.921094 7.66481 1.00314 7.74686C1.08519 7.82891 1.19647 7.875 1.3125 7.875C1.5754 7.87753 1.83147 7.95896 2.04755 8.10873C2.26362 8.2585 2.42974 8.46972 2.52437 8.715C2.55338 8.79846 2.58697 8.88025 2.625 8.96C2.73194 9.20051 2.76409 9.46763 2.71728 9.72665C2.67047 9.98567 2.54686 10.2246 2.3625 10.4125C2.28621 10.4936 2.24374 10.6008 2.24374 10.7122C2.24374 10.8236 2.28621 10.9307 2.3625 11.0119L3.00125 11.6506C3.08239 11.7269 3.18957 11.7694 3.30094 11.7694C3.41231 11.7694 3.51949 11.7269 3.60062 11.6506C3.7885 11.4663 4.02746 11.3427 4.28648 11.2958C4.5455 11.249 4.81261 11.2812 5.05312 11.3881C5.13288 11.4262 5.21467 11.4597 5.29812 11.4888C5.5389 11.5846 5.74592 11.7496 5.89307 11.9629C6.04022 12.1763 6.12092 12.4284 6.125 12.6875C6.125 12.8035 6.17109 12.9148 6.25314 12.9969C6.33519 13.0789 6.44647 13.125 6.5625 13.125H7.4375C7.55353 13.125 7.66481 13.0789 7.74686 12.9969C7.82891 12.9148 7.875 12.8035 7.875 12.6875C7.87753 12.4246 7.95896 12.1685 8.10873 11.9525C8.2585 11.7364 8.46972 11.5703 8.715 11.4756C8.79846 11.4466 8.88025 11.413 8.96 11.375C9.06617 11.3274 9.18689 11.324 9.2956 11.3654C9.40431 11.4068 9.49211 11.4898 9.53969 11.5959C9.58726 11.7021 9.59071 11.8228 9.54928 11.9315C9.50784 12.0403 9.42492 12.1281 9.31875 12.1756C9.2225 12.2194 9.12625 12.2587 9.03 12.2937C8.94982 12.3246 8.88051 12.3784 8.83072 12.4485C8.78092 12.5185 8.75285 12.6016 8.75 12.6875C8.75 13.0356 8.61172 13.3694 8.36558 13.6156C8.11944 13.8617 7.7856 14 7.4375 14Z" fill="#F3F6FB"/>
<path d="M7.37189 3.70557C7.33265 3.64226 7.2779 3.59001 7.21282 3.55378C7.14774 3.51755 7.07449 3.49854 7.00001 3.49854C6.92553 3.49854 6.85228 3.51755 6.7872 3.55378C6.72212 3.59001 6.66737 3.64226 6.62814 3.70557C4.30501 7.43744 4.33564 7.28432 4.37501 7.52494C4.39556 7.59345 4.42655 7.65838 4.46689 7.71744C6.74189 10.4431 6.68064 10.3993 6.81189 10.4606C6.89557 10.4974 6.98867 10.507 7.07813 10.4882C7.16758 10.4694 7.24889 10.423 7.31063 10.3556C7.36751 10.2943 9.49814 7.73057 9.56376 7.63432C9.73001 7.32807 9.73876 7.49432 7.37189 3.70557ZM6.56251 8.85494L5.61751 7.72182L6.56251 7.53369V8.85494ZM7.43751 7.54244L8.38251 7.73057L7.43751 8.85494V7.54244ZM7.00001 4.77307L8.27751 6.82057C6.80314 6.52307 7.03939 6.57119 6.96501 6.57994C6.89064 6.58869 7.25814 6.51432 5.73126 6.82057L7.00001 4.77307Z" fill="#F3F6FB"/>
</g>
<path d="M19.9119 4.95455V5.97727H16.3366V4.95455H19.9119ZM17.2955 3.38636H18.5696V9.57812C18.5696 9.82528 18.6065 10.0114 18.6804 10.1364C18.7543 10.2585 18.8494 10.3423 18.9659 10.3878C19.0852 10.4304 19.2145 10.4517 19.3537 10.4517C19.456 10.4517 19.5455 10.4446 19.6222 10.4304C19.6989 10.4162 19.7585 10.4048 19.8011 10.3963L20.0312 11.4489C19.9574 11.4773 19.8523 11.5057 19.7159 11.5341C19.5795 11.5653 19.4091 11.5824 19.2045 11.5852C18.8693 11.5909 18.5568 11.5312 18.267 11.4062C17.9773 11.2812 17.7429 11.0881 17.5639 10.8267C17.3849 10.5653 17.2955 10.2372 17.2955 9.84233V3.38636ZM24.0082 11.6321C23.3945 11.6321 22.859 11.4915 22.4016 11.2102C21.9442 10.929 21.5891 10.5355 21.3363 10.0298C21.0835 9.52415 20.957 8.93324 20.957 8.2571C20.957 7.57812 21.0835 6.98437 21.3363 6.47585C21.5891 5.96733 21.9442 5.57244 22.4016 5.29119C22.859 5.00994 23.3945 4.86932 24.0082 4.86932C24.6218 4.86932 25.1573 5.00994 25.6147 5.29119C26.0721 5.57244 26.4272 5.96733 26.68 6.47585C26.9329 6.98437 27.0593 7.57812 27.0593 8.2571C27.0593 8.93324 26.9329 9.52415 26.68 10.0298C26.4272 10.5355 26.0721 10.929 25.6147 11.2102C25.1573 11.4915 24.6218 11.6321 24.0082 11.6321ZM24.0124 10.5625C24.4102 10.5625 24.7397 10.4574 25.0011 10.2472C25.2624 10.0369 25.4556 9.7571 25.5806 9.40767C25.7085 9.05824 25.7724 8.6733 25.7724 8.25284C25.7724 7.83523 25.7085 7.4517 25.5806 7.10227C25.4556 6.75 25.2624 6.46733 25.0011 6.25426C24.7397 6.04119 24.4102 5.93466 24.0124 5.93466C23.6119 5.93466 23.2795 6.04119 23.0153 6.25426C22.7539 6.46733 22.5593 6.75 22.4315 7.10227C22.3065 7.4517 22.244 7.83523 22.244 8.25284C22.244 8.6733 22.3065 9.05824 22.4315 9.40767C22.5593 9.7571 22.7539 10.0369 23.0153 10.2472C23.2795 10.4574 23.6119 10.5625 24.0124 10.5625ZM31.2386 11.6321C30.625 11.6321 30.0895 11.4915 29.6321 11.2102C29.1747 10.929 28.8196 10.5355 28.5668 10.0298C28.3139 9.52415 28.1875 8.93324 28.1875 8.2571C28.1875 7.57812 28.3139 6.98437 28.5668 6.47585C28.8196 5.96733 29.1747 5.57244 29.6321 5.29119C30.0895 5.00994 30.625 4.86932 31.2386 4.86932C31.8523 4.86932 32.3878 5.00994 32.8452 5.29119C33.3026 5.57244 33.6577 5.96733 33.9105 6.47585C34.1634 6.98437 34.2898 7.57812 34.2898 8.2571C34.2898 8.93324 34.1634 9.52415 33.9105 10.0298C33.6577 10.5355 33.3026 10.929 32.8452 11.2102C32.3878 11.4915 31.8523 11.6321 31.2386 11.6321ZM31.2429 10.5625C31.6406 10.5625 31.9702 10.4574 32.2315 10.2472C32.4929 10.0369 32.6861 9.7571 32.8111 9.40767C32.9389 9.05824 33.0028 8.6733 33.0028 8.25284C33.0028 7.83523 32.9389 7.4517 32.8111 7.10227C32.6861 6.75 32.4929 6.46733 32.2315 6.25426C31.9702 6.04119 31.6406 5.93466 31.2429 5.93466C30.8423 5.93466 30.5099 6.04119 30.2457 6.25426C29.9844 6.46733 29.7898 6.75 29.6619 7.10227C29.5369 7.4517 29.4744 7.83523 29.4744 8.25284C29.4744 8.6733 29.5369 9.05824 29.6619 9.40767C29.7898 9.7571 29.9844 10.0369 30.2457 10.2472C30.5099 10.4574 30.8423 10.5625 31.2429 10.5625ZM36.9862 2.77273V11.5H35.712V2.77273H36.9862ZM43.6051 6.55256L42.4503 6.7571C42.402 6.60937 42.3253 6.46875 42.2202 6.33523C42.1179 6.2017 41.9787 6.09233 41.8026 6.0071C41.6264 5.92187 41.4063 5.87926 41.142 5.87926C40.7813 5.87926 40.4801 5.96023 40.2386 6.12216C39.9972 6.28125 39.8764 6.48722 39.8764 6.74006C39.8764 6.95881 39.9574 7.13494 40.1193 7.26847C40.2813 7.40199 40.5426 7.51136 40.9034 7.59659L41.9432 7.83523C42.5455 7.97443 42.9943 8.18892 43.2898 8.47869C43.5852 8.76847 43.733 9.14489 43.733 9.60795C43.733 10 43.6193 10.3494 43.392 10.6562C43.1676 10.9602 42.8537 11.1989 42.4503 11.3722C42.0497 11.5455 41.5852 11.6321 41.0568 11.6321C40.3239 11.6321 39.7259 11.4759 39.2628 11.1634C38.7997 10.848 38.5156 10.4006 38.4105 9.82102L39.642 9.63352C39.7188 9.95455 39.8764 10.1974 40.1151 10.3622C40.3537 10.5241 40.6648 10.6051 41.0483 10.6051C41.4659 10.6051 41.7997 10.5185 42.0497 10.3452C42.2997 10.169 42.4247 9.95455 42.4247 9.7017C42.4247 9.49716 42.348 9.32528 42.1946 9.18608C42.044 9.04687 41.8125 8.94176 41.5 8.87074L40.392 8.62784C39.7813 8.48864 39.3295 8.26705 39.0369 7.96307C38.7472 7.65909 38.6023 7.27415 38.6023 6.80824C38.6023 6.42187 38.7102 6.08381 38.9261 5.79403C39.142 5.50426 39.4403 5.27841 39.821 5.11648C40.2017 4.9517 40.6378 4.86932 41.1293 4.86932C41.8366 4.86932 42.3935 5.02273 42.7997 5.32955C43.206 5.63352 43.4744 6.04119 43.6051 6.55256Z" fill="white"/>
<defs>
<clipPath id="clip0_229_1675">
<rect width="14" height="14" fill="white"/>
</clipPath>
</defs>
</svg>
