<svg width="80" height="80" viewBox="0 0 80 80" fill="none" xmlns="http://www.w3.org/2000/svg">
<g clip-path="url(#clip0_400_4106)">
<path d="M79.4999 43.5626C78.9881 44.3879 78.2376 44.6458 77.2924 44.5899C76.0874 44.5185 74.8771 44.5416 73.6705 44.4899C73.4851 44.4667 73.2969 44.4989 73.1297 44.5826C72.9626 44.6663 72.824 44.7976 72.7314 44.9601C71.9727 46.0892 71.1608 47.1825 70.3864 48.3013C69.9682 48.9055 69.4268 49.2348 68.6882 49.1075C67.9765 48.985 67.6174 48.4953 67.4181 47.8234C67.0475 46.5734 66.5981 45.3453 66.2648 44.0861C66.2195 43.8536 66.1053 43.6402 65.937 43.4737C65.7687 43.3072 65.5541 43.1953 65.3213 43.1527C64.0673 42.7955 62.8262 42.3932 61.5787 42.0135C60.9151 41.8116 60.4437 41.4317 60.3256 40.7084C60.2074 39.9845 60.5328 39.474 61.1014 39.0749C62.2147 38.2936 63.3183 37.4979 64.4422 36.7321C64.6047 36.636 64.7358 36.495 64.82 36.326C64.9041 36.157 64.9376 35.9673 64.9164 35.7797C64.87 34.4176 64.8765 33.0538 64.8546 31.6907C64.8434 30.9933 65.0671 30.4254 65.7195 30.1021C66.3626 29.7833 66.9565 29.9153 67.5147 30.3356C68.6222 31.1695 69.742 31.9872 70.8417 32.8313C70.9626 32.9417 71.1131 33.0144 71.2747 33.0406C71.4364 33.0667 71.6021 33.0451 71.7516 32.9784C73.0258 32.5176 74.3211 32.1159 75.6003 31.6684C76.2803 31.4305 76.9172 31.4111 77.462 31.94C78.0329 32.4941 78.0216 33.154 77.77 33.8624C77.3337 35.0912 76.9437 36.3367 76.4924 37.5597C76.4068 37.7407 76.3768 37.943 76.4061 38.1411C76.4355 38.3392 76.5229 38.5241 76.6573 38.6724C77.6293 39.9233 78.5558 41.2095 79.4997 42.4821L79.4999 43.5626ZM73.9787 35.6902L73.7315 35.6081C73.1088 35.8119 72.4712 35.9791 71.8675 36.2285C71.5185 36.3932 71.1279 36.4486 70.7469 36.3876C70.3659 36.3266 70.0122 36.152 69.732 35.8866C69.2327 35.4688 68.6869 35.1069 68.0645 34.6483C68.0645 35.4829 68.0521 36.1689 68.0679 36.8543C68.0936 37.2014 68.0231 37.5489 67.8643 37.8586C67.7054 38.1684 67.4643 38.4283 67.1674 38.6098C66.5768 38.9971 66.0126 39.4248 65.3403 39.9033C66.1397 40.1615 66.8005 40.4104 67.4804 40.5851C68.2361 40.7793 68.6543 41.2503 68.8618 41.9761C69.0559 42.6555 69.2837 43.3252 69.5293 44.1026C70.0191 43.4165 70.4558 42.8199 70.8758 42.2119C71.0452 41.9384 71.2869 41.7171 71.5742 41.5726C71.8615 41.428 72.1831 41.3658 72.5036 41.3927C73.2292 41.4273 73.9577 41.4004 74.6849 41.4004L74.8674 41.2722C72.8982 39.6791 72.5576 37.8255 73.9787 35.6902Z" fill="#090909"/>
<path d="M16.402 0.5C17.5412 1.35765 18.685 2.20927 19.8162 3.0773C19.9319 3.17515 20.0734 3.23755 20.2236 3.25708C20.3738 3.2766 20.5265 3.25241 20.6634 3.18739C21.8174 2.77253 22.9911 2.41254 24.1479 2.00479C24.4337 1.88448 24.7496 1.85537 25.0526 1.92146C25.3556 1.98754 25.6308 2.1456 25.8406 2.37402C26.0538 2.58175 26.2001 2.84843 26.2609 3.13989C26.3217 3.43135 26.2942 3.73434 26.1818 4.01004C25.7969 5.14771 25.4334 6.29314 25.0221 7.42112C24.9411 7.59084 24.9127 7.78089 24.9404 7.9669C24.9682 8.15291 25.0508 8.3264 25.1778 8.46507C25.9124 9.38795 26.5942 10.3529 27.3032 11.2963C27.707 11.8337 27.8195 12.4114 27.523 13.0236C27.2096 13.6708 26.6502 13.9252 25.9514 13.9164C24.77 13.9015 23.588 13.9086 22.4078 13.8639C22.2324 13.8434 22.0548 13.8742 21.8965 13.9527C21.7383 14.0311 21.6062 14.1538 21.5162 14.3059C20.8667 15.26 20.1826 16.1903 19.5299 17.1422C19.1145 17.7481 18.5782 18.066 17.8344 17.947C17.1089 17.831 16.7567 17.3371 16.5564 16.6752C16.2234 15.5747 15.8441 14.4876 15.5377 13.3801C15.5012 13.1953 15.4096 13.0259 15.2751 12.8942C15.1405 12.7624 14.9693 12.6745 14.7838 12.642C13.7024 12.3372 12.6446 11.9494 11.5651 11.6368C10.8668 11.4347 10.3537 11.0858 10.2338 10.3282C10.1097 9.54407 10.4842 9.02275 11.1183 8.60034C12.057 7.97493 12.9595 7.29527 13.8902 6.65745C14.043 6.56871 14.1666 6.43706 14.2454 6.27881C14.3243 6.12056 14.3551 5.94266 14.3339 5.7671C14.2803 4.71542 14.3258 3.65803 14.2548 2.60815C14.1909 1.66481 14.5059 0.969567 15.3223 0.5H16.402ZM22.8847 10.8145L22.8602 10.5841C22.7747 10.4309 22.6744 10.2863 22.5608 10.1524C21.516 9.13049 21.3073 7.97685 21.987 6.67312C22.0121 6.62844 22.0329 6.58148 22.049 6.53285C22.091 6.39145 22.1962 6.23018 22.0777 6.10586C21.9514 5.97333 21.7944 6.09268 21.6538 6.13872C21.4063 6.20321 21.1634 6.28394 20.9265 6.38038C20.0302 6.81273 19.2508 6.64288 18.5261 5.99226C18.2313 5.72763 17.8865 5.51896 17.5153 5.24913C17.3536 6.17548 17.6774 7.05351 17.2703 7.83804C16.8587 8.6312 15.8864 8.8398 15.2325 9.68852C17.4354 9.67437 18.3645 10.9191 18.674 12.9187C19.5573 11.1149 20.864 10.2668 22.8847 10.8145Z" fill="#090909"/>
<path d="M48.0588 50.3833C49.254 52.6328 50.2389 54.8767 50.721 57.3107C51.0134 58.7865 51.1118 60.2749 50.7689 61.7474C50.2094 64.1507 48.7018 65.6721 46.3475 66.4127C41.0838 68.0685 35.8307 69.7578 30.5716 71.4279C22.3403 74.0419 14.1079 76.6524 5.87441 79.2595C3.40462 80.0403 1.19115 78.8665 0.600413 76.4894C0.433992 75.7334 0.484654 74.9457 0.746551 74.2172C5.04893 60.6661 9.35156 47.1152 13.6544 33.5643C14.5661 30.7004 16.8226 29.1125 19.8408 29.0501C22.933 28.9861 25.7215 30.0196 28.4385 31.3409C28.8265 31.5296 29.2092 31.7291 29.6688 31.9612C29.9856 29.0493 29.4689 26.1072 28.1787 23.4779C27.4545 22.0001 26.5069 20.6429 25.3693 19.454C24.5599 18.5907 24.5203 17.6926 25.2445 17.0273C25.9531 16.3762 26.8288 16.464 27.6084 17.3011C31.8256 21.8289 33.5239 27.1578 32.6427 33.2907C32.6039 33.4346 32.6154 33.5875 32.6752 33.724C32.735 33.8605 32.8396 33.9725 32.9717 34.0415C34.9466 35.3878 36.8115 36.889 38.5487 38.531C38.8951 38.8575 39.0633 38.7558 39.3414 38.4748C41.2768 36.5193 43.2278 34.5791 45.172 32.6322C45.4455 32.3585 45.7169 32.0786 46.1117 31.9949C46.8356 31.8412 47.4555 32.0268 47.8443 32.6783C48.0203 32.9506 48.1038 33.2725 48.0823 33.596C48.0608 33.9196 47.9355 34.2276 47.7251 34.4743C47.5778 34.6526 47.4189 34.821 47.2495 34.9783C45.3782 36.8527 43.5142 38.7346 41.626 40.5917C41.2742 40.9376 41.1665 41.1423 41.5616 41.5595C43.1704 43.2578 44.6385 45.0842 45.9515 47.0205C46.0263 47.1631 46.1477 47.2756 46.2954 47.3395C46.4431 47.4033 46.6082 47.4147 46.7632 47.3716C52.9541 46.5003 58.3168 48.2421 62.8421 52.5506C63.5712 53.2448 63.5902 54.1428 62.9573 54.809C62.3367 55.4623 61.4235 55.486 60.6996 54.789C58.2216 52.4033 55.3034 50.9137 51.8972 50.4222C50.6519 50.2427 49.3946 50.1412 48.0588 50.3833ZM21.7812 50.6663C20.6367 51.1903 20.0877 51.0569 19.3506 50.0333C18.7658 49.2214 18.1906 48.4016 17.6398 47.5664C16.3653 45.6297 15.3006 43.5626 14.4639 41.4002C14.3645 41.6728 14.297 41.8386 14.243 42.0087C11.7673 49.8127 9.2923 57.6169 6.81798 65.4213C5.78146 68.6896 4.74514 71.958 3.709 75.2264C3.50806 75.8633 3.79891 76.4049 4.36167 76.4178C4.64166 76.3996 4.91692 76.3366 5.17702 76.2313C14.5633 73.2536 23.9489 70.2734 33.3336 67.2908C35.0692 66.7391 36.8001 66.173 38.6576 65.5734C35.4291 64.3376 32.6311 62.6445 29.9872 60.6805C28.9749 59.9285 28.8332 59.3877 29.3579 58.2454C30.3092 57.4885 30.8228 57.4814 31.8305 58.1858C32.7127 58.8025 33.579 59.447 34.4961 60.0078C37.3474 61.7513 40.2882 63.2711 43.7088 63.555C45.7189 63.7218 47.2454 62.8872 47.6842 61.2904C47.9054 60.4423 47.9472 59.5574 47.807 58.6922C47.4329 56.1183 46.3833 53.8007 45.1536 51.5422C44.9044 51.0846 44.6865 51.0064 44.2149 51.1873C42.1245 51.9771 40.2187 53.1882 38.6156 54.7456C37.8543 55.4854 36.9504 55.469 36.3052 54.7701C35.6849 54.0982 35.7471 53.2581 36.4845 52.5216C37.9585 51.0519 39.6762 49.849 41.5612 48.9666C42.0503 48.7355 42.5463 48.5189 43.0626 48.2852C41.9259 46.6997 40.695 45.1838 39.3767 43.7458C39.0481 43.3868 38.8637 43.3168 38.4906 43.7108C37.4302 44.8301 36.3201 45.9024 35.2291 46.9927C34.4836 47.7378 33.7648 48.5125 32.9844 49.2189C32.0001 50.1099 30.6353 49.6845 30.3565 48.4323C30.2035 47.745 30.5692 47.2553 31.0185 46.8058C32.7813 45.0421 34.5433 43.2775 36.3045 41.5121C36.5012 41.3145 36.841 41.1645 36.4396 40.7958C34.9537 39.4113 33.3774 38.1273 31.7211 36.9523C31.6362 37.1573 31.569 37.322 31.4999 37.4858C30.5805 39.7202 29.2418 41.7578 27.5562 43.4884C27.1211 43.9303 26.6509 44.2447 25.994 44.091C24.6615 43.7791 24.3217 42.4058 25.3389 41.345C26.8684 39.7514 28.0593 37.8643 28.8396 35.7976C29.0201 35.3252 28.9462 35.1032 28.4811 34.8595C27.4284 34.2799 26.3454 33.7572 25.2368 33.2936C23.5149 32.615 21.7572 32.0744 19.8735 32.1454C17.8575 32.2214 16.7541 33.2527 16.5217 35.2334C16.3719 36.5095 16.5924 37.7422 16.9464 38.9517C17.9376 42.3392 19.7256 45.3105 21.7969 48.13C22.5576 49.1656 22.55 49.7004 21.7812 50.6663Z" fill="#090909"/>
<path d="M68.8103 15.4702C67.2422 15.4537 65.7433 14.8218 64.6362 13.7107C63.5292 12.5995 62.9024 11.0978 62.891 9.52893C62.9042 7.94655 63.5429 6.43374 64.6676 5.32107C65.7922 4.20841 67.3114 3.58635 68.893 3.59084C70.4612 3.60666 71.9603 4.23874 73.0667 5.35066C74.1732 6.46258 74.7983 7.96517 74.8071 9.53415C74.798 11.1167 74.1612 12.6309 73.0367 13.744C71.9122 14.857 70.3921 15.4779 68.8103 15.4702ZM66.0331 9.56043C66.0342 9.93282 66.1087 10.3013 66.2525 10.6448C66.3963 10.9883 66.6064 11.3 66.8709 11.562C67.1353 11.8241 67.4489 12.0313 67.7936 12.1718C68.1383 12.3123 68.5073 12.3833 68.8795 12.3808C69.2517 12.3762 69.6193 12.2979 69.9612 12.1506C70.3031 12.0032 70.6124 11.7897 70.8715 11.5223C71.1306 11.2549 71.3343 10.9389 71.4708 10.5924C71.6074 10.246 71.6741 9.87592 71.6672 9.50356C71.6669 9.13099 71.593 8.76215 71.4497 8.41827C71.3064 8.0744 71.0965 7.76227 70.8321 7.4999C70.5677 7.23753 70.2541 7.03009 69.9092 6.88951C69.5643 6.74893 69.1951 6.67801 68.8227 6.68082C68.4503 6.6859 68.0826 6.7645 67.7407 6.91211C67.3987 7.05972 67.0893 7.27342 66.8301 7.54097C66.5709 7.80852 66.367 8.12465 66.2303 8.4712C66.0935 8.81776 66.0265 9.18789 66.0331 9.56043Z" fill="#090909"/>
<path d="M47.0323 9.29762C47.8965 9.30028 48.5136 9.91508 48.6038 10.8639C48.6687 11.5469 48.3059 12.461 48.7661 12.8509C49.1615 13.1858 50.045 12.9259 50.7107 12.9637C51.621 13.0153 52.219 13.6267 52.2305 14.4747C52.2425 15.3543 51.6248 15.9995 50.7004 16.0742C50.017 16.1294 49.1059 15.7807 48.7134 16.2231C48.3772 16.6021 48.6445 17.4951 48.5964 18.1573C48.5291 19.0837 47.8473 19.746 47.0211 19.742C46.1916 19.738 45.5296 19.0778 45.4559 18.1461C45.4098 17.7368 45.41 17.3236 45.4564 16.9144C45.5676 16.1713 45.2391 15.9874 44.574 16.0695C44.2153 16.0987 43.8548 16.1006 43.4958 16.075C42.4997 16.0443 41.845 15.4381 41.8271 14.5401C41.8089 13.6226 42.429 13.0181 43.4298 12.9506C44.0836 12.9066 44.9549 13.2437 45.3295 12.7937C45.6511 12.4074 45.4137 11.5674 45.4514 10.9297C45.5105 9.93045 46.1382 9.29485 47.0323 9.29762Z" fill="#090909"/>
<path d="M72.513 61.7755C72.712 61.7672 72.9107 61.7982 73.0977 61.8668C73.2847 61.9355 73.4563 62.0404 73.6026 62.1755C73.749 62.3106 73.8673 62.4734 73.9507 62.6543C74.0341 62.8353 74.0809 63.0309 74.0886 63.2301C74.1207 63.7948 74.1211 64.3609 74.0896 64.9257C74.0658 65.3435 74.2238 65.4571 74.6189 65.4369C75.1578 65.4097 75.6977 65.4127 76.2363 65.4458C77.1251 65.5002 77.7609 66.1391 77.7794 66.9541C77.7748 67.3696 77.6099 67.7673 77.3191 68.0641C77.0284 68.3609 76.6343 68.5338 76.2192 68.5468C75.6556 68.5775 75.0883 68.5727 74.5242 68.5482C74.1856 68.5335 74.0758 68.6434 74.0908 68.9823C74.1158 69.5466 74.1147 70.1137 74.0915 70.6783C74.0811 71.0801 73.9182 71.4629 73.6358 71.7488C73.3534 72.0348 72.9727 72.2024 72.5713 72.2176C71.7335 72.2365 71.0586 71.5538 71.0019 70.6549C70.9587 69.9707 71.2967 69.0605 70.8558 68.6678C70.4775 68.3309 69.5866 68.5808 68.9233 68.5509C68.0082 68.5097 67.3367 67.8547 67.3207 67.0108C67.3042 66.1435 67.9248 65.4988 68.8699 65.4444C69.4333 65.4119 70.0002 65.4181 70.5646 65.4343C70.8997 65.4439 71.0157 65.3186 71.0059 64.9865C70.9885 64.3959 70.9844 63.8033 71.0142 63.2135C71.024 62.8245 71.187 62.4552 71.4677 62.1859C71.7484 61.9165 72.1241 61.769 72.513 61.7755Z" fill="#090909"/>
<path d="M60.0588 21.4489C60.0565 21.6955 60.0031 21.9389 59.9018 22.1638C59.8004 22.3886 59.6535 22.5899 59.4703 22.7549C57.6736 24.5523 55.8842 26.3571 54.0749 28.1416C53.3227 28.8835 52.4101 28.8934 51.7594 28.2232C51.1288 27.5737 51.1392 26.6807 51.8484 25.9615C53.6688 24.1154 55.5018 22.2818 57.3475 20.4608C57.8399 19.9731 58.4299 19.7857 59.1041 20.0905C59.3777 20.2 59.6136 20.3866 59.7831 20.6278C59.9526 20.869 60.0484 21.1542 60.0588 21.4489Z" fill="#090909"/>
<path d="M69.3275 59.6829C69.33 60.0975 69.1682 60.4961 68.8776 60.7917C68.587 61.0872 68.1912 61.2555 67.7769 61.2598C67.3627 61.2458 66.9703 61.0709 66.6829 60.7723C66.3955 60.4736 66.2356 60.0747 66.2373 59.6601C66.2513 59.2589 66.4159 58.8777 66.6984 58.5926C66.9809 58.3075 67.3605 58.1395 67.7614 58.1221C68.1757 58.1221 68.5731 58.2863 68.8666 58.5789C69.1602 58.8714 69.3259 59.2684 69.3275 59.6829Z" fill="#090909"/>
<path d="M73.9786 35.6904C72.5575 37.8257 72.8981 39.6792 74.8673 41.2724L74.6848 41.4006C73.9575 41.4006 73.2289 41.4275 72.5034 41.3929C72.183 41.3659 71.8613 41.4282 71.574 41.5727C71.2868 41.7173 71.0451 41.9386 70.8757 42.212C70.4556 42.8201 70.0189 43.4167 69.5292 44.1028C69.2836 43.3254 69.0558 42.6557 68.8616 41.9763C68.6542 41.2504 68.236 40.7795 67.4802 40.5853C66.8004 40.4106 66.1396 40.1617 65.3401 39.9035C66.0124 39.4249 66.5767 38.9973 67.1673 38.61C67.4642 38.4284 67.7053 38.1685 67.8641 37.8588C68.023 37.5491 68.0934 37.2016 68.0677 36.8544C68.0519 36.1691 68.0644 35.4831 68.0644 34.6484C68.6867 35.1069 69.2325 35.469 69.7318 35.8868C70.012 36.1522 70.3658 36.3268 70.7468 36.3878C71.1278 36.4488 71.5184 36.3933 71.8673 36.2286C72.4711 35.9793 73.1087 35.8121 73.7313 35.6083L73.9786 35.6904Z" fill="#FED78E"/>
<path d="M22.8847 10.8145C20.864 10.2669 19.5573 11.115 18.674 12.9186C18.3645 10.919 17.4354 9.67426 15.2325 9.68841C15.8864 8.83969 16.8587 8.63109 17.2703 7.83794C17.6775 7.05341 17.3536 6.17535 17.5153 5.24902C17.8864 5.51885 18.2314 5.72758 18.5262 5.99215C19.2508 6.64277 20.0302 6.81262 20.9265 6.38027C21.1634 6.28383 21.4063 6.2031 21.6538 6.13861C21.7944 6.09257 21.9514 5.97322 22.0777 6.10575C22.1962 6.23016 22.0911 6.39143 22.049 6.53275C22.0329 6.58137 22.0121 6.62834 21.987 6.67301C21.3072 7.97668 21.516 9.13038 22.5608 10.1523C22.6744 10.2862 22.7747 10.4307 22.8603 10.584L22.8847 10.8145Z" fill="#EF7779"/>
<path d="M29.3579 58.2454C28.8332 59.3878 28.975 59.9286 29.9873 60.6806C32.6312 62.6446 35.4291 64.3377 38.6576 65.5734C36.8001 66.173 35.0692 66.7392 33.3336 67.2909C23.949 70.2738 14.5634 73.2541 5.17704 76.2316C4.91694 76.3368 4.64168 76.3998 4.36169 76.418C3.79893 76.4051 3.50812 75.8635 3.70902 75.2266C4.74074 71.9568 5.77707 68.6884 6.818 65.4215C9.29305 57.6173 11.7681 49.8131 14.2431 42.0089C14.297 41.8388 14.3645 41.673 14.4639 41.4004C15.3007 43.5628 16.3653 45.6299 17.6398 47.5666C18.1906 48.4018 18.7658 49.2216 19.3506 50.0335C20.0878 51.0571 20.6367 51.1905 21.7814 50.6664C22.5674 51.6521 23.4022 52.5977 24.2827 53.4999C23.9934 53.9512 23.7114 54.4004 23.8658 54.9813C24.1813 56.1676 25.3261 56.4983 26.5272 55.7445C27.4285 56.6248 28.3732 57.4595 29.3579 58.2454Z" fill="#FED78E"/>
<path d="M29.3579 58.2455C28.3732 57.4596 27.4284 56.6249 26.5271 55.7444C26.6331 55.4623 26.8594 55.2388 26.8938 54.9186C26.9615 54.2887 26.7982 53.7505 26.2639 53.387C25.5863 52.9259 24.9217 53.0846 24.2826 53.4999C23.4021 52.5978 22.5673 51.6521 21.7813 50.6665C22.55 49.7007 22.5576 49.1658 21.7968 48.1303C19.7255 45.3108 17.9375 42.3395 16.9463 38.9519C16.5924 37.7424 16.3719 36.5098 16.5215 35.2336C16.7539 33.2528 17.8574 32.2216 19.8734 32.1457C21.7571 32.0747 23.5148 32.6152 25.2367 33.2939C26.3453 33.7575 27.4283 34.2802 28.481 34.8598C28.9461 35.1034 29.02 35.3255 28.8395 35.7978C28.0591 37.8646 26.8683 39.7517 25.3388 41.3452C24.3215 42.4061 24.6613 43.7793 25.9939 44.0912C26.6508 44.2449 27.121 43.9305 27.5561 43.4887C29.2417 41.7581 30.5803 39.7205 31.4998 37.4861C31.5689 37.3223 31.6361 37.1576 31.721 36.9525C33.3773 38.1276 34.9536 39.4116 36.4395 40.7961C36.8409 41.1648 36.5011 41.3148 36.3044 41.5124C34.5451 43.2797 32.7831 45.0442 31.0183 46.806C30.5691 47.2555 30.2034 47.7453 30.3564 48.4325C30.6351 49.6847 32 50.1101 32.9843 49.2192C33.7647 48.5127 34.4835 47.738 35.229 46.993C36.32 45.9027 37.4301 44.8304 38.4904 43.711C38.8636 43.3171 39.0479 43.3872 39.3766 43.7461C40.6949 45.184 41.9258 46.6998 43.0625 48.2854C42.5463 48.5191 42.0503 48.7357 41.5612 48.9667C39.6762 49.8491 37.9585 51.052 36.4844 52.5218C35.7471 53.2583 35.6849 54.0983 36.3052 54.7703C36.9504 55.4691 37.8543 55.4855 38.6156 54.7457C40.2187 53.1884 42.1245 51.9772 44.2148 51.1874C44.6865 51.0065 44.9043 51.0847 45.1536 51.5424C46.3833 53.8008 47.4329 56.1184 47.807 58.6923C47.9472 59.5575 47.9054 60.4424 47.6842 61.2905C47.2454 62.8874 45.7189 63.7219 43.7088 63.5551C40.2883 63.2712 37.3474 61.7515 34.4961 60.008C33.579 59.4472 32.7127 58.8026 31.8304 58.1859C30.8228 57.4816 30.3092 57.4887 29.3579 58.2455Z" fill="#A5C5E7"/>
<path d="M66.0332 9.56061C66.0266 9.18808 66.0937 8.81793 66.2304 8.47139C66.3672 8.12484 66.571 7.80874 66.8302 7.54119C67.0894 7.27365 67.3988 7.05993 67.7408 6.91232C68.0827 6.7647 68.4504 6.68609 68.8227 6.68099C69.1951 6.67818 69.5644 6.74911 69.9093 6.88968C70.2541 7.03026 70.5678 7.23771 70.8322 7.50009C71.0966 7.76246 71.3065 8.07457 71.4498 8.41845C71.5931 8.76232 71.667 9.13117 71.6672 9.50374C71.6741 9.87609 71.6074 10.2461 71.4709 10.5926C71.3343 10.939 71.1307 11.2551 70.8716 11.5225C70.6125 11.7899 70.3031 12.0034 69.9613 12.1507C69.6194 12.2981 69.2518 12.3763 68.8796 12.381C68.5074 12.3835 68.1383 12.3125 67.7937 12.172C67.449 12.0315 67.1354 11.8242 66.8709 11.5622C66.6065 11.3002 66.3963 10.9885 66.2526 10.645C66.1088 10.3015 66.0343 9.93299 66.0332 9.56061Z" fill="#BED6ED"/>
<path d="M24.2826 53.4997C24.9218 53.0845 25.5864 52.9258 26.2639 53.3868C26.7982 53.7503 26.9615 54.2885 26.8938 54.9185C26.8594 55.2386 26.6331 55.4621 26.5271 55.7442C25.326 56.4982 24.1811 56.1675 23.8657 54.9811C23.7113 54.4002 23.9933 53.9511 24.2826 53.4997Z" fill="#090909"/>
</g>
<defs>
<clipPath id="clip0_400_4106">
<rect width="79" height="79" fill="white" transform="translate(0.5 0.5)"/>
</clipPath>
</defs>
</svg>
