<svg width="30" height="30" viewBox="0 0 30 30" fill="none" xmlns="http://www.w3.org/2000/svg">
<g clip-path="url(#clip0_7004_2293)">
<path d="M10.9672 5.66157C12.7616 2.44253 13.6588 0.833008 15.0002 0.833008C16.3417 0.833008 17.2389 2.44252 19.0332 5.66156L19.4975 6.49437C20.0075 7.40911 20.2623 7.8665 20.66 8.16828C21.0575 8.47006 21.5525 8.58208 22.5428 8.80612L23.4443 9.0101C26.9288 9.79852 28.6712 10.1927 29.0857 11.5257C29.5002 12.8586 28.3125 14.2476 25.9368 17.0255L25.3223 17.7441C24.6472 18.5335 24.3096 18.9282 24.1578 19.4165C24.006 19.9048 24.057 20.4314 24.159 21.4847L24.252 22.4435C24.6111 26.1498 24.7907 28.003 23.7056 28.8268C22.6203 29.6506 20.989 28.8995 17.7264 27.3974L16.8823 27.0086C15.9552 26.5818 15.4917 26.3683 15.0002 26.3683C14.5088 26.3683 14.0453 26.5818 13.1182 27.0086L12.2741 27.3974C9.01151 28.8995 7.38021 29.6506 6.29499 28.8268C5.20978 28.003 5.38935 26.1498 5.74851 22.4435L5.84142 21.4847C5.94349 20.4314 5.99452 19.9048 5.84266 19.4165C5.69082 18.9282 5.3533 18.5335 4.67824 17.7441L4.06366 17.0255C1.68811 14.2476 0.500325 12.8586 0.914844 11.5257C1.32936 10.1927 3.07165 9.79852 6.55621 9.0101L7.45771 8.80612C8.44791 8.58208 8.94301 8.47006 9.34055 8.16828C9.73808 7.8665 9.99305 7.40913 10.503 6.49437L10.9672 5.66157Z" fill="black"/>
</g>
<defs>
<clipPath id="clip0_7004_2293">
<rect width="30" height="30" fill="white"/>
</clipPath>
</defs>
</svg>
