<svg width="20" height="20" viewBox="0 0 13 13" fill="none" xmlns="http://www.w3.org/2000/svg">
<path d="M12.2551 7.72119C11.4251 11.0513 8.05228 13.0848 4.71606 12.2543C1.38594 11.4218 -0.644276 8.04891 0.185711 4.7188C1.0157 1.3887 4.3865 -0.644787 7.71459 0.185705C11.0528 1.00602 13.0831 4.38905 12.2551 7.72119Z" fill="#0088CC"/>
<path fill-rule="evenodd" clip-rule="evenodd" d="M3.80012 3.12598H8.78349C8.95016 3.12598 9.11497 3.12598 9.3372 3.23709C9.55942 3.3482 9.66868 3.51487 9.77979 3.62413C9.77979 3.62413 9.77979 3.62413 9.77979 3.67968C9.8909 3.84635 9.94646 4.01117 9.94646 4.23339C9.94646 4.40006 9.8909 4.62043 9.77979 4.7871L6.62421 10.1594C6.56866 10.2705 6.40199 10.326 6.29273 10.326C6.18162 10.326 6.0168 10.2705 5.96124 10.1594L2.85937 4.7871C2.80381 4.67599 2.6927 4.51117 2.63715 4.23339C2.63715 4.01117 2.6927 3.7908 2.74826 3.62413C2.85937 3.45746 3.02419 3.29264 3.19085 3.18153C3.46863 3.12598 3.68901 3.12598 3.80012 3.12598ZM5.90384 3.90191H3.80012C3.68901 3.90191 3.63345 3.90191 3.57789 3.90191C3.52234 3.90191 3.46678 3.95746 3.46678 4.01302C3.41123 4.06858 3.41123 4.12413 3.41123 4.17969C3.41123 4.23524 3.41123 4.23524 3.52234 4.40191L5.90384 8.55565V3.90191ZM6.67977 3.90191V8.55379L9.11682 4.40006C9.11682 4.3445 9.17238 4.28895 9.17238 4.17784C9.17238 4.12228 9.17238 4.06672 9.11682 4.01117C9.06127 3.95561 9.06127 3.95561 9.06127 3.95561C9.06127 3.95561 9.06127 3.95561 9.00571 3.95561C8.95016 3.95561 8.8946 3.90006 8.78349 3.90006H6.67977V3.90191Z" fill="white"/>
</svg>
