<svg width="23" height="23" viewBox="0 0 23 23" fill="none" xmlns="http://www.w3.org/2000/svg">
<path d="M19.3981 4.96983C17.9455 4.30329 16.3878 3.81222 14.7591 3.53096C14.7294 3.52554 14.6998 3.5391 14.6845 3.56623C14.4841 3.92255 14.2622 4.3874 14.1068 4.75276C12.3551 4.4905 10.6123 4.4905 8.8964 4.75276C8.74097 4.37927 8.51101 3.92255 8.30977 3.56623C8.29449 3.54001 8.26486 3.52644 8.2352 3.53096C6.60739 3.81132 5.04966 4.30239 3.59612 4.96983C3.58354 4.97525 3.57275 4.9843 3.56559 4.99605C0.610898 9.4103 -0.198516 13.7161 0.198555 17.9684C0.200352 17.9892 0.21203 18.0091 0.228201 18.0218C2.17762 19.4534 4.06597 20.3225 5.91925 20.8986C5.94892 20.9076 5.98034 20.8968 5.99922 20.8723C6.43761 20.2737 6.8284 19.6424 7.16347 18.9786C7.18324 18.9397 7.16436 18.8936 7.12395 18.8782C6.50409 18.6431 5.91386 18.3564 5.3461 18.0308C5.30119 18.0046 5.2976 17.9404 5.33891 17.9096C5.45839 17.8201 5.5779 17.7269 5.69198 17.6329C5.71263 17.6157 5.74139 17.6121 5.76565 17.6229C9.49559 19.3259 13.5337 19.3259 17.2196 17.6229C17.2439 17.6112 17.2726 17.6148 17.2942 17.632C17.4083 17.726 17.5278 17.8201 17.6482 17.9096C17.6895 17.9404 17.6868 18.0046 17.6419 18.0308C17.0741 18.3627 16.4839 18.6431 15.8631 18.8773C15.8227 18.8927 15.8047 18.9397 15.8245 18.9786C16.1668 19.6415 16.5575 20.2727 16.9878 20.8714C17.0058 20.8968 17.0381 20.9076 17.0678 20.8986C18.9301 20.3225 20.8184 19.4534 22.7678 18.0218C22.7849 18.0091 22.7957 17.9901 22.7975 17.9693C23.2727 13.0531 22.0015 8.78267 19.4278 4.99695C19.4215 4.9843 19.4107 4.97525 19.3981 4.96983ZM7.72047 15.3792C6.5975 15.3792 5.67221 14.3482 5.67221 13.0821C5.67221 11.8159 6.57956 10.785 7.72047 10.785C8.87034 10.785 9.78667 11.825 9.7687 13.0821C9.7687 14.3482 8.86135 15.3792 7.72047 15.3792ZM15.2936 15.3792C14.1706 15.3792 13.2453 14.3482 13.2453 13.0821C13.2453 11.8159 14.1526 10.785 15.2936 10.785C16.4435 10.785 17.3598 11.825 17.3418 13.0821C17.3418 14.3482 16.4435 15.3792 15.2936 15.3792Z" fill="#5865F2"/>
</svg>
