<svg width="20" height="20" viewBox="0 0 6 10" fill="none" xmlns="http://www.w3.org/2000/svg">
<path d="M3.07782 6.50866C3.05365 6.51688 3.03987 6.49585 3.02343 6.48618C2.21762 6.01059 1.41269 5.53467 0.608647 5.05844C0.600861 5.05451 0.592778 5.05119 0.584473 5.04853V5.03789L0.598736 5.02967C0.618988 5.02436 0.638924 5.0179 0.658448 5.01033L2.55735 4.14634C2.72657 4.06922 2.89579 3.99332 3.06501 3.91693H3.0771C3.0771 3.9411 3.0771 3.96262 3.0771 3.98558C3.07774 4.82669 3.07798 5.66772 3.07782 6.50866Z" fill="#343535"/>
<path d="M3.07902 3.91751H3.06694C3.06694 3.89334 3.06935 3.86916 3.06935 3.84378C3.06935 2.89905 3.06935 1.95423 3.06935 1.00934C3.06658 0.985067 3.06821 0.960497 3.07419 0.936812H3.07927C3.17862 1.08355 3.26517 1.23827 3.35655 1.38984C4.08049 2.59066 4.80403 3.79132 5.52717 4.99182C5.53418 5.00367 5.53974 5.016 5.54602 5.02905C5.52555 5.02467 5.50543 5.01878 5.48583 5.0114C5.35311 4.95145 5.21991 4.89053 5.0884 4.82937C4.88244 4.73509 4.67639 4.64097 4.47026 4.54701L3.47718 4.09713C3.34494 4.03621 3.21198 3.97698 3.07902 3.91751Z" fill="#2F3030"/>
<path d="M3.07499 0.935563C3.06901 0.959247 3.06737 0.983818 3.07015 1.00809C3.07015 1.95282 3.07015 2.89763 3.07015 3.84253C3.07015 3.8667 3.0687 3.89088 3.06773 3.91626C2.89851 3.99265 2.72929 4.06856 2.56007 4.14568L0.661169 5.00967C0.641646 5.01724 0.62171 5.02369 0.601458 5.02901C0.656334 4.91491 0.727649 4.81144 0.792678 4.70217C1.54611 3.44978 2.30011 2.19763 3.05468 0.945716C3.05966 0.938781 3.06507 0.932161 3.07088 0.925893L3.07499 0.935563Z" fill="#828384"/>
<path d="M3.07902 3.91751C3.21198 3.97698 3.34498 4.03623 3.4777 4.09618L4.47079 4.54607C4.67707 4.63986 4.88312 4.73398 5.08893 4.82842C5.2214 4.8891 5.35485 4.9505 5.48635 5.01046C5.50595 5.01783 5.52607 5.02373 5.54655 5.02811C5.57072 5.05832 5.53495 5.05953 5.52407 5.06606C5.31786 5.18935 5.11068 5.31094 4.90399 5.43327C4.31075 5.78428 3.71767 6.13521 3.12475 6.48606C3.10977 6.49476 3.09354 6.50117 3.07782 6.50866C3.07798 5.66772 3.07774 4.82669 3.0771 3.98558C3.07734 3.96262 3.07878 3.94048 3.07902 3.91751Z" fill="#131313"/>
<path d="M3.06933 6.98627L4.62254 6.07078C4.91908 5.89576 5.21546 5.72058 5.51167 5.54523L5.53851 5.53049C5.54116 5.55466 5.52448 5.56747 5.51433 5.5815C4.83745 6.53574 4.16056 7.48966 3.48368 8.44326C3.35555 8.62408 3.22767 8.80587 3.09834 8.98525C3.09157 8.99467 3.08117 9.03891 3.06038 8.99202C3.07682 8.97799 3.06957 8.95914 3.06957 8.94367C3.06973 8.29096 3.06965 7.63849 3.06933 6.98627Z" fill="#2F3030"/>
<path d="M3.06933 6.98627C3.06933 7.63849 3.0692 8.29068 3.0692 8.94258C3.0692 8.95926 3.07645 8.97812 3.06001 8.99093C3.02544 8.97014 3.01045 8.93291 2.98749 8.90221C2.20262 7.79663 1.41816 6.6909 0.634106 5.585C0.624195 5.57098 0.615008 5.55599 0.604855 5.54052C0.625161 5.52867 0.63604 5.54487 0.647886 5.55188C1.44161 6.02054 2.23518 6.48961 3.02858 6.95907C3.04333 6.96826 3.05603 6.97756 3.06933 6.98627Z" fill="#828384"/>
<path d="M3.07499 0.935563L3.06936 0.926605C3.08 0.919836 3.07855 0.929748 3.08024 0.934824L3.07499 0.935563Z" fill="#393939"/>
</svg>
