<svg width="23" height="23" viewBox="0 0 23 23" fill="none" xmlns="http://www.w3.org/2000/svg">
<g clip-path="url(#clip0_546_1137)">
<path d="M17.8889 0H5.11111C2.28832 0 0 2.28832 0 5.11111V17.8889C0 20.7117 2.28832 23 5.11111 23H17.8889C20.7117 23 23 20.7117 23 17.8889V5.11111C23 2.28832 20.7117 0 17.8889 0Z" fill="#855DCD"/>
<path d="M5.92889 3.57764H17.0711V19.4221H15.4356V12.1643H15.4195C15.2387 10.1585 13.553 8.58651 11.5 8.58651C9.44703 8.58651 7.76128 10.1585 7.58052 12.1643H7.56442V19.4221H5.92889V3.57764Z" fill="white"/>
<path d="M2.96445 5.82666L3.62889 8.07554H4.19111V17.1734C3.90883 17.1734 3.68 17.4022 3.68 17.6845V18.2978H3.57778C3.2955 18.2978 3.06667 18.5267 3.06667 18.8089V19.4223H8.79108V18.8089C8.79108 18.5267 8.56228 18.2978 8.27998 18.2978H8.17778V17.6845C8.17778 17.4022 7.9489 17.1734 7.66667 17.1734H7.0533V5.82666H2.96445Z" fill="white"/>
<path d="M15.5378 17.1734C15.2555 17.1734 15.0267 17.4022 15.0267 17.6845V18.2978H14.9245C14.6422 18.2978 14.4133 18.5267 14.4133 18.8089V19.4223H20.1378V18.8089C20.1378 18.5267 19.909 18.2978 19.6267 18.2978H19.5245V17.6845C19.5245 17.4022 19.2957 17.1734 19.0134 17.1734V8.07554H19.5756L20.24 5.82666H16.1511V17.1734H15.5378Z" fill="white"/>
</g>
<defs>
<clipPath id="clip0_546_1137">
<rect width="23" height="23" fill="white"/>
</clipPath>
</defs>
</svg>
