<svg width="22" height="20" viewBox="0 0 23 20" fill="none" xmlns="http://www.w3.org/2000/svg">
<path fill-rule="evenodd" clip-rule="evenodd" d="M1.95217 8.82295C7.89526 6.23364 11.8583 4.52661 13.8411 3.70186C19.5027 1.34703 20.6791 0.937968 21.4459 0.92446C21.6145 0.92149 21.9916 0.963285 22.2359 1.16148C22.4421 1.32883 22.4989 1.5549 22.526 1.71357C22.5532 1.87224 22.587 2.23369 22.5601 2.51612C22.2533 5.73971 20.9258 13.5625 20.2504 17.173C19.9646 18.7007 19.4019 19.2129 18.8572 19.2631C17.6733 19.372 16.7743 18.4807 15.6277 17.729C13.8334 16.5529 12.8197 15.8207 11.0781 14.673C9.06528 13.3466 10.3701 12.6176 11.5172 11.4262C11.8174 11.1144 17.0336 6.36982 17.1345 5.93941C17.1472 5.88558 17.1589 5.68493 17.0397 5.57898C16.9205 5.47303 16.7446 5.50926 16.6176 5.53808C16.4376 5.57892 13.5712 7.47349 8.01843 11.2218C7.20482 11.7805 6.46787 12.0527 5.8076 12.0384C5.07969 12.0227 3.67949 11.6269 2.63859 11.2885C1.36188 10.8735 0.347182 10.6541 0.435539 9.94927C0.481562 9.58216 0.987105 9.20672 1.95217 8.82295Z" fill="url(#paint0_linear_592_726)"/>
<defs>
<linearGradient id="paint0_linear_592_726" x1="11.5001" y1="0.924316" x2="11.5001" y2="19.1361" gradientUnits="userSpaceOnUse">
<stop stop-color="#2AABEE"/>
<stop offset="1" stop-color="#229ED9"/>
</linearGradient>
</defs>
</svg>
