<svg width="24" height="24" viewBox="0 0 24 24" fill="none" xmlns="http://www.w3.org/2000/svg">
<path fill-rule="evenodd" clip-rule="evenodd" d="M4.33224 7.94948C4.33224 4.7148 7.34199 1.20508 11.8181 1.20508C16.2942 1.20508 19.304 4.7148 19.304 7.94948C19.304 8.77933 19.4096 9.36041 19.5538 9.80724C19.6984 10.2555 19.8911 10.5999 20.1132 10.9716C20.1359 11.0096 20.1592 11.0483 20.1829 11.0877C20.3855 11.4244 20.6206 11.8151 20.8001 12.2848C21.0071 12.8265 21.1362 13.4549 21.1362 14.2711C21.1362 14.2929 21.1353 14.3147 21.1334 14.3364C21.0602 15.1804 20.8094 15.921 20.3323 16.5381C19.8573 17.1525 19.2012 17.5886 18.41 17.8984C16.8642 18.5038 14.6558 18.6804 11.8181 18.6804C8.98169 18.6804 6.77341 18.5067 5.22756 17.9028C4.43616 17.5936 3.77966 17.1579 3.30432 16.5426C2.827 15.9247 2.57627 15.1827 2.50283 14.3364C2.50094 14.3147 2.5 14.2929 2.5 14.2711C2.5 13.4549 2.62907 12.8265 2.83607 12.2848C3.01556 11.8151 3.25072 11.4244 3.4533 11.0878C3.47705 11.0483 3.50035 11.0096 3.52306 10.9716C3.7451 10.5999 3.93783 10.2555 4.08245 9.80724C4.22662 9.36041 4.33224 8.77933 4.33224 7.94948ZM11.8181 2.71612C8.1442 2.71612 5.84328 5.58128 5.84328 7.94948C5.84328 8.91288 5.71988 9.65324 5.5205 10.2712C5.32158 10.8878 5.05624 11.3515 4.82023 11.7466C4.79688 11.7856 4.77403 11.8237 4.75168 11.861C4.54268 12.2095 4.37674 12.4862 4.24755 12.8242C4.11335 13.1754 4.01449 13.6105 4.01113 14.238C4.06822 14.8431 4.2401 15.2822 4.5001 15.6188C4.76668 15.9639 5.16995 16.258 5.77738 16.4953C7.02918 16.9843 8.97479 17.1694 11.8181 17.1694C14.6611 17.1694 16.6072 16.9817 17.859 16.4914C18.4667 16.2534 18.8702 15.9588 19.1368 15.6139C19.3968 15.2777 19.5683 14.8399 19.6251 14.238C19.6217 13.6105 19.5229 13.1754 19.3887 12.8242C19.2595 12.4862 19.0935 12.2095 18.8845 11.861C18.8622 11.8237 18.8393 11.7856 18.816 11.7466C18.58 11.3515 18.3146 10.8878 18.1157 10.2712C17.9163 9.65324 17.7929 8.91288 17.7929 7.94948C17.7929 5.58128 15.492 2.71612 11.8181 2.71612Z" fill="#323F4B"/>
<path fill-rule="evenodd" clip-rule="evenodd" d="M8.81453 20.3947C9.1249 20.1158 9.60259 20.1414 9.88147 20.4517C10.9657 21.6584 12.5863 21.647 13.6633 20.4511C13.9425 20.141 14.4202 20.1161 14.7303 20.3953C15.0403 20.6745 15.0653 21.1522 14.7861 21.4623C13.1147 23.3181 10.4479 23.343 8.75751 21.4617C8.47863 21.1513 8.50415 20.6736 8.81453 20.3947Z" fill="#323F4B"/>
<path d="M21.4545 5.72727C21.4545 7.78579 19.7858 9.45455 17.7273 9.45455C15.6688 9.45455 14 7.78579 14 5.72727C14 3.66876 15.6688 2 17.7273 2C19.7858 2 21.4545 3.66876 21.4545 5.72727Z" fill="#FF5151"/>
<path fill-rule="evenodd" clip-rule="evenodd" d="M17.7273 8.52273C19.2712 8.52273 20.5227 7.27116 20.5227 5.72727C20.5227 4.18339 19.2712 2.93182 17.7273 2.93182C16.1834 2.93182 14.9318 4.18339 14.9318 5.72727C14.9318 7.27116 16.1834 8.52273 17.7273 8.52273ZM17.7273 9.45455C19.7858 9.45455 21.4545 7.78579 21.4545 5.72727C21.4545 3.66876 19.7858 2 17.7273 2C15.6688 2 14 3.66876 14 5.72727C14 7.78579 15.6688 9.45455 17.7273 9.45455Z" fill="#FCFCFD"/>
</svg>
