<svg width="24" height="24" viewBox="0 0 24 24" fill="none" xmlns="http://www.w3.org/2000/svg">
<path fill-rule="evenodd" clip-rule="evenodd" d="M11.2222 5.77772C8.21528 5.77772 5.77772 8.21528 5.77772 11.2222C5.77772 14.2291 8.21528 16.6666 11.2222 16.6666C14.2291 16.6666 16.6666 14.2291 16.6666 11.2222C16.6666 8.21528 14.2291 5.77772 11.2222 5.77772ZM4.22217 11.2222C4.22217 7.35617 7.35617 4.22217 11.2222 4.22217C15.0882 4.22217 18.2222 7.35617 18.2222 11.2222C18.2222 15.0882 15.0882 18.2222 11.2222 18.2222C7.35617 18.2222 4.22217 15.0882 4.22217 11.2222Z" fill="#0F1222"/>
<path fill-rule="evenodd" clip-rule="evenodd" d="M16.5833 16.5833C16.887 16.2795 17.3795 16.2795 17.6832 16.5833L19.5499 18.4499C19.8536 18.7537 19.8536 19.2462 19.5499 19.5499C19.2462 19.8536 18.7537 19.8536 18.4499 19.5499L16.5833 17.6832C16.2795 17.3795 16.2795 16.887 16.5833 16.5833Z" fill="#0F1222"/>
</svg>
