<svg width="23" height="24" viewBox="0 0 23 24" fill="none" xmlns="http://www.w3.org/2000/svg">
<path d="M2.01172 12.0533C8.85514 10.6192 11.2425 8.33533 12.3069 0.987793C13.7657 8.64066 15.9589 11.0797 22.5017 12.0533C15.0891 13.6343 13.3575 16.5252 12.3069 23.3691C10.9614 15.5242 8.5778 13.2097 2.01172 12.0533Z" fill="#12D69B"/>
<path d="M16.2363 5.41765C17.6294 5.1261 18.1154 4.66177 18.3321 3.16797C18.629 4.72385 19.0755 5.21972 20.4074 5.41765C18.8984 5.73909 18.546 6.32681 18.3321 7.71823C18.0582 6.12332 17.573 5.65277 16.2363 5.41765Z" fill="#12D69B"/>
<path d="M0.498047 19.2801C3.3159 18.6909 4.29891 17.7526 4.73722 14.7339C5.33787 17.8781 6.24097 18.8801 8.93503 19.2801C5.88279 19.9297 5.16981 21.1174 4.73722 23.9292C4.18316 20.7062 3.2017 19.7553 0.498047 19.2801Z" fill="#12D69B"/>
</svg>
